<svg width="102" height="48" viewBox="0 0 102 48" fill="none" xmlns="http://www.w3.org/2000/svg">
<rect width="102" height="48" rx="6.62557" fill="#EBFBF4"/>
<path d="M50.5 39.0001C67.3447 39.0001 81 38.84 81 38.6426C81 38.4452 67.3447 38.2852 50.5 38.2852C33.6553 38.2852 20 38.4452 20 38.6426C20 38.84 33.6553 39.0001 50.5 39.0001Z" fill="#58595B"/>
<path d="M77.5953 24.625H66.6911V25.6071H77.5953V24.625Z" fill="#BE1E2D"/>
<path d="M66.6911 25.0388V25.6032H67.2723C67.3023 25.2645 67.3886 24.9334 67.5236 24.6211H66.8111C66.7661 24.7603 66.7249 24.8995 66.6911 25.0388ZM77.2503 24.6249C77.3853 24.9334 77.4715 25.2645 77.5015 25.6069H77.599V24.6249H77.2503Z" fill="#A7A9AC"/>
<path d="M77.6103 30.2204H66.6911C66.5074 30.2204 66.3612 30.0699 66.3612 29.8892V25.8782C66.3612 24.6854 66.9311 23.5491 67.8835 22.8379L70.7558 20.697C71.592 20.0724 72.7132 20.0724 73.5493 20.697L76.4216 22.8379C77.374 23.5491 77.944 24.6854 77.944 25.8782V29.8892C77.9402 30.0699 77.794 30.2204 77.6103 30.2204ZM67.0249 29.5544H77.2803V25.8782C77.2803 24.8961 76.8116 23.9592 76.0241 23.3723L73.1519 21.2313C72.5519 20.7835 71.7495 20.7835 71.1495 21.2313L68.2773 23.3723C67.4898 23.9592 67.0211 24.8961 67.0211 25.8782V29.5544H67.0249Z" fill="#ED1C24"/>
<path d="M67.3998 25.4463H66.8561C66.6799 25.4463 66.5374 25.3033 66.5374 25.1265C66.5374 24.9496 66.6799 24.8066 66.8561 24.8066H67.3998V25.4463Z" fill="#58595B"/>
<path d="M67.5086 25.4463H66.9649C66.7887 25.4463 66.6462 25.3033 66.6462 25.1265C66.6462 24.9496 66.7887 24.8066 66.9649 24.8066H67.5086V25.4463Z" fill="#414042"/>
<path d="M67.1036 25.1262C67.1036 25.224 67.0324 25.303 66.9499 25.303C66.8636 25.303 66.7961 25.224 66.7961 25.1262C66.7961 25.0284 66.8674 24.9493 66.9499 24.9493C67.0361 24.9456 67.1036 25.0284 67.1036 25.1262Z" fill="black"/>
<path d="M66.9499 25.2583C66.9274 25.2583 66.9011 25.2508 66.8824 25.2395C66.8186 25.2019 66.7999 25.1191 66.8374 25.0551L72.1244 16.416C72.1619 16.352 72.2444 16.3332 72.3082 16.3708C72.3719 16.4084 72.3907 16.4912 72.3532 16.5552L67.0661 25.1943C67.0361 25.2357 66.9949 25.2583 66.9499 25.2583Z" fill="black"/>
<path d="M76.1891 25.2583C76.1404 25.2583 76.0916 25.2282 76.0691 25.1793L72.117 16.5401C72.087 16.4724 72.117 16.3934 72.1807 16.3633C72.2482 16.3332 72.3269 16.3633 72.3569 16.4273L76.3091 25.0664C76.3391 25.1342 76.3091 25.2132 76.2454 25.2433C76.2266 25.2546 76.2079 25.2583 76.1891 25.2583Z" fill="black"/>
<path d="M76.7928 25.4463H76.2491C76.0729 25.4463 75.9304 25.3033 75.9304 25.1265C75.9304 24.9496 76.0729 24.8066 76.2491 24.8066H76.7928V25.4463Z" fill="#58595B"/>
<path d="M76.8978 25.4463H76.3541C76.1779 25.4463 76.0354 25.3033 76.0354 25.1265C76.0354 24.9496 76.1779 24.8066 76.3541 24.8066H76.8978V25.4463Z" fill="#414042"/>
<path d="M76.4928 25.1262C76.4928 25.224 76.4216 25.303 76.3391 25.303C76.2529 25.303 76.1854 25.224 76.1854 25.1262C76.1854 25.0284 76.2566 24.9493 76.3391 24.9493C76.4253 24.9456 76.4928 25.0284 76.4928 25.1262Z" fill="black"/>
<path d="M71.2583 16.9053L53.0273 25.7025V21.8457L70.5646 15.1255C70.8008 15.0352 71.0558 14.9863 71.3145 14.9863H72.6719C72.8782 14.9901 71.7682 16.6607 71.2583 16.9053Z" fill="black"/>
<path d="M72.1395 17.1461L56.4808 27.1624V21.8457L71.8057 15.1255C72.012 15.0352 72.237 14.9863 72.4619 14.9863H72.8069C72.9907 14.9863 73.1369 15.1331 73.1369 15.3174C73.1369 16.0587 72.7619 16.7473 72.1395 17.1461Z" fill="#A7A9AC"/>
<path d="M72.237 16.4882C72.4917 16.4882 72.6982 16.2473 72.6982 15.9502C72.6982 15.653 72.4917 15.4121 72.237 15.4121C71.9822 15.4121 71.7757 15.653 71.7757 15.9502C71.7757 16.2473 71.9822 16.4882 72.237 16.4882Z" fill="black"/>
<path opacity="0.5" d="M70.6583 16.9927C70.2046 16.7218 69.6272 16.6653 69.0985 16.9174L56.4808 22.9039V23.2087L69.2785 17.0266C69.7397 16.8046 70.2346 16.8159 70.6583 16.9927Z" fill="white"/>
<path d="M71.2995 17.6846C71.1533 17.3911 70.9283 17.1541 70.6583 16.9923C70.2346 16.8154 69.7397 16.8079 69.2822 17.0299L56.4808 23.2083V27.1591L71.2995 17.6846Z" fill="#D1D3D4"/>
<path d="M53.0648 19.9342H40.9308V13.944C40.9308 12.8528 42.4381 11.9648 43.5256 11.9648H51.0887C52.1761 11.9648 53.061 12.8528 53.061 13.944V19.9342H53.0648ZM41.9544 19.5354H51.9474V13.944C51.9474 13.0711 51.9624 12.3637 51.0924 12.3637H43.5293C42.6594 12.3637 41.9544 13.0711 41.9544 13.944V19.5354Z" fill="#414042"/>
<path d="M52.2961 19.9342H40.7883V13.944C40.7883 12.8528 41.6732 11.9648 42.7606 11.9648H50.3238C51.4112 11.9648 52.2961 12.8528 52.2961 13.944V19.9342ZM41.1858 19.5354H51.8986V13.944C51.8986 13.0711 51.1937 12.3637 50.3238 12.3637H42.7606C41.8907 12.3637 41.1858 13.0711 41.1858 13.944V19.5354Z" fill="#58595B"/>
<path d="M51.0512 11.3141H48.9251V10.0686C48.9251 9.47786 49.4013 9 49.99 9C50.5787 9 51.0549 9.47786 51.0549 10.0686V11.3141H51.0512Z" fill="#F7941D"/>
<path d="M50.31 11.0275C50.7405 10.8485 50.9449 10.3533 50.7666 9.9213C50.5883 9.48931 50.0947 9.28417 49.6642 9.46311C49.2337 9.64205 49.0293 10.1373 49.2076 10.5693C49.3859 11.0013 49.8795 11.2064 50.31 11.0275Z" fill="#D1D3D4"/>
<path d="M50.2225 10.9222C50.5021 10.9222 50.7287 10.6948 50.7287 10.4142C50.7287 10.1337 50.5021 9.90625 50.2225 9.90625C49.9429 9.90625 49.7163 10.1337 49.7163 10.4142C49.7163 10.6948 49.9429 10.9222 50.2225 10.9222Z" fill="#D1D3D4"/>
<path d="M49.7787 10.2188C49.9509 10.1472 50.0326 9.94913 49.9613 9.77633C49.89 9.60354 49.6926 9.52148 49.5204 9.59306C49.3482 9.66463 49.2664 9.86273 49.3377 10.0355C49.4091 10.2083 49.6065 10.2904 49.7787 10.2188Z" fill="white"/>
<path d="M51.2049 11.3145H48.7714V11.9541H51.2049V11.3145Z" fill="#414042"/>
<path d="M51.2012 11.3145H49.3113V11.9541H51.2012V11.3145Z" fill="#231F20"/>
<path d="M51.2049 11.3145H50.2225V11.9541H51.2049V11.3145Z" fill="black"/>
<path d="M45.1154 11.3141H42.9856V10.0686C42.9856 9.47786 43.4618 9 44.0505 9C44.6392 9 45.1154 9.47786 45.1154 10.0686V11.3141Z" fill="#F7941D"/>
<path d="M44.6473 10.8447C44.9767 10.5141 44.9767 9.97808 44.6473 9.64746C44.3178 9.31684 43.7836 9.31684 43.4541 9.64746C43.1247 9.97808 43.1247 10.5141 43.4541 10.8447C43.7836 11.1753 44.3178 11.1753 44.6473 10.8447Z" fill="#D1D3D4"/>
<path d="M44.2867 10.9222C44.5663 10.9222 44.7929 10.6948 44.7929 10.4142C44.7929 10.1337 44.5663 9.90625 44.2867 9.90625C44.0072 9.90625 43.7805 10.1337 43.7805 10.4142C43.7805 10.6948 44.0072 10.9222 44.2867 10.9222Z" fill="#D1D3D4"/>
<path d="M44.0431 9.98623C44.0859 9.80421 43.9736 9.62182 43.7922 9.57884C43.6108 9.53586 43.429 9.64857 43.3862 9.83059C43.3434 10.0126 43.4557 10.195 43.6371 10.238C43.8185 10.281 44.0002 10.1682 44.0431 9.98623Z" fill="white"/>
<path d="M45.2654 11.3145H42.8319V11.9541H45.2654V11.3145Z" fill="#414042"/>
<path d="M45.2654 11.3145H43.3756V11.9541H45.2654V11.3145Z" fill="#231F20"/>
<path d="M45.2692 11.3145H44.2867V11.9541H45.2692V11.3145Z" fill="black"/>
<path d="M54.7109 17.0449H45.4417V28.0433H54.7109V17.0449Z" fill="black"/>
<mask id="mask0_1668_158" style="mask-type:luminance" maskUnits="userSpaceOnUse" x="56" y="30" width="7" height="9">
<path d="M62.2215 38.4349H60.1217C58.1156 38.4349 56.492 36.5498 56.492 34.2282C56.492 31.9066 58.1156 30.0215 60.1217 30.0215H62.2215C60.2154 30.0215 58.5918 31.9066 58.5918 34.2282C58.5918 36.5498 60.2192 38.4349 62.2215 38.4349Z" fill="white"/>
</mask>
<g mask="url(#mask0_1668_158)">
<path d="M58.5918 34.2246C58.5918 33.9988 58.6068 33.7768 58.6368 33.5586H56.537C56.507 33.7768 56.492 33.9988 56.492 34.2246C56.492 36.5499 58.1156 38.4313 60.1217 38.4313H62.2215C60.2192 38.4351 58.5918 36.5499 58.5918 34.2246Z" fill="#231F20"/>
<path d="M57.3582 31.4961C57.0882 31.8611 56.8745 32.2825 56.7245 32.7378C56.6382 33.0012 56.5782 33.2758 56.537 33.5581H58.6368C58.6743 33.2721 58.7381 32.9974 58.8243 32.7378C58.9743 32.2787 59.188 31.8611 59.458 31.4961H57.3582Z" fill="black"/>
<path d="M58.0594 30.7617C57.8006 30.9687 57.5644 31.217 57.3582 31.4954H59.458C59.6642 31.217 59.9005 30.9687 60.1592 30.7617H58.0594Z" fill="black"/>
<path d="M62.2215 30.0176H60.1217C59.3568 30.0176 58.6443 30.2923 58.0594 30.7626H60.1592C60.7479 30.2923 61.4566 30.0176 62.2215 30.0176Z" fill="black"/>
</g>
<path d="M62.1428 30.0176C64.1939 30.0176 65.855 31.9027 65.855 34.2243C65.855 36.5496 64.1939 38.431 62.1428 38.431C60.0917 38.431 58.4306 36.5459 58.4306 34.2243C58.4306 31.9027 60.0917 30.0176 62.1428 30.0176Z" fill="#939598"/>
<path d="M62.2215 30.0176C64.2276 30.0176 65.8512 31.9027 65.8512 34.2243C65.8512 36.5496 64.2276 38.431 62.2215 38.431C60.2154 38.431 58.5918 36.5459 58.5918 34.2243C58.5918 31.9027 60.2192 30.0176 62.2215 30.0176Z" fill="#414042"/>
<mask id="mask1_1668_158" style="mask-type:luminance" maskUnits="userSpaceOnUse" x="58" y="30" width="7" height="9">
<path d="M64.4601 38.4349H62.3603C60.3542 38.4349 58.7306 36.5498 58.7306 34.2282C58.7306 31.9066 60.3542 30.0215 62.3603 30.0215H64.4601C62.454 30.0215 60.8304 31.9066 60.8304 34.2282C60.8267 36.5498 62.454 38.4349 64.4601 38.4349Z" fill="white"/>
</mask>
<g mask="url(#mask1_1668_158)">
<path d="M60.8266 34.2246C60.8266 33.9988 60.8416 33.7768 60.8716 33.5586H58.7718C58.7418 33.7768 58.7268 33.9988 58.7268 34.2246C58.7268 36.5499 60.3504 38.4313 62.3565 38.4313H64.4563C62.454 38.4351 60.8266 36.5499 60.8266 34.2246Z" fill="#231F20"/>
<path d="M59.5967 31.4961C59.3268 31.8611 59.113 32.2825 58.963 32.7378C58.8768 33.0012 58.8168 33.2758 58.7756 33.5581H60.8754C60.9129 33.2721 60.9766 32.9974 61.0629 32.7378C61.2129 32.2787 61.4266 31.8611 61.6966 31.4961H59.5967Z" fill="black"/>
<path d="M60.2979 30.7617C60.0392 30.9687 59.803 31.217 59.5968 31.4954H61.6966C61.9028 31.217 62.139 30.9687 62.3978 30.7617H60.2979Z" fill="black"/>
<path d="M64.4601 30.0176H62.3603C61.5953 30.0176 60.8829 30.2923 60.2979 30.7626H62.3978C62.9827 30.2923 63.6914 30.0176 64.4601 30.0176Z" fill="black"/>
</g>
<path d="M64.3776 30.0176C66.4287 30.0176 68.0898 31.9027 68.0898 34.2243C68.0898 36.5496 66.4287 38.431 64.3776 38.431C62.3265 38.431 60.6654 36.5459 60.6654 34.2243C60.6654 31.9027 62.3265 30.0176 64.3776 30.0176Z" fill="#939598"/>
<path d="M64.4601 30.0176C66.4662 30.0176 68.0898 31.9027 68.0898 34.2243C68.0898 36.5496 66.4662 38.431 64.4601 38.431C62.454 38.431 60.8304 36.5459 60.8304 34.2243C60.8267 31.9027 62.454 30.0176 64.4601 30.0176Z" fill="black"/>
<path d="M75.9079 26.8652H23.5772V34.8233H75.9079V26.8652Z" fill="black"/>
<mask id="mask2_1668_158" style="mask-type:luminance" maskUnits="userSpaceOnUse" x="28" y="30" width="7" height="9">
<path d="M34.47 38.4349H32.3702C30.3641 38.4349 28.7405 36.5498 28.7405 34.2282C28.7405 31.9066 30.3641 30.0215 32.3702 30.0215H34.47C32.464 30.0215 30.8403 31.9066 30.8403 34.2282C30.8403 36.5498 32.464 38.4349 34.47 38.4349Z" fill="white"/>
</mask>
<g mask="url(#mask2_1668_158)">
<path d="M30.8403 34.2246C30.8403 33.9988 30.8553 33.7768 30.8853 33.5586H28.7855C28.7555 33.7768 28.7405 33.9988 28.7405 34.2246C28.7405 36.5499 30.3641 38.4313 32.3702 38.4313H34.47C32.464 38.4351 30.8403 36.5499 30.8403 34.2246Z" fill="#231F20"/>
<path d="M29.6067 31.4961C29.3367 31.8611 29.123 32.2825 28.973 32.7378C28.8867 33.0012 28.8267 33.2758 28.7855 33.5581H30.8853C30.9228 33.2721 30.9866 32.9974 31.0728 32.7378C31.2228 32.2787 31.4365 31.8611 31.7065 31.4961H29.6067Z" fill="#231F20"/>
<path d="M30.3079 30.7617C30.0492 30.9687 29.8129 31.217 29.6067 31.4954H31.7065C31.9128 31.217 32.149 30.9687 32.4077 30.7617H30.3079Z" fill="#231F20"/>
<path d="M34.4701 30.0176H32.3702C31.6053 30.0176 30.8928 30.2923 30.3079 30.7626H32.4077C32.9927 30.2923 33.7051 30.0176 34.4701 30.0176Z" fill="#231F20"/>
</g>
<path d="M34.3875 30.0176C36.4386 30.0176 38.0997 31.9027 38.0997 34.2243C38.0997 36.5496 36.4386 38.431 34.3875 38.431C32.3365 38.431 30.6754 36.5459 30.6754 34.2243C30.6754 31.9027 32.3402 30.0176 34.3875 30.0176Z" fill="#414042"/>
<path d="M34.47 30.0176C36.4761 30.0176 38.0997 31.9027 38.0997 34.2243C38.0997 36.5496 36.4761 38.431 34.47 38.431C32.4639 38.431 30.8403 36.5459 30.8403 34.2243C30.8403 31.9027 32.4639 30.0176 34.47 30.0176Z" fill="black"/>
<mask id="mask3_1668_158" style="mask-type:luminance" maskUnits="userSpaceOnUse" x="41" y="30" width="7" height="9">
<path d="M47.1703 38.4349H45.0704C43.0644 38.4349 41.4407 36.5498 41.4407 34.2282C41.4407 31.9066 43.0644 30.0215 45.0704 30.0215H47.1703C45.1642 30.0215 43.5406 31.9066 43.5406 34.2282C43.5406 36.5498 45.1642 38.4349 47.1703 38.4349Z" fill="white"/>
</mask>
<g mask="url(#mask3_1668_158)">
<path d="M43.5406 34.2246C43.5406 33.9988 43.5556 33.7768 43.5856 33.5586H41.4857C41.4557 33.7768 41.4407 33.9988 41.4407 34.2246C41.4407 36.5499 43.0644 38.4313 45.0704 38.4313H47.1703C45.1642 38.4351 43.5406 36.5499 43.5406 34.2246Z" fill="black"/>
<path d="M42.3069 31.4961C42.0369 31.8611 41.8232 32.2825 41.6732 32.7378C41.587 33.0012 41.527 33.2758 41.4857 33.5581H43.5856C43.6231 33.2721 43.6868 32.9974 43.773 32.7378C43.923 32.2787 44.1368 31.8611 44.4067 31.4961H42.3069Z" fill="black"/>
<path d="M43.0081 30.7617C42.7494 30.9687 42.5131 31.217 42.3069 31.4954H44.4067C44.613 31.217 44.8492 30.9687 45.1079 30.7617H43.0081Z" fill="black"/>
<path d="M47.1703 30.0176H45.0704C44.3055 30.0176 43.5931 30.2923 43.0081 30.7626H45.1079C45.6929 30.2923 46.4053 30.0176 47.1703 30.0176Z" fill="black"/>
</g>
<path d="M47.0878 30.0176C49.1389 30.0176 50.8 31.9027 50.8 34.2243C50.8 36.5496 49.1389 38.431 47.0878 38.431C45.0367 38.431 43.3756 36.5459 43.3756 34.2243C43.3756 31.9027 45.0404 30.0176 47.0878 30.0176Z" fill="#939598"/>
<path d="M47.1703 30.0176C49.1763 30.0176 50.8 31.9027 50.8 34.2243C50.8 36.5496 49.1763 38.431 47.1703 38.431C45.1642 38.431 43.5406 36.5459 43.5406 34.2243C43.5406 31.9027 45.1642 30.0176 47.1703 30.0176Z" fill="#414042"/>
<path d="M47.1703 31.3906C48.5239 31.3906 49.6188 32.6587 49.6188 34.2277C49.6188 35.793 48.5239 37.0648 47.1703 37.0648C45.8166 37.0648 44.7217 35.7967 44.7217 34.2277C44.7255 32.6587 45.8204 31.3906 47.1703 31.3906Z" fill="#231F20"/>
<path d="M47.1703 31.6348C48.4039 31.6348 49.4051 32.7937 49.4051 34.2273C49.4051 35.6571 48.4039 36.8198 47.1703 36.8198C45.9366 36.8198 44.9355 35.6609 44.9355 34.2273C44.9355 32.7937 45.9366 31.6348 47.1703 31.6348Z" fill="#D1D3D4"/>
<path d="M47.1703 31.9434C48.2577 31.9434 49.1389 32.9631 49.1389 34.2236C49.1389 35.4841 48.2577 36.5038 47.1703 36.5038C46.0829 36.5038 45.2017 35.4841 45.2017 34.2236C45.2054 32.9668 46.0829 31.9434 47.1703 31.9434Z" fill="#939598"/>
<path d="M47.1703 36.5038C48.2554 36.5038 49.1351 35.4829 49.1351 34.2236C49.1351 32.9642 48.2554 31.9434 47.1703 31.9434C46.0851 31.9434 45.2054 32.9642 45.2054 34.2236C45.2054 35.4829 46.0851 36.5038 47.1703 36.5038Z" fill="#E6E7E8"/>
<path d="M47.1703 34.4389C47.894 34.4389 48.5689 34.2997 49.1314 34.0664C49.1351 34.1191 49.1389 34.1755 49.1389 34.2282C49.1389 35.4887 48.2577 36.5084 47.1703 36.5084C46.0829 36.5084 45.2017 35.4887 45.2017 34.2282C45.2017 34.1718 45.2054 34.1191 45.2092 34.0664C45.7754 34.2997 46.4466 34.4389 47.1703 34.4389Z" fill="#BCBEC0"/>
<path d="M45.6179 34.6681C45.5054 34.7472 45.5242 35.0444 45.6591 35.3304C45.7941 35.6163 46.0004 35.7819 46.1129 35.7029C46.2254 35.6239 46.2066 35.3266 46.0716 35.0406C45.9366 34.7547 45.7341 34.5891 45.6179 34.6681Z" fill="black"/>
<path d="M48.9589 33.7499C49.0301 33.6596 48.9701 33.3699 48.8276 33.1028C48.6852 32.8356 48.5127 32.6926 48.4414 32.7829C48.3702 32.8732 48.4302 33.163 48.5727 33.4301C48.7189 33.6973 48.8914 33.8402 48.9589 33.7499Z" fill="black"/>
<path d="M45.6591 33.1227C45.5242 33.4086 45.5054 33.7059 45.6179 33.7849C45.7304 33.8639 45.9329 33.6984 46.0716 33.4124C46.2066 33.1264 46.2254 32.8292 46.1129 32.7502C46.0004 32.6712 45.7979 32.8367 45.6591 33.1227Z" fill="black"/>
<path d="M47.2415 35.8574C46.9678 35.8574 46.7466 35.9854 46.7466 36.1434C46.7466 36.3014 46.9678 36.4294 47.2415 36.4294C47.5152 36.4294 47.7365 36.3014 47.7365 36.1434C47.7365 35.9854 47.5152 35.8574 47.2415 35.8574Z" fill="black"/>
<path d="M48.5277 35.022C48.3927 35.2929 48.3439 35.5864 48.4189 35.6729C48.4939 35.7632 48.6589 35.6127 48.7939 35.3418C48.9289 35.0709 48.9776 34.7774 48.9026 34.6908C48.8314 34.6043 48.6627 34.751 48.5277 35.022Z" fill="black"/>
<path d="M47.2415 32.0195C46.9678 32.0195 46.7466 32.1475 46.7466 32.3055C46.7466 32.4635 46.9678 32.5915 47.2415 32.5915C47.5152 32.5915 47.7365 32.4635 47.7365 32.3055C47.7365 32.1512 47.5152 32.0195 47.2415 32.0195Z" fill="black"/>
<path d="M47.2903 33.25C47.7552 33.25 48.1339 33.6865 48.1339 34.2283C48.1339 34.7664 47.7552 35.8914 47.2903 35.8914C46.8253 35.8914 46.4466 34.7664 46.4466 34.2283C46.4466 33.6865 46.8253 33.25 47.2903 33.25Z" fill="#939598"/>
<mask id="mask4_1668_158" style="mask-type:luminance" maskUnits="userSpaceOnUse" x="46" y="33" width="2" height="3">
<path d="M47.5415 35.2027H47.2903C46.8253 35.2027 46.4466 34.7662 46.4466 34.2244C46.4466 33.6863 46.8253 33.2461 47.2903 33.2461H47.5415C47.0765 33.2461 46.6978 33.6826 46.6978 34.2244C46.6978 34.7662 47.0765 35.2027 47.5415 35.2027Z" fill="white"/>
</mask>
<g mask="url(#mask4_1668_158)">
<path d="M47.5415 35.2034H47.2903C46.8253 35.2034 46.4466 34.7669 46.4466 34.2251C46.4466 34.1047 46.4653 33.988 46.4991 33.8789H46.7503C46.7166 33.988 46.6978 34.1009 46.6978 34.2251C46.6978 34.7669 47.0765 35.2034 47.5415 35.2034Z" fill="#231F20"/>
<path d="M46.7503 33.8815H46.4991C46.5328 33.7762 46.5853 33.6783 46.6453 33.5918H46.8965C46.8365 33.6783 46.7878 33.7724 46.7503 33.8815Z" fill="#BCBEC0"/>
<path d="M46.9003 33.5924H46.6491C46.8028 33.3817 47.0353 33.25 47.2903 33.25H47.5415C47.2828 33.25 47.054 33.3817 46.9003 33.5924Z" fill="#F1F2F2"/>
</g>
<path d="M47.5415 33.25C48.0065 33.25 48.3852 33.6865 48.3852 34.2283C48.3852 34.7664 48.0065 35.2066 47.5415 35.2066C47.0765 35.2066 46.6978 34.7701 46.6978 34.2283C46.6978 33.6865 47.0765 33.25 47.5415 33.25Z" fill="white"/>
<path d="M74.7118 27.7988H70.2421C67.3999 27.7988 65.06 30.2784 64.7338 33.4692H69.8559C70.0734 31.5916 71.0783 30.0038 72.4769 29.1722C73.8756 30.0038 74.8842 31.5916 75.098 33.4692H80.2201C79.8938 30.2784 77.554 27.7988 74.7118 27.7988Z" fill="#58595B"/>
<mask id="mask5_1668_158" style="mask-type:luminance" maskUnits="userSpaceOnUse" x="66" y="30" width="7" height="9">
<path d="M72.6869 38.6419H70.5871C68.581 38.6419 66.9574 36.7568 66.9574 34.4352C66.9574 32.1136 68.581 30.2285 70.5871 30.2285H72.6869C70.6808 30.2285 69.0572 32.1136 69.0572 34.4352C69.0572 36.7568 70.6846 38.6419 72.6869 38.6419Z" fill="white"/>
</mask>
<g mask="url(#mask5_1668_158)">
<path d="M69.0572 34.4355C69.0572 34.2098 69.0722 33.9878 69.1022 33.7695H67.0024C66.9724 33.9878 66.9574 34.2098 66.9574 34.4355C66.9574 36.7609 68.581 38.6422 70.5871 38.6422H72.6869C70.6846 38.6422 69.0572 36.7571 69.0572 34.4355Z" fill="black"/>
<path d="M67.8236 31.707C67.5536 32.072 67.3399 32.4934 67.1899 32.9487C67.1036 33.2121 67.0436 33.4868 67.0024 33.769H69.1022C69.1397 33.483 69.2034 33.2083 69.2897 32.9487C69.4397 32.4897 69.6534 32.072 69.9234 31.707H67.8236Z" fill="black"/>
<path d="M68.5248 30.9727C68.266 31.1796 68.0298 31.4279 67.8236 31.7064H69.9234C70.1296 31.4279 70.3659 31.1796 70.6246 30.9727H68.5248Z" fill="black"/>
<path d="M72.6869 30.2285H70.5871C69.8221 30.2285 69.1097 30.5032 68.5247 30.9735H70.6246C71.2133 30.5032 71.922 30.2285 72.6869 30.2285Z" fill="black"/>
</g>
<path d="M72.6082 30.2285C74.6592 30.2285 76.3204 32.1136 76.3204 34.4352C76.3204 36.7606 74.6592 38.6419 72.6082 38.6419C70.5571 38.6419 68.896 36.7568 68.896 34.4352C68.896 32.1099 70.5571 30.2285 72.6082 30.2285Z" fill="#939598"/>
<path d="M72.6869 30.2285C74.693 30.2285 76.3166 32.1136 76.3166 34.4352C76.3166 36.7606 74.693 38.6419 72.6869 38.6419C70.6808 38.6419 69.0572 36.7568 69.0572 34.4352C69.0572 32.1099 70.6846 30.2285 72.6869 30.2285Z" fill="#414042"/>
<mask id="mask6_1668_158" style="mask-type:luminance" maskUnits="userSpaceOnUse" x="69" y="30" width="6" height="9">
<path d="M74.9217 38.6419H72.8219C70.8158 38.6419 69.1922 36.7568 69.1922 34.4352C69.1922 32.1136 70.8158 30.2285 72.8219 30.2285H74.9217C72.9156 30.2285 71.292 32.1136 71.292 34.4352C71.292 36.7568 72.9194 38.6419 74.9217 38.6419Z" fill="white"/>
</mask>
<g mask="url(#mask6_1668_158)">
<path d="M71.292 34.4355C71.292 34.2098 71.307 33.9878 71.337 33.7695H69.2372C69.2072 33.9878 69.1922 34.2098 69.1922 34.4355C69.1922 36.7609 70.8158 38.6422 72.8219 38.6422H74.9217C72.9194 38.6422 71.292 36.7571 71.292 34.4355Z" fill="black"/>
<path d="M70.0584 31.707C69.7884 32.072 69.5747 32.4934 69.4247 32.9487C69.3384 33.2121 69.2784 33.4868 69.2372 33.769H71.337C71.3745 33.483 71.4383 33.2083 71.5245 32.9487C71.6745 32.4897 71.8882 32.072 72.1582 31.707H70.0584Z" fill="black"/>
<path d="M70.7596 30.9727C70.5008 31.1796 70.2646 31.4279 70.0584 31.7064H72.1582C72.3644 31.4279 72.6007 31.1796 72.8594 30.9727H70.7596Z" fill="black"/>
<path d="M74.9217 30.2285H72.8219C72.057 30.2285 71.3445 30.5032 70.7596 30.9735H72.8594C73.4481 30.5032 74.1568 30.2285 74.9217 30.2285Z" fill="black"/>
</g>
<path d="M74.843 30.2285C76.8941 30.2285 78.5552 32.1136 78.5552 34.4352C78.5552 36.7606 76.8941 38.6419 74.843 38.6419C72.7919 38.6419 71.1308 36.7568 71.1308 34.4352C71.1308 32.1099 72.7919 30.2285 74.843 30.2285Z" fill="#939598"/>
<path d="M74.9217 30.2285C76.9278 30.2285 78.5514 32.1136 78.5514 34.4352C78.5514 36.7606 76.9278 38.6419 74.9217 38.6419C72.9156 38.6419 71.292 36.7568 71.292 34.4352C71.292 32.1099 72.9194 30.2285 74.9217 30.2285Z" fill="#414042"/>
<path d="M74.9255 31.5977C76.2791 31.5977 77.374 32.8657 77.374 34.4347C77.374 36 76.2791 37.2718 74.9255 37.2718C73.5718 37.2718 72.4769 36.0038 72.4769 34.4347C72.4769 32.8694 73.5718 31.5977 74.9255 31.5977Z" fill="#231F20"/>
<path d="M74.9255 31.8418C76.1591 31.8418 77.1603 33.0007 77.1603 34.4343C77.1603 35.8641 76.1591 37.0268 74.9255 37.0268C73.6918 37.0268 72.6907 35.8679 72.6907 34.4343C72.6869 33.0045 73.6881 31.8418 74.9255 31.8418Z" fill="#D1D3D4"/>
<path d="M74.9255 32.1543C76.0129 32.1543 76.8941 33.174 76.8941 34.4345C76.8941 35.695 76.0129 36.7147 74.9255 36.7147C73.8381 36.7147 72.9569 35.695 72.9569 34.4345C72.9569 33.174 73.8381 32.1543 74.9255 32.1543Z" fill="#939598"/>
<path d="M74.5018 32.207C73.6168 32.429 72.9569 33.3434 72.9569 34.4345C72.9569 35.5257 73.6206 36.4363 74.5018 36.6621C75.3867 36.4401 76.0466 35.5257 76.0466 34.4345C76.0466 33.3434 75.3867 32.4328 74.5018 32.207Z" fill="#6D6E71"/>
<path d="M74.4643 36.3941C74.5318 36.5333 74.7867 36.5108 75.0342 36.3452C75.2817 36.1796 75.4242 35.9351 75.3567 35.7958C75.2892 35.6566 75.0342 35.6792 74.7867 35.8448C74.5393 36.0103 74.393 36.2549 74.4643 36.3941ZM75.4879 34.4338C75.4879 34.7649 75.6004 35.032 75.7354 35.032C75.8704 35.032 75.9829 34.7649 75.9829 34.4338C75.9829 34.1026 75.8704 33.8355 75.7354 33.8355C75.6004 33.8355 75.4879 34.1026 75.4879 34.4338ZM74.4643 32.4734C74.3968 32.6126 74.5393 32.8572 74.7867 33.0227C75.0342 33.1883 75.2892 33.2109 75.3567 33.0717C75.4242 32.9324 75.2817 32.6879 75.0342 32.5223C74.7867 32.3605 74.5318 32.3379 74.4643 32.4734Z" fill="black"/>
<path d="M74.9217 34.2238C75.6454 34.2238 76.3204 34.363 76.8828 34.5963C76.8866 34.5436 76.8903 34.4872 76.8903 34.4345C76.8903 33.174 76.0091 32.1543 74.9217 32.1543C73.8343 32.1543 72.9531 33.174 72.9531 34.4345C72.9531 34.4909 72.9569 34.5436 72.9606 34.5963C73.5268 34.3592 74.198 34.2238 74.9217 34.2238Z" fill="#939598"/>
<path d="M74.0818 33.457C74.5467 33.457 74.9255 33.8935 74.9255 34.4353C74.9255 34.9734 74.5467 36.0984 74.0818 36.0984C73.6168 36.0984 73.2381 34.9734 73.2381 34.4353C73.2381 33.8973 73.6131 33.457 74.0818 33.457Z" fill="#939598"/>
<mask id="mask7_1668_158" style="mask-type:luminance" maskUnits="userSpaceOnUse" x="73" y="33" width="2" height="3">
<path d="M74.9255 35.4136H74.0818C73.6168 35.4136 73.2381 34.9772 73.2381 34.4353C73.2381 33.8973 73.6168 33.457 74.0818 33.457H74.9255C74.4605 33.457 74.0818 33.8935 74.0818 34.4353C74.0818 34.9734 74.4567 35.4136 74.9255 35.4136Z" fill="white"/>
</mask>
<g mask="url(#mask7_1668_158)">
<path d="M74.9255 35.4143H74.0818C73.6168 35.4143 73.2381 34.9778 73.2381 34.436C73.2381 34.3156 73.2568 34.199 73.2906 34.0898H74.1343C74.1005 34.199 74.0818 34.3118 74.0818 34.436C74.0818 34.9741 74.4567 35.4143 74.9255 35.4143Z" fill="#231F20"/>
<path d="M74.1343 34.0886H73.2906C73.3243 33.9832 73.3768 33.8854 73.4368 33.7988H74.2805C74.2205 33.8854 74.168 33.9832 74.1343 34.0886Z" fill="#939598"/>
<path d="M74.2805 33.8034H73.4368C73.5906 33.5927 73.823 33.461 74.078 33.461H74.9217C74.6667 33.4573 74.438 33.5927 74.2805 33.8034Z" fill="#939598"/>
</g>
<path d="M74.9255 33.457C75.3904 33.457 75.7691 33.8935 75.7691 34.4353C75.7691 34.9734 75.3904 35.4136 74.9255 35.4136C74.4605 35.4136 74.0818 34.9772 74.0818 34.4353C74.0818 33.8973 74.4567 33.457 74.9255 33.457Z" fill="white"/>
<path d="M21.3049 21.7815C20.6749 21.7815 20.1612 21.266 20.1612 20.6338V19.0949C20.1612 18.4628 20.6749 17.9473 21.3049 17.9473C21.9348 17.9473 22.4485 18.4628 22.4485 19.0949V20.6338C22.4485 21.266 21.9348 21.7815 21.3049 21.7815Z" fill="black"/>
<path d="M21.2486 21.7815C20.6487 21.7815 20.1612 21.2923 20.1612 20.6903V19.0384C20.1612 18.4364 20.6487 17.9473 21.2486 17.9473C21.8486 17.9473 22.336 18.4364 22.336 19.0384V20.6903C22.336 21.2923 21.8486 21.7815 21.2486 21.7815Z" fill="#D1D3D4"/>
<path d="M24.4471 24.9277C24.4209 24.9277 24.3984 24.9202 24.3759 24.9051L21.8786 23.1931C21.4061 22.8695 21.1249 22.3315 21.1249 21.7595V17.9103C21.1249 17.218 21.6161 16.6234 22.2948 16.4918L27.9306 15.4081C27.9981 15.3968 28.0656 15.4382 28.0768 15.5097C28.0881 15.5774 28.0468 15.6451 27.9756 15.6564L22.3361 16.7401C21.7774 16.8492 21.3724 17.3384 21.3724 17.9103V21.7595C21.3724 22.2487 21.6124 22.7077 22.0173 22.9862L24.5146 24.6982C24.5709 24.7358 24.5859 24.8148 24.5484 24.875C24.5259 24.9089 24.4884 24.9277 24.4471 24.9277Z" fill="#939598"/>
<path d="M24.4471 24.8034L21.9498 23.0914C21.5111 22.7904 21.2486 22.2937 21.2486 21.7632V17.9102C21.2486 17.278 21.6949 16.7362 22.3136 16.6158L27.9493 15.5321H28.0731C28.0731 15.5246 28.0731 15.5171 28.0731 15.5096C28.0618 15.4418 27.9943 15.3967 27.9268 15.408L22.2911 16.4916C21.6124 16.6233 21.1212 17.2178 21.1212 17.9102V21.7594C21.1212 22.3351 21.4024 22.8694 21.8748 23.193L24.3721 24.905C24.3946 24.9201 24.4171 24.9276 24.4434 24.9276C24.4884 24.9276 24.4471 24.8034 24.4471 24.8034Z" fill="#E6E7E8"/>
<path d="M40.6495 32.87C40.6495 30.3942 42.6519 28.3849 45.1192 28.3849H51.2874V22.3721L50.4137 15.366C50.3425 14.794 49.8588 14.3613 49.2813 14.3613H30.8591C24.4921 14.3613 22.9247 24.4755 22.9247 24.4755V33.4683H40.6495V32.87Z" fill="#F1F2F2"/>
<path d="M41.5307 31.7224C41.5307 29.8787 43.0231 28.3811 44.8604 28.3811H52.1686V22.6995L51.0099 14.9408C50.9612 14.6059 50.6762 14.3613 50.3387 14.3613H42.1607C36.2624 14.3613 35.6212 24.4755 35.6212 24.4755V33.4683H41.527V31.7224H41.5307Z" fill="#BCBEC0"/>
<path d="M52.1536 22.6129L51.0099 14.9408C50.9612 14.6059 50.6762 14.3613 50.3388 14.3613H42.1607C37.8785 14.3613 36.3674 19.6893 35.8612 22.6129H52.1536Z" fill="#D1D3D4"/>
<path d="M40.627 30.877H37.3948V32.8147H40.627V30.877Z" fill="#BCBEC0"/>
<path d="M39.6184 30.877H37.3948V32.8147H39.6184V30.877Z" fill="#BCBEC0"/>
<path d="M39.6184 31.6445H37.3948V30.877H40.6308L39.6184 31.6445Z" fill="#939598"/>
<path d="M47.324 28.3845V22.6991L46.3941 15.8284C46.3528 15.5425 46.1054 15.3242 45.8166 15.3242H42.2132C39.3972 15.3242 37.9235 18.2666 37.1811 20.7387C37.0236 21.258 36.9449 21.7923 36.9449 22.3266V33.4717H37.0086V29.8445H42.8956V29.7805H37.0086V22.3228C37.0086 21.7961 37.0873 21.2693 37.2411 20.7538C37.976 18.3043 39.4347 15.3844 42.2132 15.3844H45.8166C46.0754 15.3844 46.2966 15.5763 46.3303 15.8322L47.2603 22.6991V28.3808H47.324V28.3845Z" fill="black"/>
<path d="M46.0866 27.7988C43.2893 27.7988 41.0208 30.0753 41.0208 32.8822V33.4692H42.0819V32.8709C42.0819 30.3951 44.0843 28.3858 46.5516 28.3858H53.1585V27.7988H46.0866Z" fill="#F1F2F2"/>
<path d="M46.889 27.7988C44.0918 27.7988 41.8232 30.0753 41.8232 32.8822V33.4692H42.5206V32.8709C42.5206 30.3951 44.523 28.3858 46.9903 28.3858H53.1585V27.7988H46.889Z" fill="#D1D3D4"/>
<path d="M34.8563 29.3633H23.6859V31.6435H34.8563V29.3633Z" fill="black"/>
<path d="M35.7899 14.3647H34.0876V12.8145H35.5987C35.7037 12.8145 35.7937 12.901 35.7937 13.0064V14.3647H35.7899Z" fill="black"/>
<path d="M35.5012 12.8145H34.0913V14.3647H35.5012V12.8145Z" fill="#231F20"/>
<path d="M35.3362 14.2248H34.0913C34.0088 14.2248 33.9376 14.157 33.9376 14.0705V13.1035C33.9376 13.0207 34.0051 12.9492 34.0913 12.9492H35.3362V14.2248Z" fill="#009444"/>
<path d="M35.3362 14.2248H35.2725C35.19 14.2248 35.1187 14.157 35.1187 14.0705V13.1035C35.1187 13.0207 35.1862 12.9492 35.2725 12.9492H35.3362V14.2248Z" fill="#006838"/>
<path d="M39.1947 14.3647H37.4923V12.8145H38.9997C39.1047 12.8145 39.1909 12.901 39.1909 13.0064V14.3647H39.1947Z" fill="black"/>
<path d="M38.9059 12.8145H37.496V14.3647H38.9059V12.8145Z" fill="#231F20"/>
<path d="M38.741 14.2248H37.4961C37.4136 14.2248 37.3423 14.157 37.3423 14.0705V13.1035C37.3423 13.0207 37.4098 12.9492 37.4961 12.9492H38.741V14.2248Z" fill="#009444"/>
<path d="M38.7409 14.2248H38.6772C38.5947 14.2248 38.5235 14.157 38.5235 14.0705V13.1035C38.5235 13.0207 38.591 12.9492 38.6772 12.9492H38.7409V14.2248Z" fill="#006838"/>
<path d="M42.5994 14.3647H40.897V12.8145H42.4044C42.5094 12.8145 42.5956 12.901 42.5956 13.0064V14.3647H42.5994Z" fill="black"/>
<path d="M42.3106 12.8145H40.9008V14.3647H42.3106V12.8145Z" fill="#231F20"/>
<path d="M42.1457 14.2248H40.9008C40.8183 14.2248 40.747 14.157 40.747 14.0705V13.1035C40.747 13.0207 40.8145 12.9492 40.9008 12.9492H42.1457V14.2248Z" fill="#009444"/>
<path d="M42.1457 14.2248H42.0819C41.9994 14.2248 41.9282 14.157 41.9282 14.0705V13.1035C41.9282 13.0207 41.9957 12.9492 42.0819 12.9492H42.1457V14.2248Z" fill="#006838"/>
<path d="M46.0041 14.3647H44.3017V12.8145H45.8091C45.9141 12.8145 46.0041 12.901 46.0041 13.0064V14.3647Z" fill="black"/>
<path d="M45.7154 12.8145H44.3055V14.3647H45.7154V12.8145Z" fill="#231F20"/>
<path d="M45.5504 14.2248H44.3055C44.223 14.2248 44.1517 14.157 44.1517 14.0705V13.1035C44.1517 13.0207 44.2192 12.9492 44.3055 12.9492H45.5504V14.2248Z" fill="#009444"/>
<path d="M45.5504 14.2248H45.4866C45.4041 14.2248 45.3329 14.157 45.3329 14.0705V13.1035C45.3329 13.0207 45.4004 12.9492 45.4866 12.9492H45.5504V14.2248Z" fill="#006838"/>
<path d="M36.0712 24.4764C36.0712 24.4764 36.4574 18.3695 39.3971 15.6491C39.5096 15.5475 39.4309 15.3594 39.2809 15.3594H27.6756C23.9409 17.903 22.921 24.4764 22.921 24.4764V24.6231H35.6999C35.8387 24.6231 35.9699 24.5705 36.0712 24.4764Z" fill="black"/>
<path d="M35.8499 30.6321H22.921V27.7988H35.8499C36.0337 27.7988 36.1799 27.9493 36.1799 28.1299V30.301C36.1799 30.4854 36.0337 30.6321 35.8499 30.6321Z" fill="#231F20"/>
<path d="M35.8499 30.6321H35.6212V27.7988H35.8499C36.0337 27.7988 36.1799 27.9493 36.1799 28.1299V30.301C36.1799 30.4854 36.0337 30.6321 35.8499 30.6321Z" fill="black"/>
<path d="M36.1799 34.256H22.7897C22.2385 34.256 21.7923 33.8082 21.7923 33.2551V30.8809H36.1836V34.256H36.1799Z" fill="#D1D3D4"/>
<path d="M21.8336 33.5332C21.9536 33.9509 22.336 34.2519 22.7898 34.2519H36.1799V33.5332H21.8336Z" fill="#808285"/>
<path d="M36.1799 34.256H35.4637C34.9125 34.256 34.4663 33.8082 34.4663 33.2551V30.8809H36.1837V34.256H36.1799Z" fill="#939598"/>
<path d="M26.8994 16.3439C24.9871 18.3569 24.0084 21.416 23.5772 23.1506H35.3437C35.6062 21.3934 36.2812 18.2779 37.9348 16.2649C38.0735 16.0956 37.9535 15.8359 37.736 15.8359H28.0956C27.6456 15.8397 27.2107 16.0165 26.8994 16.3439Z" fill="#6D6E71"/>
<path d="M45.6216 16.329C45.5804 16.0468 45.3367 15.8398 45.0554 15.8398H42.6294C39.8546 15.8398 38.3847 18.7033 37.6273 21.2318C37.4735 21.7435 37.3948 22.2741 37.3948 22.8084V23.6926C37.3948 24.2081 37.811 24.622 38.321 24.622H39.5846C40.0421 24.622 40.4658 24.3774 40.6945 23.9786L40.8333 23.734C41.3132 22.8911 42.2057 22.3719 43.1731 22.3719H45.8766C46.2291 22.3719 46.4953 22.0596 46.4428 21.7097L45.6216 16.329Z" fill="#3C2415"/>
<path d="M37.736 15.8398H28.0956C27.6456 15.8398 27.2107 16.0167 26.8994 16.344C24.9871 18.3571 24.0084 21.4162 23.5772 23.1508H24.4659V22.8874C24.4659 22.3757 24.5446 21.8677 24.6984 21.3785C25.4558 18.9591 26.9257 16.2199 29.7005 16.2199H31.8715C32.2727 16.2199 32.5877 16.551 32.5502 16.9348L32.0815 21.8715C32.0478 22.2101 31.7553 22.466 31.4028 22.466H30.2479C29.5617 22.466 28.913 22.7181 28.4218 23.1508H35.3475C35.3775 22.9476 35.415 22.7256 35.4562 22.4885H34.1176C33.6639 22.4885 33.3114 22.116 33.3489 21.6833L33.7989 16.8934C33.8364 16.5134 34.1663 16.2199 34.5676 16.2199H36.1199C36.5736 16.2199 36.9261 16.5924 36.8886 17.0251L36.7836 18.1313C37.1024 17.4616 37.4848 16.8219 37.9385 16.2688C38.0773 16.0957 37.9573 15.8398 37.736 15.8398Z" fill="#3C2415"/>
<path d="M24.9346 30.1947H22.921V28.2832H24.3496C24.6683 28.2832 24.9571 28.4676 25.0921 28.7535L25.4145 29.4346C25.5833 29.7883 25.3245 30.1947 24.9346 30.1947Z" fill="#BCBEC0"/>
<path d="M23.0672 29.9209H22.921V28.6152H23.0672C23.236 28.6152 23.371 28.7507 23.371 28.92V29.6161C23.371 29.7854 23.2322 29.9209 23.0672 29.9209Z" fill="#FBB040"/>
<path d="M24.3496 28.5469C24.6908 28.5469 24.9683 28.8667 24.9683 29.2655C24.9683 29.6606 24.6908 29.9842 24.3496 29.9842C24.0084 29.9842 23.7309 29.6644 23.7309 29.2655C23.7309 28.8667 24.0084 28.5469 24.3496 28.5469Z" fill="#E6E7E8"/>
<path d="M24.3496 28.5469C24.4059 28.5469 24.4546 28.5582 24.5071 28.5732C24.2409 28.6522 24.0459 28.9307 24.0459 29.2655C24.0459 29.6004 24.2409 29.8751 24.5071 29.9579C24.4584 29.9729 24.4059 29.9842 24.3496 29.9842C24.0084 29.9842 23.7309 29.6644 23.7309 29.2655C23.7309 28.8667 24.0084 28.5469 24.3496 28.5469Z" fill="white"/>
<path d="M35.7862 30.1947H35.1825V28.2832H35.7862C35.9174 28.2832 36.0262 28.3923 36.0262 28.524V29.9576C36.0224 30.0893 35.9174 30.1947 35.7862 30.1947Z" fill="#939598"/>
<path d="M36.0224 28.6152H35.5424V29.9209H36.0224V28.6152Z" fill="#F7941D"/>
<path d="M33.6076 30.1947H35.6212V28.2832H34.1926C33.8738 28.2832 33.5851 28.4676 33.4501 28.7535L33.1277 29.4346C32.9627 29.7883 33.2176 30.1947 33.6076 30.1947Z" fill="#BCBEC0"/>
<path d="M35.4787 29.9209H35.625V28.6152H35.4787C35.31 28.6152 35.175 28.7507 35.175 28.92V29.6161C35.175 29.7854 35.31 29.9209 35.4787 29.9209Z" fill="#FBB040"/>
<path d="M34.1963 28.5469C34.5375 28.5469 34.815 28.8667 34.815 29.2655C34.815 29.6606 34.5375 29.9842 34.1963 29.9842C33.8551 29.9842 33.5776 29.6644 33.5776 29.2655C33.5776 28.8667 33.8551 28.5469 34.1963 28.5469Z" fill="#E6E7E8"/>
<path d="M34.1963 28.5469C34.2526 28.5469 34.3013 28.5582 34.3538 28.5732C34.0876 28.6522 33.8926 28.9307 33.8926 29.2655C33.8926 29.6004 34.0876 29.8751 34.3538 29.9579C34.305 29.9729 34.2526 29.9842 34.1963 29.9842C33.8551 29.9842 33.5776 29.6644 33.5776 29.2655C33.5776 28.8667 33.8551 28.5469 34.1963 28.5469Z" fill="white"/>
<path d="M33.7239 26.2002H24.8183C24.5596 26.2002 24.3459 25.9894 24.3459 25.7261C24.3459 25.4664 24.5559 25.252 24.8183 25.252H33.7239C33.9826 25.252 34.1963 25.4627 34.1963 25.7261C34.1963 25.9857 33.9863 26.2002 33.7239 26.2002Z" fill="black"/>
<path d="M32.4677 28.1855H26.0745V28.75H32.4677V28.1855Z" fill="#414042"/>
<path d="M32.4677 28.9336H26.0745V29.498H32.4677V28.9336Z" fill="#414042"/>
<path d="M32.4677 29.6797H26.0745V30.2441H32.4677V29.6797Z" fill="#414042"/>
<path d="M32.4715 28.1855H26.2845V28.75H32.4715V28.1855Z" fill="black"/>
<path d="M32.4715 28.9336H26.2845V29.498H32.4715V28.9336Z" fill="black"/>
<path d="M32.4715 29.6797H26.2845V30.2441H32.4715V29.6797Z" fill="black"/>
<path d="M37.631 21.2335C37.4773 21.7452 37.3986 22.2757 37.3986 22.81V23.6943C37.3986 24.0743 37.6235 24.3979 37.9498 24.5446L38.3172 20.3304C38.336 20.1009 38.2797 19.8902 38.171 19.7171C37.9573 20.2175 37.781 20.7293 37.631 21.2335ZM44.0918 19.2769C44.238 19.1188 44.3355 18.9156 44.3542 18.6936L44.4217 17.9261C44.4667 17.4219 44.0955 17.0155 43.5931 17.0155H41.287C40.7845 17.0155 40.3421 17.4219 40.3008 17.9261L40.2333 18.6936C40.2146 18.9156 40.2746 19.1188 40.3946 19.2769C39.8434 19.3145 39.3747 19.7698 39.3259 20.3267L38.9509 24.6237H39.5884C40.0458 24.6237 40.4696 24.3791 40.6983 23.9802L40.837 23.7357C41.317 22.8928 42.2094 22.3736 43.1768 22.3736H44.8005L44.9804 20.3304C45.0292 19.7698 44.6355 19.3145 44.0918 19.2769ZM34.6238 17.0155C34.1213 17.0155 33.6789 17.4219 33.6376 17.9261L33.5701 18.6936C33.5514 18.9156 33.6114 19.1188 33.7314 19.2769C33.1802 19.3145 32.7114 19.7698 32.6627 20.3267L32.4152 23.1524H35.3475C35.5762 21.6248 36.1162 19.0737 37.3348 17.1133C37.2148 17.0493 37.0798 17.0117 36.9299 17.0117H34.6238V17.0155Z" fill="#754C29"/>
<path d="M26.2282 21.7832C25.3246 21.7832 24.5559 22.3551 24.2559 23.1566H35.3475C35.4075 22.7577 35.4862 22.2912 35.595 21.7832H26.2282Z" fill="#A97C50"/>
<g opacity="0.5">
<path d="M37.736 15.8398H28.0956C27.6456 15.8398 27.2107 16.0167 26.8994 16.344C24.9871 18.3571 24.0084 21.4162 23.5772 23.1508H26.6895C27.8631 19.1886 32.674 18.8952 36.3862 19.0494C36.7724 18.0485 37.2748 17.0702 37.9348 16.265C38.0773 16.0957 37.9573 15.8398 37.736 15.8398Z" fill="white"/>
<path d="M45.0554 15.8398H42.6294C39.8546 15.8398 38.3847 18.7033 37.6273 21.2318C37.4736 21.7435 37.3948 22.2741 37.3948 22.8084V23.6926C37.3948 24.2081 37.811 24.622 38.321 24.622H38.7897C39.5921 22.4885 40.3983 20.1707 42.4794 19.2413C43.6268 18.7823 44.8192 18.786 46.0041 18.835L45.6216 16.329C45.5804 16.0468 45.3404 15.8398 45.0554 15.8398Z" fill="white"/>
</g>
<path d="M46.1128 24.8042H44.6392C44.4517 24.8042 44.3017 24.6537 44.3017 24.4656C44.3017 24.2775 44.4517 24.127 44.6392 24.127H46.1128C46.3003 24.127 46.4503 24.2775 46.4503 24.4656C46.4503 24.6537 46.3003 24.8042 46.1128 24.8042Z" fill="#939598"/>
<path d="M46.4916 24.8042H45.0179C44.8305 24.8042 44.6805 24.6537 44.6805 24.4656C44.6805 24.2775 44.8305 24.127 45.0179 24.127H46.4916C46.6791 24.127 46.829 24.2775 46.829 24.4656C46.8253 24.6537 46.6753 24.8042 46.4916 24.8042Z" fill="white"/>
<path d="M49.7276 15.8398H47.9052C47.519 15.8398 47.2228 16.186 47.2828 16.566L48.0927 21.8564C48.1414 22.1649 48.4039 22.3945 48.7151 22.3945H50.5375C50.9237 22.3945 51.2199 22.0483 51.1599 21.6683L50.35 16.3779C50.3013 16.0694 50.0388 15.8398 49.7276 15.8398Z" fill="black"/>
<path d="M39.5846 24.6874H38.321C37.7735 24.6874 37.3311 24.2434 37.3311 23.6941V22.8098C37.3311 22.2718 37.4098 21.7375 37.5673 21.2144C38.3097 18.7348 39.7909 15.7773 42.6294 15.7773H45.0554C45.3704 15.7773 45.6366 16.0031 45.6816 16.3192L46.5028 21.6998C46.5328 21.8842 46.4766 22.0723 46.3566 22.2116C46.2366 22.3545 46.0604 22.4336 45.8729 22.4336H43.1693C42.2282 22.4336 41.3507 22.9415 40.882 23.7618L40.7433 24.0064C40.5108 24.4278 40.0646 24.6874 39.5846 24.6874ZM42.6294 15.9053C39.8696 15.9053 38.4185 18.8138 37.6873 21.2521C37.5336 21.7638 37.4548 22.2868 37.4548 22.8136V23.6978C37.4548 24.1757 37.841 24.5632 38.3172 24.5632H39.5809C40.0159 24.5632 40.4171 24.33 40.6345 23.9499L40.7733 23.7054C41.2645 22.8475 42.1832 22.3132 43.1693 22.3132H45.8729C46.0229 22.3132 46.1616 22.2492 46.2591 22.1363C46.3566 22.0234 46.3978 21.8729 46.3753 21.7262L45.5541 16.3455C45.5166 16.0934 45.3029 15.9128 45.0517 15.9128H42.6294V15.9053Z" fill="black"/>
<path d="M40.0646 15.7436C39.9934 15.7436 39.9371 15.6872 39.9371 15.6157V15.3975C39.9371 15.326 39.9934 15.2695 40.0646 15.2695C40.1359 15.2695 40.1921 15.326 40.1921 15.3975V15.6195C40.1921 15.6872 40.1359 15.7436 40.0646 15.7436Z" fill="black"/>
<path d="M36.5511 25.0677C36.4799 25.0677 36.4237 25.0113 36.4237 24.9398V24.7178C36.4237 24.6463 36.4799 24.5898 36.5511 24.5898C36.6224 24.5898 36.6786 24.6463 36.6786 24.7178V24.9398C36.6749 25.0113 36.6186 25.0677 36.5511 25.0677Z" fill="black"/>
<path d="M33.3677 21.7815C32.7377 21.7815 32.224 21.266 32.224 20.6338V19.0949C32.224 18.4628 32.7377 17.9473 33.3677 17.9473C33.9976 17.9473 34.5113 18.4628 34.5113 19.0949V20.6338C34.5113 21.266 33.9976 21.7815 33.3677 21.7815Z" fill="black"/>
<path d="M33.3114 21.7815C32.7115 21.7815 32.224 21.2923 32.224 20.6903V19.0384C32.224 18.4364 32.7115 17.9473 33.3114 17.9473C33.9114 17.9473 34.3988 18.4364 34.3988 19.0384V20.6903C34.3988 21.2923 33.9114 21.7815 33.3114 21.7815Z" fill="#D1D3D4"/>
<path d="M36.5099 24.9277C36.4837 24.9277 36.4612 24.9202 36.4387 24.9051L33.9414 23.1931C33.4689 22.8695 33.1877 22.3315 33.1877 21.7595V17.9103C33.1877 17.218 33.6789 16.6234 34.3576 16.4918L39.9934 15.4081C40.0609 15.3968 40.1284 15.4382 40.1396 15.5097C40.1509 15.5812 40.1096 15.6451 40.0384 15.6564L34.4026 16.7401C33.8439 16.8492 33.4389 17.3384 33.4389 17.9103V21.7595C33.4389 22.2487 33.6789 22.7077 34.0839 22.9862L36.5812 24.6982C36.6374 24.7358 36.6524 24.8148 36.6149 24.875C36.5887 24.9089 36.5512 24.9277 36.5099 24.9277Z" fill="#939598"/>
<path d="M36.5099 24.8034L34.0126 23.0914C33.5739 22.7904 33.3114 22.2937 33.3114 21.7632V17.9102C33.3114 17.278 33.7576 16.7362 34.3763 16.6158L40.0121 15.5321H40.1359C40.1359 15.5246 40.1359 15.5171 40.1359 15.5096C40.1246 15.4418 40.0571 15.3967 39.9896 15.408L34.3538 16.4916C33.6751 16.6233 33.1839 17.2178 33.1839 17.9102V21.7594C33.1839 22.3351 33.4652 22.8694 33.9376 23.193L36.4349 24.905C36.4574 24.9201 36.4799 24.9276 36.5062 24.9276C36.5512 24.9276 36.5099 24.8034 36.5099 24.8034Z" fill="#E6E7E8"/>
<path d="M53.931 26.8652V33.4688H69.6909C70.0021 30.4511 72.147 28.1145 74.7492 28.1145C77.3515 28.1145 79.4964 30.4511 79.8076 33.4688H80.8387V29.4916C79.8188 28.4681 79.2451 27.8925 78.2252 26.869H53.931V26.8652Z" fill="#BCBEC0"/>
<path d="M69.8559 33.4692C70.1746 30.6923 72.2257 28.5476 74.7118 28.5476C77.1978 28.5476 79.2489 30.6923 79.5676 33.4692H80.2163C79.8938 30.2784 77.5503 27.7988 74.708 27.7988C71.8657 27.7988 69.5259 30.2784 69.1997 33.4692H69.8559Z" fill="#F1F2F2"/>
<path d="M69.8559 33.4692C70.1746 30.6923 72.2257 28.5476 74.7118 28.5476C77.1978 28.5476 79.2489 30.6923 79.5676 33.4692H80.2163C79.8938 30.2784 77.5503 27.7988 74.708 27.7988C71.8657 27.7988 69.5259 30.2784 69.1997 33.4692H69.8559Z" fill="#F1F2F2"/>
<path d="M63.7176 26.8656H53.9309L52.3523 17.0449H58.4306L63.7176 26.8656Z" fill="#D1D3D4"/>
<path d="M59.5293 32.0078V32.4669H58.2769V32.0078H58.0969V32.6663H59.7055V32.0078H59.5293Z" fill="#939598"/>
<path d="M58.0999 32.0566H60.406V31.5223H58.0999V32.0566Z" fill="black"/>
<path d="M58.81 32.0566H60.4036V31.5223H58.81V32.0566Z" fill="#231F20"/>
<path d="M58.9031 31.9597H59.248C59.2818 31.9597 59.308 31.9334 59.308 31.8995V31.6813C59.308 31.6474 59.2818 31.6211 59.248 31.6211H58.9031V31.9597Z" fill="#FBB040"/>
<path d="M58.9031 31.9597H58.9293C58.9631 31.9597 58.9893 31.9334 58.9893 31.8995V31.6813C58.9893 31.6474 58.9631 31.6211 58.9293 31.6211H58.9031V31.9597Z" fill="#F7941D"/>
<path d="M60.0242 31.9597H60.3692C60.4029 31.9597 60.4292 31.9334 60.4292 31.8995V31.6813C60.4292 31.6474 60.4029 31.6211 60.3692 31.6211H60.0242V31.9597Z" fill="#FBB040"/>
<path d="M60.0242 31.9597H60.0505C60.0842 31.9597 60.1105 31.9334 60.1105 31.8995V31.6813C60.1105 31.6474 60.0842 31.6211 60.0505 31.6211H60.0242V31.9597Z" fill="#F7941D"/>
<path d="M61.4566 32.9756H55.9408V28.291H61.4566V32.9756ZM56.0083 32.9116H61.3928V28.3587H56.0083V32.9116Z" fill="black"/>
<path d="M65.6375 32.0078V32.4669H64.3888V32.0078H64.2089V32.6663H65.8175V32.0078H65.6375Z" fill="#939598"/>
<path d="M64.2107 32.0566H66.5168V31.5223H64.2107V32.0566Z" fill="black"/>
<path d="M64.9208 32.0566H66.5144V31.5223H64.9208V32.0566Z" fill="#231F20"/>
<path d="M65.015 31.9597H65.36C65.3938 31.9597 65.42 31.9334 65.42 31.8995V31.6813C65.42 31.6474 65.3938 31.6211 65.36 31.6211H65.015V31.9597Z" fill="#FBB040"/>
<path d="M65.015 31.9597H65.0413C65.075 31.9597 65.1013 31.9334 65.1013 31.8995V31.6813C65.1013 31.6474 65.075 31.6211 65.0413 31.6211H65.015V31.9597Z" fill="#F7941D"/>
<path d="M66.1362 31.9597H66.4812C66.5149 31.9597 66.5412 31.9334 66.5412 31.8995V31.6813C66.5412 31.6474 66.5149 31.6211 66.4812 31.6211H66.1362V31.9597Z" fill="#FBB040"/>
<path d="M66.1362 31.9597H66.1624C66.1962 31.9597 66.2224 31.9334 66.2224 31.8995V31.6813C66.2224 31.6474 66.1962 31.6211 66.1624 31.6211H66.1362V31.9597Z" fill="#F7941D"/>
<path d="M67.5686 32.9756H62.0528V28.291H67.5686V32.9756ZM62.1165 32.9116H67.5011V28.3587H62.1165V32.9116Z" fill="black"/>
<path d="M56.432 27.0879H55.2321V27.6824H56.432V27.0879Z" fill="black"/>
<path d="M57.6319 27.0879H56.432V27.6824H57.6319V27.0879Z" fill="#FFDE17"/>
<path d="M58.8281 27.0879H57.6282V27.6824H58.8281V27.0879Z" fill="black"/>
<path d="M60.028 27.0879H58.8281V27.6824H60.028V27.0879Z" fill="#FFDE17"/>
<path d="M61.2241 27.0879H60.0242V27.6824H61.2241V27.0879Z" fill="black"/>
<path d="M62.424 27.0879H61.2241V27.6824H62.424V27.0879Z" fill="#FFDE17"/>
<path d="M63.6239 27.0879H62.424V27.6824H63.6239V27.0879Z" fill="black"/>
<path d="M64.8201 27.0879H63.6202V27.6824H64.8201V27.0879Z" fill="#FFDE17"/>
<path d="M66.02 27.0879H64.8201V27.6824H66.02V27.0879Z" fill="black"/>
<path d="M67.2161 27.0879H66.0162V27.6824H67.2161V27.0879Z" fill="#FFDE17"/>
<path d="M68.416 27.0879H67.2161V27.6824H68.416V27.0879Z" fill="black"/>
<path d="M69.6122 27.0879H68.4123V27.6824H69.6122V27.0879Z" fill="#FFDE17"/>
<path d="M70.8121 27.0879H69.6122V27.6824H70.8121V27.0879Z" fill="black"/>
<path d="M72.0082 27.0879H70.8083V27.6824H72.0082V27.0879Z" fill="#FFDE17"/>
<path d="M73.2081 27.0879H72.0082V27.6824H73.2081V27.0879Z" fill="black"/>
<path d="M74.408 27.0879H73.2081V27.6824H74.408V27.0879Z" fill="#FFDE17"/>
<path d="M75.6042 27.0879H74.4043V27.6824H75.6042V27.0879Z" fill="black"/>
<path d="M76.8041 27.0879H75.6042V27.6824H76.8041V27.0879Z" fill="#FFDE17"/>
</svg>
