<svg width="102" height="48" viewBox="0 0 102 48" fill="none" xmlns="http://www.w3.org/2000/svg">
<rect width="102" height="48" rx="6.62557" fill="#EBFBF4"/>
<path d="M51.0013 38.9997C67.4934 38.9997 80.8629 38.8896 80.8629 38.7538C80.8629 38.6179 67.4934 38.5078 51.0013 38.5078C34.5092 38.5078 21.1397 38.6179 21.1397 38.7538C21.1397 38.8896 34.5092 38.9997 51.0013 38.9997Z" fill="#58595B"/>
<path d="M60.2925 26.1997C59.8837 26.1997 59.5492 25.8669 59.5492 25.4602C59.5492 25.0535 59.8837 24.7207 60.2925 24.7207C60.7013 24.7207 61.0358 25.0535 61.0358 25.4602C61.0358 25.8669 60.7013 26.1997 60.2925 26.1997ZM60.2925 24.9325C60.0019 24.9325 59.7654 25.1678 59.7654 25.4569C59.7654 25.7459 60.0019 25.9812 60.2925 25.9812C60.583 25.9812 60.8196 25.7459 60.8196 25.4569C60.8196 25.1711 60.583 24.9325 60.2925 24.9325Z" fill="black"/>
<path d="M60.083 22.6699C59.86 22.6699 59.681 23.3019 59.681 23.5237V24.2094C59.681 24.4313 59.86 24.6095 60.083 24.6095C60.1235 24.6095 60.2148 24.6095 60.1776 24.6095L60.1911 22.6699C60.1742 22.6699 60.1168 22.6699 60.083 22.6699Z" fill="#FFC717"/>
<path d="M60.181 22.6699C59.958 22.6699 59.7789 23.3019 59.7789 23.5237V24.2094C59.7789 24.4313 59.958 24.6095 60.181 24.6095C60.404 24.6095 60.583 24.4313 60.583 24.2094V23.5237C60.583 23.3019 60.404 22.6699 60.181 22.6699Z" fill="black"/>
<path d="M60.2925 25.2139C60.2148 25.2139 60.154 25.1534 60.154 25.0761V21.1163C60.154 21.039 60.2148 20.9785 60.2925 20.9785C60.3702 20.9785 60.431 21.039 60.431 21.1163V25.0761C60.431 25.1534 60.3702 25.2139 60.2925 25.2139Z" fill="black"/>
<path d="M60.4074 22.668C60.1844 22.668 60.0053 23.2999 60.0053 23.5218V24.2075C60.0053 24.4293 60.1844 24.6075 60.4074 24.6075C60.4479 24.6075 60.5391 24.6075 60.5019 24.6075L60.5155 22.668C60.4952 22.668 60.4378 22.668 60.4074 22.668Z" fill="#FFC717"/>
<path d="M60.502 22.668C60.279 22.668 60.0999 23.2999 60.0999 23.5218V24.2075C60.0999 24.4293 60.279 24.6075 60.502 24.6075C60.7249 24.6075 60.904 24.4293 60.904 24.2075V23.5218C60.9074 23.2999 60.7249 22.668 60.502 22.668Z" fill="#BF9511"/>
<path d="M60.6844 24.1379C60.6844 24.0505 60.6135 23.9766 60.5222 23.9766C60.4344 23.9766 60.3601 24.0472 60.3601 24.1379C60.3601 24.2253 60.431 24.2993 60.5222 24.2993C60.6135 24.2993 60.6844 24.2287 60.6844 24.1379Z" fill="black"/>
<path d="M60.6844 23.0676C60.6844 22.9802 60.6135 22.9062 60.5222 22.9062C60.4344 22.9062 60.3601 22.9768 60.3601 23.0676C60.3601 23.155 60.431 23.2289 60.5222 23.2289C60.6135 23.2256 60.6844 23.155 60.6844 23.0676Z" fill="black"/>
<path d="M51.4202 27.879H47.8254C47.5855 27.879 47.3896 27.684 47.3896 27.4453C47.3896 27.2067 47.5855 27.0117 47.8254 27.0117H51.4202C51.6601 27.0117 51.8561 27.2067 51.8561 27.4453C51.8561 27.684 51.6601 27.879 51.4202 27.879Z" fill="#FFC717"/>
<path d="M51.4506 27.8404C51.6447 27.8404 51.802 27.6658 51.802 27.4505C51.802 27.2351 51.6447 27.0605 51.4506 27.0605C51.2566 27.0605 51.0993 27.2351 51.0993 27.4505C51.0993 27.6658 51.2566 27.8404 51.4506 27.8404Z" fill="black"/>
<path d="M51.8561 27.4453C51.8561 27.2067 51.6601 27.0117 51.4202 27.0117H47.8254C47.5855 27.0117 47.3896 27.2067 47.3896 27.4453C47.3896 27.4521 47.3896 27.4588 47.3896 27.4655H51.8527C51.8561 27.4588 51.8561 27.4521 51.8561 27.4453Z" fill="#D1D3D4"/>
<path d="M62.1169 25.4863H55.7922L50.1634 27.009V28.0544H67.7457V27.009L62.1169 25.4863Z" fill="#FBB040"/>
<path d="M62.3399 25.4863H56.0152L50.3864 27.009V28.0544H67.9687V27.009L62.3399 25.4863Z" fill="#7C4A0F"/>
<path d="M54.718 27.879H51.1231C50.8832 27.879 50.6873 27.684 50.6873 27.4453C50.6873 27.2067 50.8832 27.0117 51.1231 27.0117H54.718C54.9579 27.0117 55.1538 27.2067 55.1538 27.4453C55.1504 27.684 54.9579 27.879 54.718 27.879Z" fill="#FFC717"/>
<path d="M54.7448 27.8404C54.9388 27.8404 55.0962 27.6658 55.0962 27.4505C55.0962 27.2351 54.9388 27.0605 54.7448 27.0605C54.5507 27.0605 54.3934 27.2351 54.3934 27.4505C54.3934 27.6658 54.5507 27.8404 54.7448 27.8404Z" fill="black"/>
<path d="M55.1502 27.4453C55.1502 27.2067 54.9543 27.0117 54.7144 27.0117H51.1195C50.8797 27.0117 50.6837 27.2067 50.6837 27.4453C50.6837 27.4521 50.6837 27.4588 50.6837 27.4655H55.1468C55.1502 27.4588 55.1502 27.4521 55.1502 27.4453Z" fill="#D1D3D4"/>
<path d="M64.2995 25.4863H57.9714L52.3426 27.009V28.0544H69.9283V27.009L64.2995 25.4863Z" fill="#FBB040"/>
<path d="M64.5225 25.4863H58.1944L52.5656 27.009V28.0544H70.1513V27.009L64.5225 25.4863Z" fill="#B96F16"/>
<path d="M56.951 27.879H53.3528C53.1129 27.879 52.917 27.684 52.917 27.4453C52.917 27.2067 53.1129 27.0117 53.3528 27.0117H56.9476C57.1875 27.0117 57.3835 27.2067 57.3835 27.4453C57.3835 27.684 57.1909 27.879 56.951 27.879Z" fill="#FFC717"/>
<path d="M56.9781 27.8404C57.1721 27.8404 57.3294 27.6658 57.3294 27.4505C57.3294 27.2351 57.1721 27.0605 56.9781 27.0605C56.784 27.0605 56.6267 27.2351 56.6267 27.4505C56.6267 27.6658 56.784 27.8404 56.9781 27.8404Z" fill="black"/>
<path d="M57.3835 27.4453C57.3835 27.2067 57.1875 27.0117 56.9476 27.0117H53.3528C53.1129 27.0117 52.917 27.2067 52.917 27.4453C52.917 27.4521 52.917 27.4588 52.917 27.4655H57.3801C57.3835 27.4588 57.3835 27.4521 57.3835 27.4453Z" fill="#D1D3D4"/>
<path d="M72.8845 27.879H69.2897C69.0498 27.879 68.8539 27.684 68.8539 27.4453C68.8539 27.2067 69.0498 27.0117 69.2897 27.0117H72.8845C73.1244 27.0117 73.3204 27.2067 73.3204 27.4453C73.3204 27.684 73.1244 27.879 72.8845 27.879Z" fill="#FFC717"/>
<path d="M72.9116 27.8404C73.1056 27.8404 73.2629 27.6658 73.2629 27.4505C73.2629 27.2351 73.1056 27.0605 72.9116 27.0605C72.7175 27.0605 72.5602 27.2351 72.5602 27.4505C72.5602 27.6658 72.7175 27.8404 72.9116 27.8404Z" fill="black"/>
<path d="M73.3204 27.4453C73.3204 27.2067 73.1244 27.0117 72.8845 27.0117H69.2897C69.0498 27.0117 68.8539 27.2067 68.8539 27.4453C68.8539 27.4521 68.8539 27.4588 68.8539 27.4655H73.317C73.3204 27.4588 73.3204 27.4521 73.3204 27.4453Z" fill="#D1D3D4"/>
<mask id="mask0_1668_160" style="mask-type:luminance" maskUnits="userSpaceOnUse" x="18" y="31" width="6" height="9">
<path d="M23.6413 39.0024H21.7493C19.9417 39.0024 18.4788 37.3184 18.4788 35.2444C18.4788 33.1704 19.9417 31.4863 21.7493 31.4863H23.6413C21.8337 31.4863 20.3708 33.1704 20.3708 35.2444C20.3708 37.3184 21.8371 39.0024 23.6413 39.0024Z" fill="white"/>
</mask>
<g mask="url(#mask0_1668_160)">
<path d="M20.3708 35.2434C20.3708 35.0417 20.3843 34.8434 20.4113 34.6484H18.5193C18.4923 34.8434 18.4788 35.0417 18.4788 35.2434C18.4788 37.3208 19.9417 39.0015 21.7493 39.0015H23.6413C21.8371 39.0015 20.3708 37.3174 20.3708 35.2434Z" fill="#231F20"/>
<path d="M19.2592 32.8066C19.0159 33.1327 18.8234 33.5092 18.6882 33.9159C18.6105 34.1512 18.5565 34.3966 18.5193 34.6487H20.4113C20.4451 34.3932 20.5025 34.1478 20.5802 33.9159C20.7154 33.5058 20.908 33.1327 21.1512 32.8066H19.2592Z" fill="#231F20"/>
<path d="M19.891 32.1504C19.6579 32.3353 19.445 32.5571 19.2592 32.8059H21.1512C21.3371 32.5571 21.5499 32.3353 21.783 32.1504H19.891Z" fill="#231F20"/>
<path d="M23.6413 31.4863H21.7493C21.06 31.4863 20.4181 31.7317 19.891 32.1519H21.783C22.3135 31.7317 22.952 31.4863 23.6413 31.4863Z" fill="#231F20"/>
</g>
<path d="M23.5703 31.4844C25.4184 31.4844 26.9152 33.1684 26.9152 35.2424C26.9152 37.3198 25.4184 39.0005 23.5703 39.0005C21.7222 39.0005 20.2255 37.3164 20.2255 35.2424C20.2255 33.1651 21.7222 31.4844 23.5703 31.4844Z" fill="#414042"/>
<path d="M23.6413 31.4844C25.4489 31.4844 26.9118 33.1684 26.9118 35.2424C26.9118 37.3198 25.4489 39.0005 23.6413 39.0005C21.8338 39.0005 20.3708 37.3164 20.3708 35.2424C20.3708 33.1651 21.8372 31.4844 23.6413 31.4844Z" fill="black"/>
<path d="M47.7443 19.8906H33.5272V29.716H47.7443V19.8906Z" fill="black"/>
<mask id="mask1_1668_160" style="mask-type:luminance" maskUnits="userSpaceOnUse" x="53" y="31" width="7" height="9">
<path d="M59.0593 39.0044H57.1672C55.3597 39.0044 53.8967 37.3203 53.8967 35.2463C53.8967 33.1723 55.3597 31.4883 57.1672 31.4883H59.0593C57.2517 31.4883 55.7888 33.1723 55.7888 35.2463C55.7854 37.3203 57.2517 39.0044 59.0593 39.0044Z" fill="white"/>
</mask>
<g mask="url(#mask1_1668_160)">
<path d="M55.7854 35.2454C55.7854 35.0437 55.7989 34.8454 55.8259 34.6504H53.9339C53.9069 34.8454 53.8934 35.0437 53.8934 35.2454C53.8934 37.3227 55.3563 39.0034 57.1639 39.0034H59.0559C57.2517 39.0034 55.7854 37.3194 55.7854 35.2454Z" fill="#231F20"/>
<path d="M54.6772 32.8086C54.434 33.1347 54.2414 33.5111 54.1062 33.9179C54.0285 34.1532 53.9745 34.3985 53.9373 34.6506H55.8293C55.8631 34.3952 55.9205 34.1498 55.9983 33.9179C56.1334 33.5078 56.326 33.1347 56.5692 32.8086H54.6772Z" fill="black"/>
<path d="M55.309 32.1523C55.0759 32.3372 54.863 32.5591 54.6772 32.8078H56.5692C56.755 32.5591 56.9679 32.3372 57.201 32.1523H55.309Z" fill="black"/>
<path d="M59.0593 31.4883H57.1672C56.478 31.4883 55.8361 31.7337 55.309 32.1538H57.201C57.7281 31.7337 58.3666 31.4883 59.0593 31.4883Z" fill="black"/>
</g>
<path d="M58.9849 31.4863C60.833 31.4863 62.3298 33.1704 62.3298 35.2444C62.3298 37.3217 60.833 39.0024 58.9849 39.0024C57.1368 39.0024 55.6401 37.3184 55.6401 35.2444C55.6401 33.167 57.1368 31.4863 58.9849 31.4863Z" fill="#939598"/>
<path d="M59.0593 31.4863C60.8668 31.4863 62.3298 33.1704 62.3298 35.2444C62.3298 37.3217 60.8668 39.0024 59.0593 39.0024C57.2517 39.0024 55.7888 37.3184 55.7888 35.2444C55.7854 33.167 57.2517 31.4863 59.0593 31.4863Z" fill="#414042"/>
<mask id="mask2_1668_160" style="mask-type:luminance" maskUnits="userSpaceOnUse" x="55" y="31" width="7" height="9">
<path d="M61.0729 39.0044H59.1809C57.3734 39.0044 55.9104 37.3203 55.9104 35.2463C55.9104 33.1723 57.3734 31.4883 59.1809 31.4883H61.0729C59.2654 31.4883 57.8024 33.1723 57.8024 35.2463C57.8024 37.3203 59.2654 39.0044 61.0729 39.0044Z" fill="white"/>
</mask>
<g mask="url(#mask2_1668_160)">
<path d="M57.8024 35.2454C57.8024 35.0437 57.816 34.8454 57.843 34.6504H55.951C55.9239 34.8454 55.9104 35.0437 55.9104 35.2454C55.9104 37.3227 57.3734 39.0034 59.1809 39.0034H61.0729C59.2654 39.0034 57.8024 37.3194 57.8024 35.2454Z" fill="#231F20"/>
<path d="M56.6909 32.8086C56.4476 33.1347 56.255 33.5111 56.1199 33.9179C56.0422 34.1532 55.9881 34.3985 55.951 34.6506H57.843C57.8768 34.3952 57.9342 34.1498 58.0119 33.9179C58.1471 33.5078 58.3396 33.1347 58.5829 32.8086H56.6909Z" fill="black"/>
<path d="M57.3227 32.1523C57.0896 32.3372 56.8767 32.5591 56.6909 32.8078H58.5829C58.7687 32.5591 58.9816 32.3372 59.2147 32.1523H57.3227Z" fill="black"/>
<path d="M61.0729 31.4883H59.1809C58.4917 31.4883 57.8497 31.7337 57.3227 32.1538H59.2147C59.7418 31.7337 60.3803 31.4883 61.0729 31.4883Z" fill="black"/>
</g>
<path d="M60.9986 31.4863C62.8467 31.4863 64.3434 33.1704 64.3434 35.2444C64.3434 37.3217 62.8467 39.0024 60.9986 39.0024C59.1505 39.0024 57.6538 37.3184 57.6538 35.2444C57.6538 33.167 59.1505 31.4863 60.9986 31.4863Z" fill="#939598"/>
<path d="M61.0729 31.4863C62.8805 31.4863 64.3434 33.1704 64.3434 35.2444C64.3434 37.3217 62.8805 39.0024 61.0729 39.0024C59.2654 39.0024 57.8024 37.3184 57.8024 35.2444C57.8024 33.167 59.2654 31.4863 61.0729 31.4863Z" fill="black"/>
<path d="M71.3912 28.0605H13.8299V35.7783H71.3912V28.0605Z" fill="black"/>
<path d="M70.3101 29.498H66.2828C63.7218 29.498 61.6135 31.7132 61.3196 34.5637H65.9348C66.1307 32.8863 67.0362 31.4678 68.2964 30.725C69.5567 31.4678 70.4655 32.8863 70.6581 34.5637H75.2733C74.9827 31.7132 72.8711 29.498 70.3101 29.498Z" fill="#58595B"/>
<mask id="mask3_1668_160" style="mask-type:luminance" maskUnits="userSpaceOnUse" x="63" y="31" width="6" height="9">
<path d="M68.489 39.0044H66.597C64.7894 39.0044 63.3265 37.3203 63.3265 35.2463C63.3265 33.1723 64.7894 31.4883 66.597 31.4883H68.489C66.6814 31.4883 65.2185 33.1723 65.2185 35.2463C65.2151 37.3203 66.6814 39.0044 68.489 39.0044Z" fill="white"/>
</mask>
<g mask="url(#mask3_1668_160)">
<path d="M65.2151 35.2454C65.2151 35.0437 65.2286 34.8454 65.2557 34.6504H63.3637C63.3366 34.8454 63.3231 35.0437 63.3231 35.2454C63.3231 37.3227 64.786 39.0034 66.5936 39.0034H68.4856C66.6814 39.0034 65.2151 37.3194 65.2151 35.2454Z" fill="black"/>
<path d="M64.107 32.8086C63.8637 33.1347 63.6711 33.5111 63.536 33.9179C63.4583 34.1532 63.4042 34.3985 63.367 34.6506H65.2591C65.2928 34.3952 65.3503 34.1498 65.428 33.9179C65.5631 33.5078 65.7557 33.1347 65.999 32.8086H64.107Z" fill="black"/>
<path d="M64.7387 32.1523C64.5056 32.3372 64.2928 32.5591 64.1069 32.8078H65.999C66.1848 32.5591 66.3976 32.3372 66.6308 32.1523H64.7387Z" fill="black"/>
<path d="M68.489 31.4883H66.597C65.9077 31.4883 65.2658 31.7337 64.7387 32.1538H66.6308C67.1578 31.7337 67.7964 31.4883 68.489 31.4883Z" fill="black"/>
</g>
<path d="M68.4146 31.4863C70.2627 31.4863 71.7595 33.1704 71.7595 35.2444C71.7595 37.3217 70.2627 39.0024 68.4146 39.0024C66.5665 39.0024 65.0698 37.3184 65.0698 35.2444C65.0698 33.167 66.5665 31.4863 68.4146 31.4863Z" fill="#939598"/>
<path d="M68.489 31.4863C70.2965 31.4863 71.7595 33.1704 71.7595 35.2444C71.7595 37.3217 70.2965 39.0024 68.489 39.0024C66.6814 39.0024 65.2185 37.3184 65.2185 35.2444C65.2151 33.167 66.6814 31.4863 68.489 31.4863Z" fill="#414042"/>
<mask id="mask4_1668_160" style="mask-type:luminance" maskUnits="userSpaceOnUse" x="65" y="31" width="6" height="9">
<path d="M70.5026 39.0044H68.6106C66.8031 39.0044 65.3401 37.3203 65.3401 35.2463C65.3401 33.1723 66.8031 31.4883 68.6106 31.4883H70.5026C68.6951 31.4883 67.2321 33.1723 67.2321 35.2463C67.2288 37.3203 68.6951 39.0044 70.5026 39.0044Z" fill="white"/>
</mask>
<g mask="url(#mask4_1668_160)">
<path d="M67.2288 35.2454C67.2288 35.0437 67.2423 34.8454 67.2693 34.6504H65.3773C65.3503 34.8454 65.3367 35.0437 65.3367 35.2454C65.3367 37.3227 66.7997 39.0034 68.6072 39.0034H70.4993C68.6951 39.0034 67.2288 37.3194 67.2288 35.2454Z" fill="black"/>
<path d="M66.1206 32.8086C65.8773 33.1347 65.6848 33.5111 65.5496 33.9179C65.4719 34.1532 65.4178 34.3985 65.3807 34.6506H67.2727C67.3065 34.3952 67.3639 34.1498 67.4416 33.9179C67.5768 33.5078 67.7694 33.1347 68.0126 32.8086H66.1206Z" fill="black"/>
<path d="M66.7524 32.1523C66.5192 32.3372 66.3064 32.5591 66.1206 32.8078H68.0126C68.1984 32.5591 68.4113 32.3372 68.6444 32.1523H66.7524Z" fill="black"/>
<path d="M70.5026 31.4883H68.6106C67.9214 31.4883 67.2794 31.7337 66.7524 32.1538H68.6444C69.1715 31.7337 69.81 31.4883 70.5026 31.4883Z" fill="black"/>
</g>
<path d="M70.4283 31.4863C72.2764 31.4863 73.7731 33.1704 73.7731 35.2444C73.7731 37.3217 72.2764 39.0024 70.4283 39.0024C68.5802 39.0024 67.0835 37.3184 67.0835 35.2444C67.0835 33.167 68.5802 31.4863 70.4283 31.4863Z" fill="#939598"/>
<path d="M70.5026 31.4863C72.3102 31.4863 73.7731 33.1704 73.7731 35.2444C73.7731 37.3217 72.3102 39.0024 70.5026 39.0024C68.6951 39.0024 67.2322 37.3184 67.2322 35.2444C67.2288 33.167 68.6951 31.4863 70.5026 31.4863Z" fill="#414042"/>
<path d="M70.5026 32.709C71.7223 32.709 72.7088 33.8418 72.7088 35.2435C72.7088 36.6418 71.7223 37.778 70.5026 37.778C69.2829 37.778 68.2964 36.6452 68.2964 35.2435C68.2964 33.8451 69.2829 32.709 70.5026 32.709Z" fill="#231F20"/>
<path d="M70.5026 32.9297C71.6142 32.9297 72.5163 33.965 72.5163 35.2457C72.5163 36.523 71.6142 37.5617 70.5026 37.5617C69.3911 37.5617 68.489 36.5264 68.489 35.2457C68.4856 33.9684 69.3877 32.9297 70.5026 32.9297Z" fill="#D1D3D4"/>
<path d="M70.5026 33.209C71.4824 33.209 72.2764 34.1199 72.2764 35.246C72.2764 36.3721 71.4824 37.283 70.5026 37.283C69.5228 37.283 68.7289 36.3721 68.7289 35.246C68.7289 34.1199 69.5228 33.209 70.5026 33.209Z" fill="#939598"/>
<path d="M70.1209 33.2559C69.3235 33.4542 68.7289 34.271 68.7289 35.2458C68.7289 36.2206 69.3269 37.0341 70.1209 37.2358C70.9182 37.0374 71.5128 36.2206 71.5128 35.2458C71.5162 34.271 70.9182 33.4575 70.1209 33.2559Z" fill="#6D6E71"/>
<path d="M70.0871 36.9958C70.1479 37.1202 70.3776 37.1 70.6006 36.9521C70.8236 36.8042 70.952 36.5857 70.8912 36.4614C70.8304 36.337 70.6006 36.3572 70.3776 36.5051C70.1546 36.653 70.0263 36.8714 70.0871 36.9958ZM71.0094 35.2445C71.0094 35.5403 71.1108 35.779 71.2324 35.779C71.354 35.779 71.4554 35.5403 71.4554 35.2445C71.4554 34.9487 71.354 34.7101 71.2324 34.7101C71.1108 34.7101 71.0094 34.9487 71.0094 35.2445ZM70.0871 33.4932C70.0263 33.6176 70.1546 33.8361 70.3776 33.984C70.6006 34.1319 70.8304 34.1521 70.8912 34.0277C70.952 33.9033 70.8236 33.6848 70.6006 33.5369C70.3776 33.3924 70.1479 33.3722 70.0871 33.4932Z" fill="black"/>
<path d="M70.5026 35.0578C71.1547 35.0578 71.7629 35.1821 72.2697 35.3905C72.273 35.3435 72.2764 35.2931 72.2764 35.246C72.2764 34.1199 71.4824 33.209 70.5026 33.209C69.5228 33.209 68.7289 34.1199 68.7289 35.246C68.7289 35.2964 68.7322 35.3435 68.7356 35.3905C69.2424 35.1788 69.8506 35.0578 70.5026 35.0578Z" fill="#939598"/>
<path d="M69.7424 34.373C70.1614 34.373 70.5026 34.763 70.5026 35.247C70.5026 35.7277 70.1614 36.7328 69.7424 36.7328C69.3235 36.7328 68.9823 35.7277 68.9823 35.247C68.9823 34.7663 69.3235 34.373 69.7424 34.373Z" fill="#939598"/>
<mask id="mask5_1668_160" style="mask-type:luminance" maskUnits="userSpaceOnUse" x="68" y="34" width="3" height="3">
<path d="M70.5026 36.121H69.7424C69.3235 36.121 68.9823 35.7311 68.9823 35.247C68.9823 34.7663 69.3235 34.373 69.7424 34.373H70.5026C70.0837 34.373 69.7424 34.763 69.7424 35.247C69.7424 35.7277 70.0837 36.121 70.5026 36.121Z" fill="white"/>
</mask>
<g mask="url(#mask5_1668_160)">
<path d="M70.5026 36.1207H69.7425C69.3235 36.1207 68.9823 35.7308 68.9823 35.2468C68.9823 35.1392 68.9992 35.035 69.0296 34.9375H69.7898C69.7594 35.035 69.7425 35.1358 69.7425 35.2468C69.7425 35.7274 70.0837 36.1207 70.5026 36.1207Z" fill="#231F20"/>
<path d="M69.7897 34.9385H69.0296C69.06 34.8444 69.1073 34.757 69.1613 34.6797H69.9215C69.8675 34.757 69.8235 34.8444 69.7897 34.9385Z" fill="#939598"/>
<path d="M69.9249 34.6829H69.1647C69.3032 34.4947 69.5127 34.377 69.7425 34.377H70.5026C70.2695 34.3737 70.0634 34.4947 69.9249 34.6829Z" fill="#939598"/>
</g>
<path d="M70.5026 34.373C70.9216 34.373 71.2628 34.763 71.2628 35.247C71.2628 35.7277 70.9216 36.121 70.5026 36.121C70.0837 36.121 69.7424 35.7311 69.7424 35.247C69.7424 34.7663 70.0837 34.373 70.5026 34.373Z" fill="white"/>
<path d="M47.4031 29.498V34.5637H65.7861C66.0665 31.8678 67.9991 29.7804 70.3439 29.7804C72.6886 29.7804 74.6212 31.8678 74.9016 34.5637H81.7365L85.8415 32.1401V29.498H47.4031Z" fill="#BCBEC0"/>
<path d="M65.9348 34.5617C66.2219 32.081 68.07 30.165 70.3101 30.165C72.5501 30.165 74.3982 32.081 74.6854 34.5617H75.2699C74.9793 31.7113 72.8677 29.4961 70.3067 29.4961C67.7457 29.4961 65.6374 31.7113 65.3435 34.5617H65.9348Z" fill="#F1F2F2"/>
<path d="M65.9348 34.5617C66.2219 32.081 68.07 30.165 70.3101 30.165C72.5501 30.165 74.3982 32.081 74.6854 34.5617H75.2699C74.9793 31.7113 72.8677 29.4961 70.3067 29.4961C67.7457 29.4961 65.6374 31.7113 65.3435 34.5617H65.9348Z" fill="#F1F2F2"/>
<path d="M51.6264 29.4975H47.4031L46.001 19.8906H48.1261L51.6264 29.4975Z" fill="#D1D3D4"/>
<path d="M85.8416 29.498H51.6264V29.9855H85.8416V29.498Z" fill="#808285"/>
<path d="M79.2769 33.3477V33.7577H78.1518V33.3477H77.9896V33.9359H79.4391V33.3477H79.2769Z" fill="#939598"/>
<path d="M77.9908 33.3867H80.0687V32.9094H77.9908V33.3867Z" fill="black"/>
<path d="M78.634 33.3867H80.0699V32.9094H78.634V33.3867Z" fill="#231F20"/>
<path d="M78.716 33.3045H79.0269C79.0573 33.3045 79.0809 33.281 79.0809 33.2507V33.0557C79.0809 33.0255 79.0573 33.002 79.0269 33.002H78.716V33.3045Z" fill="#FBB040"/>
<path d="M78.716 33.3045H78.7397C78.7701 33.3045 78.7937 33.281 78.7937 33.2507V33.0557C78.7937 33.0255 78.7701 33.002 78.7397 33.002H78.716V33.3045Z" fill="#F7941D"/>
<path d="M79.7263 33.3045H80.0371C80.0675 33.3045 80.0911 33.281 80.0911 33.2507V33.0557C80.0911 33.0255 80.0675 33.002 80.0371 33.002H79.7263V33.3045Z" fill="#FBB040"/>
<path d="M79.7263 33.3045H79.7499C79.7803 33.3045 79.804 33.281 79.804 33.2507V33.0557C79.804 33.0255 79.7803 33.002 79.7499 33.002H79.7263V33.3045Z" fill="#F7941D"/>
<path d="M81.0169 34.2105H76.0469V30.6172H81.0169V34.2105ZM76.1044 34.15H80.9561V30.6743H76.1044V34.15Z" fill="black"/>
<path d="M52.5014 33.3477V33.7577H51.373V33.3477H51.2142V33.9359H52.6602V33.3477H52.5014Z" fill="#939598"/>
<path d="M51.2122 33.3867H53.29V32.9094H51.2122V33.3867Z" fill="black"/>
<path d="M51.8554 33.3867H53.2913V32.9094H51.8554V33.3867Z" fill="#231F20"/>
<path d="M51.9372 33.3045H52.248C52.2784 33.3045 52.3021 33.281 52.3021 33.2507V33.0557C52.3021 33.0255 52.2784 33.002 52.248 33.002H51.9372V33.3045Z" fill="#FBB040"/>
<path d="M51.9372 33.3045H51.9608C51.9912 33.3045 52.0149 33.281 52.0149 33.2507V33.0557C52.0149 33.0255 51.9912 33.002 51.9608 33.002H51.9372V33.3045Z" fill="#F7941D"/>
<path d="M52.9474 33.3045H53.2582C53.2886 33.3045 53.3123 33.281 53.3123 33.2507V33.0557C53.3123 33.0255 53.2886 33.002 53.2582 33.002H52.9474V33.3045Z" fill="#FBB040"/>
<path d="M52.9474 33.3045H52.971C53.0014 33.3045 53.0251 33.281 53.0251 33.2507V33.0557C53.0251 33.0255 53.0014 33.002 52.971 33.002H52.9474V33.3045Z" fill="#F7941D"/>
<path d="M54.238 34.2105H49.2681V30.6172H54.238V34.2105ZM49.3289 34.15H54.1806V30.6743H49.3289V34.15Z" fill="black"/>
<path d="M56.9679 33.3477V33.7577H55.8428V33.3477H55.6806V33.9359H57.1301V33.3477H56.9679Z" fill="#939598"/>
<path d="M55.681 33.3867H57.7588V32.9094H55.681V33.3867Z" fill="black"/>
<path d="M56.3241 33.3867H57.7601V32.9094H56.3241V33.3867Z" fill="#231F20"/>
<path d="M56.4037 33.3045H56.7145C56.7449 33.3045 56.7686 33.281 56.7686 33.2507V33.0557C56.7686 33.0255 56.7449 33.002 56.7145 33.002H56.4037V33.3045Z" fill="#FBB040"/>
<path d="M56.4037 33.3045H56.4273C56.4577 33.3045 56.4814 33.281 56.4814 33.2507V33.0557C56.4814 33.0255 56.4577 33.002 56.4273 33.002H56.4037V33.3045Z" fill="#F7941D"/>
<path d="M57.4173 33.3045H57.7281C57.7585 33.3045 57.7821 33.281 57.7821 33.2507V33.0557C57.7821 33.0255 57.7585 33.002 57.7281 33.002H57.4173V33.3045Z" fill="#FBB040"/>
<path d="M57.4173 33.3045H57.4409C57.4713 33.3045 57.495 33.281 57.495 33.2507V33.0557C57.495 33.0255 57.4713 33.002 57.4409 33.002H57.4173V33.3045Z" fill="#F7941D"/>
<path d="M63.2454 33.3477V33.7577H62.1169V33.3477H61.9581V33.9359H63.4076V33.3477H63.2454Z" fill="#939598"/>
<path d="M61.9576 33.3867H64.0355V32.9094H61.9576V33.3867Z" fill="black"/>
<path d="M62.6008 33.3867H64.0367V32.9094H62.6008V33.3867Z" fill="#231F20"/>
<path d="M62.6811 33.3045H62.992C63.0224 33.3045 63.046 33.281 63.046 33.2507V33.0557C63.046 33.0255 63.0224 33.002 62.992 33.002H62.6811V33.3045Z" fill="#FBB040"/>
<path d="M62.6811 33.3045H62.7048C62.7352 33.3045 62.7588 33.281 62.7588 33.2507V33.0557C62.7588 33.0255 62.7352 33.002 62.7048 33.002H62.6811V33.3045Z" fill="#F7941D"/>
<path d="M63.6947 33.3045H64.0056C64.036 33.3045 64.0596 33.281 64.0596 33.2507V33.0557C64.0596 33.0255 64.036 33.002 64.0056 33.002H63.6947V33.3045Z" fill="#FBB040"/>
<path d="M63.6947 33.3045H63.7184C63.7488 33.3045 63.7725 33.281 63.7725 33.2507V33.0557C63.7725 33.0255 63.7488 33.002 63.7184 33.002H63.6947V33.3045Z" fill="#F7941D"/>
<path d="M64.2928 34.2105H54.7752V30.6172H64.2928V34.2105ZM54.836 34.15H64.2353V30.6743H54.836V34.15Z" fill="black"/>
<path d="M91.254 28.0586H52.4338V28.9595H91.254V28.0586Z" fill="#E6E7E8"/>
<path d="M90.4432 29.4968H51.623L52.4338 28.959H91.2507L90.4432 29.4968Z" fill="#939598"/>
<path d="M53.9204 28.2695H52.8663V28.7368H53.9204V28.2695Z" fill="black"/>
<path d="M54.9746 28.2695H53.9204V28.7368H54.9746V28.2695Z" fill="#FFDE17"/>
<path d="M56.0287 28.2695H54.9745V28.7368H56.0287V28.2695Z" fill="black"/>
<path d="M57.0828 28.2695H56.0287V28.7368H57.0828V28.2695Z" fill="#FFDE17"/>
<path d="M58.1369 28.2695H57.0828V28.7368H58.1369V28.2695Z" fill="black"/>
<path d="M59.1944 28.2695H58.1403V28.7368H59.1944V28.2695Z" fill="#FFDE17"/>
<path d="M60.2486 28.2695H59.1944V28.7368H60.2486V28.2695Z" fill="black"/>
<path d="M61.3027 28.2695H60.2486V28.7368H61.3027V28.2695Z" fill="#FFDE17"/>
<path d="M62.3568 28.2695H61.3027V28.7368H62.3568V28.2695Z" fill="black"/>
<path d="M63.411 28.2695H62.3568V28.7368H63.411V28.2695Z" fill="#FFDE17"/>
<path d="M64.4651 28.2695H63.4109V28.7368H64.4651V28.2695Z" fill="black"/>
<path d="M65.5192 28.2695H64.4651V28.7368H65.5192V28.2695Z" fill="#FFDE17"/>
<path d="M66.5733 28.2695H65.5192V28.7368H66.5733V28.2695Z" fill="black"/>
<path d="M67.6275 28.2695H66.5733V28.7368H67.6275V28.2695Z" fill="#FFDE17"/>
<path d="M68.6816 28.2695H67.6274V28.7368H68.6816V28.2695Z" fill="black"/>
<path d="M69.7357 28.2695H68.6816V28.7368H69.7357V28.2695Z" fill="#FFDE17"/>
<path d="M70.7898 28.2695H69.7357V28.7368H70.7898V28.2695Z" fill="black"/>
<path d="M71.844 28.2695H70.7898V28.7368H71.844V28.2695Z" fill="#FFDE17"/>
<path d="M72.8981 28.2695H71.844V28.7368H72.8981V28.2695Z" fill="black"/>
<path d="M73.9522 28.2695H72.8981V28.7368H73.9522V28.2695Z" fill="#FFDE17"/>
<path d="M75.0063 28.2695H73.9522V28.7368H75.0063V28.2695Z" fill="black"/>
<path d="M76.0605 28.2695H75.0063V28.7368H76.0605V28.2695Z" fill="#FFDE17"/>
<path d="M77.1146 28.2695H76.0605V28.7368H77.1146V28.2695Z" fill="black"/>
<path d="M78.1687 28.2695H77.1146V28.7368H78.1687V28.2695Z" fill="#FFDE17"/>
<path d="M79.2228 28.2695H78.1687V28.7368H79.2228V28.2695Z" fill="black"/>
<path d="M80.277 28.2695H79.2228V28.7368H80.277V28.2695Z" fill="#FFDE17"/>
<path d="M81.3311 28.2695H80.277V28.7368H81.3311V28.2695Z" fill="black"/>
<path d="M82.3852 28.2695H81.3311V28.7368H82.3852V28.2695Z" fill="#FFDE17"/>
<path d="M83.4393 28.2695H82.3852V28.7368H83.4393V28.2695Z" fill="black"/>
<path d="M84.4935 28.2695H83.4393V28.7368H84.4935V28.2695Z" fill="#FFDE17"/>
<path d="M85.5476 28.2695H84.4935V28.7368H85.5476V28.2695Z" fill="black"/>
<path d="M86.6017 28.2695H85.5476V28.7368H86.6017V28.2695Z" fill="#FFDE17"/>
<path d="M87.6559 28.2695H86.6017V28.7368H87.6559V28.2695Z" fill="black"/>
<path d="M88.71 28.2695H87.6559V28.7368H88.71V28.2695Z" fill="#FFDE17"/>
<path d="M89.7641 28.2695H88.71V28.7368H89.7641V28.2695Z" fill="black"/>
<path d="M90.8182 28.2695H89.7641V28.7368H90.8182V28.2695Z" fill="#FFDE17"/>
<path d="M42.4737 10.7539H36.9092C35.8685 10.7539 35.0273 11.5909 35.0273 12.6262C35.0273 12.959 35.2976 13.2279 35.632 13.2279H43.7475C44.0819 13.2279 44.3522 12.959 44.3522 12.6262C44.3556 11.5909 43.5143 10.7539 42.4737 10.7539Z" fill="#ED1C24"/>
<path d="M42.717 10.7539H37.1524C36.1118 10.7539 35.2705 11.5909 35.2705 12.6262C35.2705 12.959 35.5408 13.2279 35.8753 13.2279H43.9941C44.3286 13.2279 44.5989 12.959 44.5989 12.6262C44.5989 11.5909 43.7576 10.7539 42.717 10.7539Z" fill="#770E12"/>
<path d="M39.5242 23.182H35.4428V12.56C35.4428 11.7398 36.0409 11.0742 36.7808 11.0742H39.5208V16.3214V23.182H39.5242Z" fill="black"/>
<path d="M37.72 12.3223H35.2705V23.183H37.72V12.3223Z" fill="#ED1C24"/>
<path d="M40.1661 23.183H37.7166V12.3223H38.1829C39.2809 12.3223 40.1695 16.1139 40.1695 17.2064V23.183H40.1661Z" fill="#770E12"/>
<path d="M45.0955 35.1543H42.2203V36.4955H45.0955V35.1543Z" fill="black"/>
<path d="M46.1023 36.1973H41.058V36.6779H46.1023V36.1973Z" fill="#FBB040"/>
<path d="M46.1023 36.1973H43.5818V36.6779H46.1023V36.1973Z" fill="#939598"/>
<path d="M45.4435 35.7749H42.146V26.457H43.9637C44.7813 26.457 45.4435 27.1159 45.4435 27.9293V35.7749Z" fill="#BC8430"/>
<path d="M35.1928 26.457V29.089H41.058L41.9703 35.7749H43.8522V28.0234C43.8522 27.1562 43.146 26.457 42.2777 26.457H35.1928Z" fill="#FBB040"/>
<path d="M43.1426 26.2189H33.3109V23.4121H42.2169C42.7271 23.4121 43.1426 23.8256 43.1426 24.3331V26.2189Z" fill="#770E12"/>
<path d="M59.3667 20.8023L59.3194 19.9821C59.3127 19.8376 59.3397 19.6964 59.4039 19.5687L60.2283 17.9216C60.2958 17.7871 60.4479 17.7333 60.5999 17.7804L61.2891 18.1468C61.4243 18.214 61.4783 18.3754 61.4108 18.5098L60.1776 20.9704C59.985 21.3603 59.3937 21.2393 59.3667 20.8023Z" fill="#ED1C24"/>
<path d="M59.4377 20.8022L59.3904 19.982C59.3836 19.8374 59.4106 19.6963 59.4748 19.5685L60.2992 17.9214C60.3668 17.787 60.5289 17.7332 60.6641 17.8004L61.3601 18.1467C61.4952 18.2139 61.5493 18.3752 61.4817 18.5097L60.2485 20.9702C60.0526 21.3602 59.4613 21.2392 59.4377 20.8022Z" fill="#590B0E"/>
<path d="M60.8702 21.1471H59.9174C59.8026 21.1471 59.6944 21.0765 59.6505 20.9723C59.4377 20.4748 59.4512 19.9101 59.6944 19.426L60.3803 18.0579C60.4648 17.8932 60.6675 17.8226 60.833 17.9067L62.0189 18.4949L60.8702 21.1471Z" fill="black"/>
<path d="M59.3397 19.685L46.7611 11.379C46.0381 11.0227 45.163 11.3117 44.8015 12.0311C44.6867 12.263 44.7813 12.542 45.0144 12.6597L59.191 19.6884H59.3397V19.685Z" fill="#ED1C24"/>
<path d="M60.0897 19.685L46.9098 11.379C46.1868 11.0227 45.3117 11.3117 44.9502 12.0311C44.8353 12.263 44.9299 12.542 45.163 12.6597L59.3397 19.6884H60.0897V19.685Z" fill="black"/>
<path d="M51.3379 14.6945L40.7273 12.5957L40.6291 13.0869L51.2397 15.1858L51.3379 14.6945Z" fill="#FBB040"/>
<path d="M60.0898 19.685L47.5112 11.379C46.7882 11.0227 45.9131 11.3117 45.5516 12.0311C45.4367 12.263 45.5313 12.542 45.7645 12.6597L59.9411 19.685H60.0898Z" fill="#ED1C24"/>
<path d="M60.9513 17.9654L47.6598 11.377C46.9368 11.0207 46.0618 11.3098 45.7002 12.0291C45.5854 12.2611 45.68 12.5401 45.9131 12.6577L60.0897 19.6864L60.9513 17.9654Z" fill="#770E12"/>
<path d="M60.2283 20.8023L60.181 19.9821C60.1742 19.8376 60.2012 19.6964 60.2654 19.5687L61.0898 17.9216C61.1574 17.7871 61.3094 17.7333 61.4615 17.7804L62.1507 18.1468C62.2858 18.214 62.3399 18.3754 62.2723 18.5098L61.0391 20.9704C60.8432 21.3603 60.2519 21.2393 60.2283 20.8023Z" fill="#ED1C24"/>
<path d="M60.2958 20.8022L60.2485 19.982C60.2418 19.8374 60.2688 19.6963 60.333 19.5685L61.1574 17.9214C61.2249 17.787 61.3871 17.7332 61.5223 17.8004L62.2183 18.1467C62.3534 18.2139 62.4075 18.3752 62.3399 18.5097L61.1067 20.9702C60.9141 21.3602 60.3229 21.2392 60.2958 20.8022Z" fill="#B2151B"/>
<path d="M60.7216 20.4004C60.8601 20.4004 60.9716 20.5281 60.9716 20.6895C60.9716 20.8475 60.8601 21.1802 60.7216 21.1802C60.583 21.1802 60.4715 20.8475 60.4715 20.6895C60.4715 20.5315 60.583 20.4004 60.7216 20.4004Z" fill="#939598"/>
<mask id="mask6_1668_160" style="mask-type:luminance" maskUnits="userSpaceOnUse" x="60" y="20" width="1" height="1">
<path d="M60.7959 20.9766H60.7216C60.5831 20.9766 60.4716 20.8489 60.4716 20.6875C60.4716 20.5295 60.5831 20.3984 60.7216 20.3984H60.7959C60.6574 20.3984 60.5459 20.5262 60.5459 20.6875C60.5459 20.8455 60.6574 20.9766 60.7959 20.9766Z" fill="white"/>
</mask>
<g mask="url(#mask6_1668_160)">
<path d="M60.7959 20.9759H60.7216C60.5831 20.9759 60.4716 20.8481 60.4716 20.6868C60.4716 20.6498 60.4783 20.6162 60.4885 20.5859H60.5628C60.5526 20.6162 60.5459 20.6532 60.5459 20.6868C60.5459 20.8448 60.6574 20.9759 60.7959 20.9759Z" fill="black"/>
<path d="M60.5628 20.586H60.4885C60.4986 20.5557 60.5121 20.5255 60.5324 20.502H60.6067C60.5864 20.5255 60.5729 20.5524 60.5628 20.586Z" fill="#414042"/>
<path d="M60.6067 20.4993H60.5324C60.5797 20.4388 60.6473 20.3984 60.7216 20.3984H60.7959C60.7216 20.3984 60.6506 20.4388 60.6067 20.4993Z" fill="#6D6E71"/>
</g>
<path d="M60.7959 20.4004C60.9344 20.4004 61.0459 20.5281 61.0459 20.6895C61.0459 20.8475 60.9344 20.9786 60.7959 20.9786C60.6574 20.9786 60.5459 20.8508 60.5459 20.6895C60.5459 20.5315 60.6574 20.4004 60.7959 20.4004Z" fill="#F14950"/>
<path d="M60.7959 20.4727C60.9006 20.4727 60.9851 20.5701 60.9851 20.6911C60.9851 20.8122 60.9006 20.9096 60.7959 20.9096C60.6911 20.9096 60.6067 20.8122 60.6067 20.6911C60.6067 20.5701 60.6911 20.4727 60.7959 20.4727Z" fill="black"/>
<path d="M40.7269 12.5918L40.629 13.0826L44.7036 13.8893L45.1056 13.459L40.7269 12.5918Z" fill="#808285"/>
<path d="M45.305 10.7539H39.7404C38.6998 10.7539 37.8585 11.5909 37.8585 12.6262C37.8585 12.959 38.1288 13.2279 38.4633 13.2279H46.5787C46.9132 13.2279 47.1835 12.959 47.1835 12.6262C47.1869 11.5909 46.3456 10.7539 45.305 10.7539Z" fill="#ED1C24"/>
<path d="M45.5482 10.7539H39.9837C38.9431 10.7539 38.1018 11.5909 38.1018 12.6262C38.1018 12.959 38.3721 13.2279 38.7066 13.2279H46.822C47.1565 13.2279 47.4268 12.959 47.4268 12.6262C47.4301 11.5909 46.5889 10.7539 45.5482 10.7539Z" fill="#B2151B"/>
<path d="M39.0039 11.6523C39.2404 11.6523 39.4329 11.8742 39.4329 12.1465C39.4329 12.4187 39.2404 12.9868 39.0039 12.9868C38.7673 12.9868 38.5748 12.4187 38.5748 12.1465C38.5748 11.8742 38.7673 11.6523 39.0039 11.6523Z" fill="#939598"/>
<mask id="mask7_1668_160" style="mask-type:luminance" maskUnits="userSpaceOnUse" x="38" y="11" width="2" height="2">
<path d="M39.1323 12.6367H39.0039C38.7674 12.6367 38.5748 12.4148 38.5748 12.1426C38.5748 11.8703 38.7674 11.6484 39.0039 11.6484H39.1323C38.8958 11.6484 38.7032 11.8703 38.7032 12.1426C38.7032 12.4182 38.8958 12.6367 39.1323 12.6367Z" fill="white"/>
</mask>
<g mask="url(#mask7_1668_160)">
<path d="M39.1323 12.6377H39.0039C38.7674 12.6377 38.5748 12.4158 38.5748 12.1435C38.5748 12.083 38.5849 12.0225 38.6018 11.9688H38.7302C38.7133 12.0225 38.7032 12.083 38.7032 12.1435C38.7032 12.4192 38.8958 12.6377 39.1323 12.6377Z" fill="black"/>
<path d="M38.7302 11.9707H38.6018C38.6187 11.9169 38.6457 11.8665 38.6761 11.8262H38.8045C38.7741 11.8665 38.7471 11.9169 38.7302 11.9707Z" fill="#414042"/>
<path d="M38.8045 11.8232H38.6761C38.7539 11.7157 38.8721 11.6484 39.0039 11.6484H39.1323C39.0005 11.6518 38.8856 11.719 38.8045 11.8232Z" fill="#6D6E71"/>
</g>
<path d="M39.1322 11.6523C39.3687 11.6523 39.5613 11.8742 39.5613 12.1465C39.5613 12.4187 39.3687 12.6406 39.1322 12.6406C38.8957 12.6406 38.7032 12.4187 38.7032 12.1465C38.7032 11.8742 38.8957 11.6523 39.1322 11.6523Z" fill="#F14950"/>
<path d="M39.1322 11.7754C39.3113 11.7754 39.4566 11.9401 39.4566 12.1485C39.4566 12.3536 39.3113 12.5216 39.1322 12.5216C38.9532 12.5216 38.8079 12.3569 38.8079 12.1485C38.8079 11.9435 38.9532 11.7754 39.1322 11.7754Z" fill="black"/>
<path d="M46.5618 11.6523C46.7983 11.6523 46.9909 11.8742 46.9909 12.1465C46.9909 12.4187 46.7983 12.9868 46.5618 12.9868C46.3253 12.9868 46.1327 12.4187 46.1327 12.1465C46.1327 11.8742 46.3253 11.6523 46.5618 11.6523Z" fill="#939598"/>
<mask id="mask8_1668_160" style="mask-type:luminance" maskUnits="userSpaceOnUse" x="46" y="11" width="1" height="2">
<path d="M46.6902 12.6367H46.5618C46.3253 12.6367 46.1327 12.4148 46.1327 12.1426C46.1327 11.8703 46.3253 11.6484 46.5618 11.6484H46.6902C46.4537 11.6484 46.2611 11.8703 46.2611 12.1426C46.2611 12.4182 46.4503 12.6367 46.6902 12.6367Z" fill="white"/>
</mask>
<g mask="url(#mask8_1668_160)">
<path d="M46.6902 12.6377H46.5618C46.3253 12.6377 46.1327 12.4158 46.1327 12.1435C46.1327 12.083 46.1429 12.0225 46.1598 11.9688H46.2882C46.2713 12.0225 46.2611 12.083 46.2611 12.1435C46.2611 12.4192 46.4503 12.6377 46.6902 12.6377Z" fill="black"/>
<path d="M46.2881 11.9707H46.1598C46.1767 11.9169 46.2037 11.8665 46.2341 11.8262H46.3625C46.3287 11.8665 46.305 11.9169 46.2881 11.9707Z" fill="#414042"/>
<path d="M46.3625 11.8232H46.2341C46.3118 11.7157 46.4301 11.6484 46.5618 11.6484H46.6902C46.5584 11.6518 46.4402 11.719 46.3625 11.8232Z" fill="#6D6E71"/>
</g>
<path d="M46.6902 11.6523C46.9267 11.6523 47.1193 11.8742 47.1193 12.1465C47.1193 12.4187 46.9267 12.6406 46.6902 12.6406C46.4537 12.6406 46.2611 12.4187 46.2611 12.1465C46.2611 11.8742 46.4503 11.6523 46.6902 11.6523Z" fill="#F14950"/>
<path d="M46.6902 11.7754C46.8692 11.7754 47.0145 11.9401 47.0145 12.1485C47.0145 12.3536 46.8692 12.5216 46.6902 12.5216C46.5111 12.5216 46.3658 12.3569 46.3658 12.1485C46.3658 11.9435 46.5111 11.7754 46.6902 11.7754Z" fill="black"/>
<path d="M42.2642 32.5627V28.008L41.2203 21.0802C41.1763 20.781 40.9196 20.5625 40.6155 20.5625H38.5647V33.0871H42.2642H43.1562V32.5627H42.2642Z" fill="#939598"/>
<mask id="mask9_1668_160" style="mask-type:luminance" maskUnits="userSpaceOnUse" x="29" y="31" width="7" height="9">
<path d="M35.0847 39.0044H33.1927C31.3851 39.0044 29.9222 37.3203 29.9222 35.2463C29.9222 33.1723 31.3851 31.4883 33.1927 31.4883H35.0847C33.2771 31.4883 31.8142 33.1723 31.8142 35.2463C31.8142 37.3203 33.2805 39.0044 35.0847 39.0044Z" fill="white"/>
</mask>
<g mask="url(#mask9_1668_160)">
<path d="M31.8142 35.2454C31.8142 35.0437 31.8277 34.8454 31.8547 34.6504H29.9627C29.9357 34.8454 29.9222 35.0437 29.9222 35.2454C29.9222 37.3227 31.3851 39.0034 33.1927 39.0034H35.0847C33.2805 39.0034 31.8142 37.3194 31.8142 35.2454Z" fill="black"/>
<path d="M30.7026 32.8086C30.4594 33.1347 30.2668 33.5111 30.1316 33.9179C30.0539 34.1532 29.9999 34.3985 29.9627 34.6506H31.8547C31.8885 34.3952 31.946 34.1498 32.0237 33.9179C32.1588 33.5078 32.3514 33.1347 32.5946 32.8086H30.7026Z" fill="black"/>
<path d="M31.3344 32.1523C31.1013 32.3372 30.8885 32.5591 30.7026 32.8078H32.5947C32.7805 32.5591 32.9933 32.3372 33.2265 32.1523H31.3344Z" fill="black"/>
<path d="M35.0847 31.4883H33.1927C32.5034 31.4883 31.8615 31.7337 31.3344 32.1538H33.2265C33.7569 31.7337 34.3955 31.4883 35.0847 31.4883Z" fill="black"/>
</g>
<path d="M35.0137 31.4863C36.8618 31.4863 38.3586 33.1704 38.3586 35.2444C38.3586 37.3217 36.8618 39.0024 35.0137 39.0024C33.1656 39.0024 31.6689 37.3184 31.6689 35.2444C31.6689 33.167 33.1656 31.4863 35.0137 31.4863Z" fill="#939598"/>
<path d="M35.0847 31.4863C36.8922 31.4863 38.3552 33.1704 38.3552 35.2444C38.3552 37.3217 36.8922 39.0024 35.0847 39.0024C33.2771 39.0024 31.8142 37.3184 31.8142 35.2444C31.8142 33.167 33.2805 31.4863 35.0847 31.4863Z" fill="#414042"/>
<path d="M35.0846 32.709C36.3043 32.709 37.2909 33.8418 37.2909 35.2435C37.2909 36.6418 36.3043 37.778 35.0846 37.778C33.865 37.778 32.8784 36.6452 32.8784 35.2435C32.8818 33.8451 33.8684 32.709 35.0846 32.709Z" fill="#231F20"/>
<path d="M35.0847 32.9297C36.1963 32.9297 37.0984 33.965 37.0984 35.2457C37.0984 36.523 36.1963 37.5617 35.0847 37.5617C33.9732 37.5617 33.0711 36.5264 33.0711 35.2457C33.0711 33.9684 33.9732 32.9297 35.0847 32.9297Z" fill="#D1D3D4"/>
<path d="M35.0847 33.209C36.0645 33.209 36.8585 34.1199 36.8585 35.246C36.8585 36.3721 36.0645 37.283 35.0847 37.283C34.1049 37.283 33.3109 36.3721 33.3109 35.246C33.3143 34.1199 34.1083 33.209 35.0847 33.209Z" fill="#939598"/>
<path d="M35.0847 37.283C36.0625 37.283 36.8551 36.371 36.8551 35.246C36.8551 34.121 36.0625 33.209 35.0847 33.209C34.107 33.209 33.3143 34.121 33.3143 35.246C33.3143 36.371 34.107 37.283 35.0847 37.283Z" fill="#E6E7E8"/>
<path d="M35.0847 35.4324C35.7368 35.4324 36.3449 35.308 36.8517 35.0996C36.8551 35.1467 36.8585 35.1971 36.8585 35.2441C36.8585 36.3702 36.0645 37.2812 35.0847 37.2812C34.1049 37.2812 33.3109 36.3702 33.3109 35.2441C33.3109 35.1937 33.3143 35.1467 33.3177 35.0996C33.8279 35.3114 34.4326 35.4324 35.0847 35.4324Z" fill="#BCBEC0"/>
<path d="M33.686 35.6404C33.5846 35.711 33.6015 35.9766 33.7231 36.232C33.8447 36.4875 34.0306 36.6354 34.1319 36.5648C34.2333 36.4942 34.2164 36.2287 34.0948 35.9732C33.9731 35.7211 33.7907 35.5698 33.686 35.6404Z" fill="black"/>
<path d="M36.6997 34.8256C36.7639 34.7449 36.7098 34.4861 36.5814 34.2474C36.453 34.0087 36.2976 33.881 36.2334 33.9617C36.1692 34.0424 36.2233 34.3012 36.3517 34.5398C36.4801 34.7785 36.6355 34.9062 36.6997 34.8256Z" fill="black"/>
<path d="M33.7231 34.2637C33.6015 34.5191 33.5846 34.7847 33.686 34.8553C33.7873 34.9259 33.9698 34.778 34.0948 34.5225C34.2164 34.267 34.2333 34.0015 34.1319 33.9309C34.0306 33.8569 33.8481 34.0082 33.7231 34.2637Z" fill="black"/>
<path d="M35.1489 36.7031C34.9023 36.7031 34.7029 36.8174 34.7029 36.9586C34.7029 37.0998 34.9023 37.2141 35.1489 37.2141C35.3955 37.2141 35.5949 37.0998 35.5949 36.9586C35.5949 36.8174 35.3955 36.7031 35.1489 36.7031Z" fill="black"/>
<path d="M36.3111 35.9599C36.1895 36.2019 36.1456 36.4641 36.2132 36.5414C36.2807 36.6221 36.4294 36.4876 36.551 36.2456C36.6727 36.0036 36.7166 35.7414 36.649 35.6641C36.5814 35.5834 36.4294 35.7179 36.3111 35.9599Z" fill="black"/>
<path d="M35.1489 33.2773C34.9023 33.2773 34.7029 33.3916 34.7029 33.5328C34.7029 33.674 34.9023 33.7883 35.1489 33.7883C35.3955 33.7883 35.5949 33.674 35.5949 33.5328C35.5949 33.3916 35.3955 33.2773 35.1489 33.2773Z" fill="black"/>
<path d="M35.1928 34.373C35.6118 34.373 35.953 34.763 35.953 35.247C35.953 35.7277 35.6118 36.7328 35.1928 36.7328C34.7739 36.7328 34.4326 35.7277 34.4326 35.247C34.4326 34.7663 34.7739 34.373 35.1928 34.373Z" fill="#939598"/>
<mask id="mask10_1668_160" style="mask-type:luminance" maskUnits="userSpaceOnUse" x="34" y="34" width="2" height="3">
<path d="M35.4192 36.121H35.1928C34.7739 36.121 34.4326 35.7311 34.4326 35.247C34.4326 34.7663 34.7739 34.373 35.1928 34.373H35.4192C35.0003 34.373 34.659 34.763 34.659 35.247C34.659 35.7277 35.0003 36.121 35.4192 36.121Z" fill="white"/>
</mask>
<g mask="url(#mask10_1668_160)">
<path d="M35.4192 36.1207H35.1928C34.7739 36.1207 34.4326 35.7308 34.4326 35.2468C34.4326 35.1392 34.4495 35.035 34.4799 34.9375H34.7063C34.6759 35.035 34.659 35.1358 34.659 35.2468C34.659 35.7274 35.0002 36.1207 35.4192 36.1207Z" fill="#231F20"/>
<path d="M34.7097 34.9385H34.4833C34.5137 34.8444 34.561 34.757 34.6151 34.6797H34.8414C34.784 34.757 34.7401 34.8444 34.7097 34.9385Z" fill="#BCBEC0"/>
<path d="M34.8414 34.6829H34.6151C34.7536 34.4947 34.9631 34.377 35.1928 34.377H35.4192C35.1861 34.3737 34.98 34.4947 34.8414 34.6829Z" fill="#F1F2F2"/>
</g>
<path d="M35.4192 34.373C35.8381 34.373 36.1794 34.763 36.1794 35.247C36.1794 35.7277 35.8381 36.121 35.4192 36.121C35.0003 36.121 34.659 35.7311 34.659 35.247C34.659 34.7663 35.0003 34.373 35.4192 34.373Z" fill="white"/>
<path d="M11.779 24.1245C11.2114 24.1245 10.7486 23.664 10.7486 23.0993V21.7244C10.7486 21.1597 11.2114 20.6992 11.779 20.6992C12.3466 20.6992 12.8095 21.1597 12.8095 21.7244V23.0993C12.8095 23.664 12.3466 24.1245 11.779 24.1245Z" fill="black"/>
<path d="M11.7284 24.1245C11.1878 24.1245 10.7486 23.6875 10.7486 23.1497V21.674C10.7486 21.1362 11.1878 20.6992 11.7284 20.6992C12.2689 20.6992 12.7082 21.1362 12.7082 21.674V23.1497C12.7082 23.6875 12.2689 24.1245 11.7284 24.1245Z" fill="#D1D3D4"/>
<path d="M14.6105 26.9377C14.5869 26.9377 14.5666 26.9309 14.5464 26.9175L12.2962 25.388C11.8705 25.099 11.6171 24.6183 11.6171 24.1074V20.6686C11.6171 20.0501 12.0597 19.519 12.6712 19.4014L17.7493 18.4333C17.8101 18.4232 17.8709 18.4602 17.881 18.524C17.8912 18.5846 17.854 18.6451 17.7898 18.6551L12.7118 19.6232C12.2084 19.7207 11.8435 20.1577 11.8435 20.6686V24.1074C11.8435 24.5443 12.0597 24.9544 12.4246 25.2032L14.6747 26.7326C14.7254 26.7662 14.7389 26.8368 14.7051 26.8906C14.6815 26.9209 14.6477 26.9377 14.6105 26.9377Z" fill="#939598"/>
<path d="M14.6103 26.8233L12.3602 25.2938C11.9649 25.0283 11.7284 24.5846 11.7284 24.1072V20.6685C11.7284 20.1038 12.1304 19.6198 12.6879 19.5122L17.7659 18.5441H17.8774C17.8774 18.5374 17.8774 18.5307 17.8774 18.5239C17.8673 18.4634 17.8065 18.4231 17.7457 18.4332L12.6676 19.4013C12.0561 19.5189 11.6135 20.05 11.6135 20.6685V24.1072C11.6135 24.6215 11.8669 25.0989 12.2926 25.3879L14.5427 26.9174C14.563 26.9308 14.5833 26.9376 14.6069 26.9376C14.6475 26.9376 14.6103 26.8233 14.6103 26.8233Z" fill="#E6E7E8"/>
<path d="M29.2093 34.0289C29.2093 31.8171 31.0135 30.0221 33.2366 30.0221H38.7944V24.6506L38.0072 18.3916C37.943 17.8807 37.5072 17.4941 36.9869 17.4941H20.3878C14.6509 17.4941 13.2386 26.5296 13.2386 26.5296V34.5634H29.2093V34.0289Z" fill="#F1F2F2"/>
<path d="M30.0033 33.0076C30.0033 31.3605 31.348 30.0227 33.0035 30.0227H39.5884V24.9436L38.5444 18.0157C38.5005 17.7165 38.2403 17.498 37.9396 17.498H30.5709C25.2563 17.498 24.6786 26.5335 24.6786 26.5335V34.5673H29.9999V33.0076H30.0033Z" fill="#BCBEC0"/>
<path d="M39.5749 24.8663L38.5444 18.0157C38.5005 17.7165 38.2437 17.498 37.9396 17.498H30.5709C26.7125 17.498 25.3509 22.2578 24.8948 24.8696H39.5749V24.8663Z" fill="#D1D3D4"/>
<path d="M29.1924 32.25H26.28V33.9811H29.1924V32.25Z" fill="#BCBEC0"/>
<path d="M28.2835 32.25H26.28V33.9811H28.2835V32.25Z" fill="#BCBEC0"/>
<path d="M28.2835 32.9357H26.28V32.25H29.1924L28.2835 32.9357Z" fill="#939598"/>
<path d="M35.2232 30.021V24.9419L34.3853 18.8039C34.3481 18.5485 34.1252 18.3535 33.865 18.3535H30.6182C28.0808 18.3535 26.753 20.9821 26.0841 23.1906C25.9422 23.6545 25.8712 24.1318 25.8712 24.6091V34.5656H25.9287V31.3252H31.2331V31.2681H25.9287V24.6091C25.9287 24.1385 25.9996 23.6679 26.1381 23.2074C26.8003 21.0191 28.1146 18.4107 30.6182 18.4107H33.865C34.0981 18.4107 34.2975 18.5821 34.3279 18.8107L35.1658 24.9452V30.021H35.2232Z" fill="black"/>
<path d="M34.1083 29.498C31.5879 29.498 29.5438 31.5317 29.5438 34.0393V34.5637H30.4999V34.0292C30.4999 31.8174 32.3041 30.0224 34.5272 30.0224H40.4804V29.498H34.1083Z" fill="#F1F2F2"/>
<path d="M34.8313 29.498C32.3109 29.498 30.2668 31.5317 30.2668 34.0393V34.5637H30.8952V34.0292C30.8952 31.8174 32.6994 30.0224 34.9225 30.0224H40.4804V29.498H34.8313Z" fill="#D1D3D4"/>
<path d="M23.9893 30.9004H13.9245V32.9374H23.9893V30.9004Z" fill="black"/>
<path d="M25.084 26.5295C25.084 26.5295 25.432 21.0739 28.0808 18.6436C28.1822 18.5528 28.1112 18.3848 27.9761 18.3848H17.5193C14.1542 20.6571 13.2352 26.5295 13.2352 26.5295V26.6606H24.7495C24.8745 26.6639 24.9962 26.6135 25.084 26.5295Z" fill="black"/>
<path d="M24.8847 32.0311H13.2352V29.5H24.8847C25.0502 29.5 25.182 29.6345 25.182 29.7958V31.7353C25.1854 31.8967 25.0502 32.0311 24.8847 32.0311Z" fill="#231F20"/>
<path d="M24.8847 32.0311H24.6786V29.5H24.8847C25.0502 29.5 25.182 29.6345 25.182 29.7958V31.7353C25.1854 31.8967 25.0502 32.0311 24.8847 32.0311Z" fill="black"/>
<path d="M25.1853 35.2652H13.1169C12.6203 35.2652 12.2182 34.8652 12.2182 34.371V32.25H25.1853V35.2652Z" fill="#D1D3D4"/>
<path d="M12.2554 34.623C12.3635 34.9962 12.7081 35.2651 13.1169 35.2651H25.182V34.623H12.2554Z" fill="#808285"/>
<path d="M25.1854 35.2652H24.54C24.0434 35.2652 23.6413 34.8652 23.6413 34.371V32.25H25.1887V35.2652H25.1854Z" fill="#939598"/>
<path d="M16.82 19.2702C15.0969 21.0686 14.215 23.8014 13.8265 25.351H24.432C24.6685 23.7812 25.2766 20.998 26.7666 19.1996C26.8916 19.0483 26.7835 18.8164 26.5875 18.8164H17.8977C17.4923 18.8198 17.1004 18.9778 16.82 19.2702Z" fill="#6D6E71"/>
<path d="M33.6893 19.2534C33.6521 19.0013 33.4325 18.8164 33.1791 18.8164H30.9932C28.493 18.8164 27.1686 21.3744 26.4861 23.6333C26.3476 24.0905 26.2766 24.5644 26.2766 25.0417V25.8317C26.2766 26.2922 26.6517 26.6619 27.1112 26.6619H28.2497C28.6619 26.6619 29.0437 26.4434 29.2498 26.0871L29.3748 25.8686C29.8073 25.1157 30.6114 24.6518 31.4831 24.6518H33.9191C34.2366 24.6518 34.4765 24.3728 34.4292 24.0602L33.6893 19.2534Z" fill="#3C2415"/>
<path d="M26.5875 18.8184H17.8977C17.4923 18.8184 17.1004 18.9763 16.82 19.2688C15.0969 21.0671 14.215 23.8 13.8265 25.3496H14.6272V25.1143C14.6272 24.6571 14.6982 24.2033 14.8367 23.7664C15.5226 21.605 16.847 19.1579 19.3438 19.1579H21.3C21.6615 19.1579 21.9453 19.4537 21.9115 19.7965L21.4892 24.2067C21.4588 24.5092 21.1953 24.7378 20.8777 24.7378H19.8371C19.2188 24.7378 18.6343 24.963 18.1917 25.3496H24.432C24.459 25.1681 24.4928 24.9697 24.5299 24.758H23.3238C22.915 24.758 22.5974 24.4252 22.6312 24.0386L23.0366 19.7596C23.0704 19.4201 23.3677 19.1579 23.7292 19.1579H25.128C25.5368 19.1579 25.8544 19.4906 25.8206 19.8772L25.726 20.8655C26.0132 20.2671 26.3578 19.6957 26.7666 19.2016C26.8916 19.0469 26.7835 18.8184 26.5875 18.8184Z" fill="#3C2415"/>
<path d="M15.0529 31.6412H13.2352V29.9336H14.5225C14.8097 29.9336 15.0698 30.0983 15.1914 30.3538L15.482 30.9622C15.634 31.2748 15.4043 31.6412 15.0529 31.6412Z" fill="#BCBEC0"/>
<path d="M13.367 31.3969H13.2352V30.2305H13.367C13.519 30.2305 13.6407 30.3515 13.6407 30.5027V31.1246C13.6407 31.2725 13.519 31.3969 13.367 31.3969Z" fill="#FBB040"/>
<path d="M14.5224 30.1641C14.8299 30.1641 15.0799 30.4498 15.0799 30.8061C15.0799 31.159 14.8299 31.4481 14.5224 31.4481C14.215 31.4481 13.965 31.1624 13.965 30.8061C13.965 30.4531 14.215 30.1641 14.5224 30.1641Z" fill="#E6E7E8"/>
<path d="M14.5225 30.1641C14.5731 30.1641 14.6171 30.1741 14.6644 30.1876C14.4245 30.2582 14.2488 30.5069 14.2488 30.8061C14.2488 31.1053 14.4245 31.3506 14.6644 31.4246C14.6204 31.438 14.5731 31.4481 14.5225 31.4481C14.215 31.4481 13.965 31.1624 13.965 30.8061C13.965 30.4531 14.215 30.1641 14.5225 30.1641Z" fill="white"/>
<path d="M24.8273 31.6412H24.2833V29.9336H24.8273C24.9455 29.9336 25.0435 30.0311 25.0435 30.1487V31.4261C25.0435 31.5437 24.9455 31.6412 24.8273 31.6412Z" fill="#939598"/>
<path d="M25.0435 30.2305H24.611V31.3969H25.0435V30.2305Z" fill="#F7941D"/>
<path d="M22.8643 31.6412H24.6786V29.9336H23.3913C23.1042 29.9336 22.844 30.0983 22.7224 30.3538L22.4318 30.9622C22.2831 31.2748 22.5129 31.6412 22.8643 31.6412Z" fill="#BCBEC0"/>
<path d="M24.5502 31.3969H24.682V30.2305H24.5502C24.3981 30.2305 24.2765 30.3515 24.2765 30.5027V31.1246C24.2765 31.2725 24.3981 31.3969 24.5502 31.3969Z" fill="#FBB040"/>
<path d="M23.3947 30.1641C23.7021 30.1641 23.9522 30.4498 23.9522 30.8061C23.9522 31.159 23.7021 31.4481 23.3947 31.4481C23.0872 31.4481 22.8372 31.1624 22.8372 30.8061C22.8372 30.4531 23.0872 30.1641 23.3947 30.1641Z" fill="#E6E7E8"/>
<path d="M23.3947 30.1641C23.4454 30.1641 23.4893 30.1741 23.5366 30.1876C23.2967 30.2582 23.121 30.5069 23.121 30.8061C23.121 31.1053 23.2967 31.3506 23.5366 31.4246C23.4927 31.438 23.4454 31.4481 23.3947 31.4481C23.0872 31.4481 22.8372 31.1624 22.8372 30.8061C22.8372 30.4531 23.0872 30.1641 23.3947 30.1641Z" fill="white"/>
<path d="M22.969 28.0697H14.9482C14.715 28.0697 14.5225 27.8815 14.5225 27.6462C14.5225 27.4143 14.7117 27.2227 14.9482 27.2227H22.9724C23.2055 27.2227 23.3981 27.4109 23.3981 27.6462C23.3947 27.8815 23.2055 28.0697 22.969 28.0697Z" fill="black"/>
<path d="M21.8372 29.8477H16.0766V30.3519H21.8372V29.8477Z" fill="#414042"/>
<path d="M21.8372 30.5117H16.0766V31.0159H21.8372V30.5117Z" fill="#414042"/>
<path d="M21.8372 31.1816H16.0766V31.6859H21.8372V31.1816Z" fill="#414042"/>
<path d="M21.8405 29.8477H16.2658V30.3519H21.8405V29.8477Z" fill="black"/>
<path d="M21.8405 30.5117H16.2658V31.0159H21.8405V30.5117Z" fill="black"/>
<path d="M21.8405 31.1816H16.2658V31.6859H21.8405V31.1816Z" fill="black"/>
<path d="M26.4895 23.6309C26.351 24.088 26.28 24.562 26.28 25.0393V25.8292C26.28 26.1687 26.4827 26.4578 26.7767 26.5889L27.1078 22.8241C27.1247 22.6191 27.074 22.4309 26.976 22.2762C26.7868 22.7233 26.6246 23.1838 26.4895 23.6309ZM32.3108 21.8863C32.4426 21.7451 32.5305 21.5636 32.5473 21.3653L32.6082 20.6796C32.6487 20.2291 32.3142 19.8661 31.8615 19.8661H29.7836C29.3309 19.8661 28.9322 20.2291 28.8951 20.6796L28.8343 21.3653C28.8174 21.5636 28.8714 21.7451 28.9795 21.8863C28.4829 21.9199 28.0606 22.3267 28.0166 22.8241L27.6788 26.6629H28.2531C28.6653 26.6629 29.0471 26.4444 29.2532 26.0881L29.3782 25.8696C29.8107 25.1166 30.6148 24.6527 31.4865 24.6527H32.9494L33.1116 22.8275C33.1555 22.3267 32.8007 21.9199 32.3108 21.8863ZM23.7799 19.8627C23.3271 19.8627 22.9284 20.2258 22.8913 20.6762L22.8305 21.3619C22.8136 21.5602 22.8676 21.7418 22.9757 21.8829C22.4791 21.9166 22.0568 22.3233 22.0128 22.8208L21.7899 25.3452H24.4319C24.638 23.9805 25.1245 21.7014 26.2226 19.9501C26.1145 19.893 25.9928 19.8594 25.8577 19.8594H23.7799V19.8627Z" fill="#754C29"/>
<path d="M16.2152 24.123C15.4009 24.123 14.7083 24.634 14.438 25.35H24.4319C24.486 24.9937 24.557 24.5768 24.6549 24.123H16.2152Z" fill="#A97C50"/>
<g opacity="0.5">
<path d="M26.5875 18.8184H17.8977C17.4923 18.8184 17.1004 18.9763 16.82 19.2688C15.0969 21.0671 14.215 23.8 13.8265 25.3496H16.6308C17.6883 21.81 22.023 21.5478 25.3645 21.6856C25.7125 20.7915 26.1652 19.9175 26.7598 19.1982C26.8916 19.0469 26.7835 18.8184 26.5875 18.8184Z" fill="white"/>
<path d="M33.1792 18.8184H30.9932C28.4931 18.8184 27.1687 21.3764 26.4862 23.6353C26.3477 24.0924 26.2767 24.5664 26.2767 25.0437V25.8336C26.2767 26.2941 26.6517 26.6639 27.1112 26.6639H27.5335C28.2566 24.758 28.983 22.6873 30.8581 21.8571C31.892 21.447 32.9664 21.4503 34.034 21.494L33.6894 19.252C33.6522 19.0032 33.436 18.8184 33.1792 18.8184Z" fill="white"/>
</g>
<path d="M34.1353 26.8199H32.8075C32.6385 26.8199 32.5034 26.6854 32.5034 26.5174C32.5034 26.3493 32.6385 26.2148 32.8075 26.2148H34.1353C34.3042 26.2148 34.4393 26.3493 34.4393 26.5174C34.436 26.6854 34.3008 26.8199 34.1353 26.8199Z" fill="#939598"/>
<path d="M34.4731 26.8199H33.1453C32.9764 26.8199 32.8412 26.6854 32.8412 26.5174C32.8412 26.3493 32.9764 26.2148 33.1453 26.2148H34.4731C34.642 26.2148 34.7772 26.3493 34.7772 26.5174C34.7772 26.6854 34.6387 26.8199 34.4731 26.8199Z" fill="white"/>
<path d="M37.3889 18.8184H35.7469C35.3989 18.8184 35.132 19.1276 35.1861 19.4671L35.9159 24.1933C35.9598 24.4689 36.1963 24.6739 36.4767 24.6739H38.1187C38.4667 24.6739 38.7336 24.3647 38.6796 24.0252L37.9498 19.299C37.9092 19.02 37.6693 18.8184 37.3889 18.8184Z" fill="black"/>
<path d="M28.2531 26.7176H27.1145C26.6213 26.7176 26.2226 26.321 26.2226 25.8302V25.0403C26.2226 24.5596 26.2935 24.0823 26.4354 23.6151C27.1044 21.3999 28.439 18.7578 30.9966 18.7578H33.1825C33.4663 18.7578 33.7062 18.9595 33.7468 19.2419L34.4867 24.0487C34.5137 24.2134 34.463 24.3815 34.3549 24.5058C34.2468 24.6336 34.088 24.7041 33.9191 24.7041H31.4831C30.6351 24.7041 29.8445 25.1579 29.4221 25.8907L29.2971 26.1092C29.0843 26.4857 28.6822 26.7176 28.2531 26.7176ZM30.9932 18.8721C28.5065 18.8721 27.199 21.4705 26.5402 23.6487C26.4017 24.1058 26.3307 24.5731 26.3307 25.0437V25.8336C26.3307 26.2605 26.6787 26.6067 27.1078 26.6067H28.2464C28.6383 26.6067 28.9998 26.3983 29.1958 26.0588L29.3208 25.8403C29.7634 25.0739 30.5911 24.5966 31.4797 24.5966H33.9157C34.0508 24.5966 34.1758 24.5394 34.2637 24.4386C34.3515 24.3378 34.3887 24.2033 34.3684 24.0722L33.6285 19.2654C33.5947 19.0402 33.4021 18.8788 33.1758 18.8788H30.9932V18.8721Z" fill="black"/>
<path d="M28.6822 18.7316C28.618 18.7316 28.5673 18.6812 28.5673 18.6173V18.419C28.5673 18.3551 28.618 18.3047 28.6822 18.3047C28.7464 18.3047 28.7971 18.3551 28.7971 18.419V18.6173C28.7971 18.6812 28.7464 18.7316 28.6822 18.7316Z" fill="black"/>
<path d="M25.5164 27.0578C25.4522 27.0578 25.4016 27.0073 25.4016 26.9435V26.7451C25.4016 26.6813 25.4522 26.6309 25.5164 26.6309C25.5806 26.6309 25.6313 26.6813 25.6313 26.7451V26.9435C25.6279 27.0073 25.5772 27.0578 25.5164 27.0578Z" fill="black"/>
<path d="M22.648 24.1265C22.0804 24.1265 21.6175 23.6659 21.6175 23.1012V21.7264C21.6175 21.1617 22.0804 20.7012 22.648 20.7012C23.2156 20.7012 23.6784 21.1617 23.6784 21.7264V23.1012C23.6784 23.6659 23.219 24.1265 22.648 24.1265Z" fill="black"/>
<path d="M22.5973 24.1265C22.0567 24.1265 21.6175 23.6895 21.6175 23.1516V21.676C21.6175 21.1382 22.0567 20.7012 22.5973 20.7012C23.1379 20.7012 23.5771 21.1382 23.5771 21.676V23.1516C23.5771 23.6895 23.1379 24.1265 22.5973 24.1265Z" fill="#D1D3D4"/>
<path d="M25.4795 26.9396C25.4558 26.9396 25.4355 26.9329 25.4153 26.9194L23.1651 25.39C22.7394 25.1009 22.486 24.6202 22.486 24.1093V20.6706C22.486 20.0521 22.9286 19.521 23.5401 19.4033L28.6182 18.4352C28.679 18.4252 28.7398 18.4621 28.75 18.526C28.7601 18.5865 28.7229 18.647 28.6587 18.6571L23.5807 19.6252C23.0773 19.7227 22.7124 20.1596 22.7124 20.6706V24.1093C22.7124 24.5463 22.9286 24.9564 23.2935 25.2051L25.5437 26.7346C25.5943 26.7682 25.6079 26.8388 25.5741 26.8926C25.5538 26.9228 25.5166 26.9396 25.4795 26.9396Z" fill="#939598"/>
<path d="M25.4792 26.8252L23.2291 25.2958C22.8338 25.0269 22.5973 24.5832 22.5973 24.1092V20.6705C22.5973 20.1058 22.9993 19.6217 23.5568 19.5142L28.6349 18.5461H28.7464C28.7464 18.5393 28.7464 18.5326 28.7464 18.5259C28.7362 18.4654 28.6754 18.4251 28.6146 18.4351L23.5365 19.4032C22.925 19.5209 22.4824 20.052 22.4824 20.6705V24.1092C22.4824 24.6235 22.7358 25.1008 23.1615 25.3899L25.4117 26.9193C25.4319 26.9328 25.4522 26.9395 25.4759 26.9395C25.5164 26.9395 25.4792 26.8252 25.4792 26.8252Z" fill="#E6E7E8"/>
<path d="M23.1717 17.0488C23.1717 16.4875 23.6312 16.027 24.1988 16.027H33.2332C33.7974 16.027 33.7906 16.4841 33.7906 17.0488V17.4925H34.5204V17.0488C34.5204 16.3429 33.9427 15.7715 33.2366 15.7715H24.1954C23.4859 15.7715 22.5027 16.3463 22.5027 17.0488V17.4925H23.1683V17.0488H23.1717Z" fill="#414042"/>
<path d="M22.6717 17.0488C22.6717 16.4875 23.1311 16.027 23.6987 16.027H32.7332C33.2974 16.027 33.7602 16.4841 33.7602 17.0488V17.4925H34.0204V17.0488C34.0204 16.3429 33.4427 15.7715 32.7365 15.7715H23.6954C22.9859 15.7715 22.4115 16.3463 22.4115 17.0488V17.4925H22.6717V17.0488Z" fill="#58595B"/>
<path d="M25.3475 15.7794H23.8136V14.3945H25.1718C25.2664 14.3945 25.3441 14.4718 25.3441 14.5693V15.7794H25.3475Z" fill="black"/>
<path d="M25.084 14.3945H23.8136V15.7794H25.084V14.3945Z" fill="#231F20"/>
<path d="M24.9353 15.6551H23.8136C23.7393 15.6551 23.6751 15.5946 23.6751 15.5173V14.6534C23.6751 14.5795 23.7359 14.5156 23.8136 14.5156H24.9353V15.6551Z" fill="#009444"/>
<path d="M24.9353 15.6551H24.8779C24.8035 15.6551 24.7393 15.5946 24.7393 15.5173V14.6534C24.7393 14.5795 24.8002 14.5156 24.8779 14.5156H24.9353V15.6551Z" fill="#006838"/>
<path d="M27.2834 15.7794H25.7495V14.3945H27.1077C27.2023 14.3945 27.2801 14.4718 27.2801 14.5693V15.7794H27.2834Z" fill="black"/>
<path d="M27.0199 14.3945H25.7495V15.7794H27.0199V14.3945Z" fill="#231F20"/>
<path d="M26.8712 15.6551H25.7495C25.6752 15.6551 25.611 15.5946 25.611 15.5173V14.6534C25.611 14.5795 25.6718 14.5156 25.7495 14.5156H26.8712V15.6551Z" fill="#009444"/>
<path d="M26.8713 15.6551H26.8138C26.7395 15.6551 26.6753 15.5946 26.6753 15.5173V14.6534C26.6753 14.5795 26.7361 14.5156 26.8138 14.5156H26.8713V15.6551Z" fill="#006838"/>
<path d="M31.2702 15.7794H29.7363V14.3945H31.0945C31.1891 14.3945 31.2702 14.4718 31.2702 14.5693V15.7794Z" fill="black"/>
<path d="M31.0067 14.3945H29.7363V15.7794H31.0067V14.3945Z" fill="#231F20"/>
<path d="M30.858 15.6551H29.7363C29.662 15.6551 29.5978 15.5946 29.5978 15.5173V14.6534C29.5978 14.5795 29.6586 14.5156 29.7363 14.5156H30.858V15.6551Z" fill="#009444"/>
<path d="M30.858 15.6551H30.8006C30.7263 15.6551 30.6621 15.5946 30.6621 15.5173V14.6534C30.6621 14.5795 30.7229 14.5156 30.8006 14.5156H30.858V15.6551Z" fill="#006838"/>
<path d="M33.2062 15.7794H31.6723V14.3945H33.0305C33.1251 14.3945 33.2028 14.4718 33.2028 14.5693V15.7794H33.2062Z" fill="black"/>
<path d="M32.9426 14.3945H31.6723V15.7794H32.9426V14.3945Z" fill="#231F20"/>
<path d="M32.794 15.6551H31.6723C31.5979 15.6551 31.5338 15.5946 31.5338 15.5173V14.6534C31.5338 14.5795 31.5946 14.5156 31.6723 14.5156H32.794V15.6551Z" fill="#009444"/>
<path d="M32.794 15.6551H32.7365C32.6622 15.6551 32.598 15.5946 32.598 15.5173V14.6534C32.598 14.5795 32.6588 14.5156 32.7365 14.5156H32.794V15.6551Z" fill="#006838"/>
<path d="M29.3816 15.2178H27.4963V14.1253C27.4963 13.6077 27.9187 13.1875 28.439 13.1875C28.9593 13.1875 29.3816 13.6077 29.3816 14.1253V15.2178Z" fill="#F7941D"/>
<path d="M28.4423 15.0229C28.8547 15.0229 29.189 14.6903 29.189 14.28C29.189 13.8697 28.8547 13.5371 28.4423 13.5371C28.0299 13.5371 27.6956 13.8697 27.6956 14.28C27.6956 14.6903 28.0299 15.0229 28.4423 15.0229Z" fill="#D1D3D4"/>
<path d="M28.6484 14.8746C28.8966 14.8746 29.0978 14.6744 29.0978 14.4275C29.0978 14.1806 28.8966 13.9805 28.6484 13.9805C28.4002 13.9805 28.1991 14.1806 28.1991 14.4275C28.1991 14.6744 28.4002 14.8746 28.6484 14.8746Z" fill="#D1D3D4"/>
<path d="M28.1416 14.2772C28.3059 14.2772 28.439 14.1447 28.439 13.9814C28.439 13.818 28.3059 13.6855 28.1416 13.6855C27.9774 13.6855 27.8443 13.818 27.8443 13.9814C27.8443 14.1447 27.9774 14.2772 28.1416 14.2772Z" fill="white"/>
<path d="M29.5167 15.2188H27.3612V15.7801H29.5167V15.2188Z" fill="#414042"/>
<path d="M29.5201 15.2188H27.8443V15.7801H29.5201V15.2188Z" fill="#231F20"/>
<path d="M29.5167 15.2188H28.6484V15.7801H29.5167V15.2188Z" fill="black"/>
</svg>
