<svg width="22" height="21" viewBox="0 0 22 21" fill="none" xmlns="http://www.w3.org/2000/svg">
<path d="M16.7597 6.03569C17.4838 6.03569 18.0709 5.48248 18.0709 4.80007C18.0709 4.11766 17.4838 3.56445 16.7597 3.56445C16.0355 3.56445 15.4485 4.11766 15.4485 4.80007C15.4485 5.48248 16.0355 6.03569 16.7597 6.03569Z" fill="white"/>
<path d="M10.9265 5.00928C9.81676 5.00928 8.73197 5.31938 7.80928 5.90037C6.88659 6.48135 6.16744 7.30713 5.74277 8.27328C5.31811 9.23943 5.20699 10.3026 5.42349 11.3282C5.63998 12.3539 6.17436 13.296 6.95904 14.0354C7.74373 14.7749 8.74347 15.2785 9.83186 15.4825C10.9202 15.6865 12.0484 15.5818 13.0736 15.1816C14.0989 14.7814 14.9752 14.1037 15.5917 13.2342C16.2082 12.3647 16.5373 11.3424 16.5373 10.2967C16.5373 8.89438 15.9461 7.5495 14.8939 6.55792C13.8417 5.56634 12.4145 5.00928 10.9265 5.00928ZM10.9265 13.729C10.2061 13.729 9.50194 13.5277 8.90298 13.1505C8.30402 12.7734 7.8372 12.2373 7.56153 11.6102C7.28586 10.983 7.21373 10.2929 7.35426 9.62708C7.4948 8.96129 7.84168 8.34972 8.35105 7.86971C8.86042 7.38969 9.5094 7.0628 10.2159 6.93037C10.9224 6.79793 11.6548 6.8659 12.3203 7.12568C12.9858 7.38546 13.5546 7.82539 13.9548 8.38982C14.3551 8.95425 14.5687 9.61785 14.5687 10.2967C14.5687 11.207 14.1849 12.08 13.5019 12.7237C12.8188 13.3673 11.8924 13.729 10.9265 13.729Z" fill="white"/>
<path d="M10.9266 1.85514C13.844 1.85514 14.19 1.86544 15.3418 1.91521C16.0346 1.92296 16.7208 2.04283 17.3705 2.26959C17.8419 2.44094 18.27 2.70338 18.6272 3.04003C18.9844 3.37668 19.2629 3.78007 19.4448 4.22426C19.6854 4.83652 19.8126 5.48318 19.8208 6.13604C19.8736 7.22149 19.8846 7.54756 19.8846 10.2977C19.8846 13.0478 19.8736 13.3721 19.8208 14.4576C19.8126 15.1104 19.6854 15.7571 19.4448 16.3693C19.2629 16.8135 18.9844 17.2169 18.6272 17.5536C18.27 17.8902 17.8419 18.1527 17.3705 18.324C16.7208 18.5508 16.0346 18.6707 15.3418 18.6784C14.19 18.7282 13.844 18.7385 10.9266 18.7385C8.00918 18.7385 7.66317 18.7282 6.51133 18.6784C5.81855 18.6707 5.13233 18.5508 4.48263 18.324C4.01127 18.1527 3.5832 17.8902 3.22596 17.5536C2.86872 17.2169 2.59023 16.8135 2.4084 16.3693C2.16777 15.7571 2.04057 15.1104 2.03234 14.4576C1.97953 13.3721 1.96861 13.0461 1.96861 10.2968C1.96861 7.54756 1.97953 7.22149 2.03234 6.13604C2.04057 5.48318 2.16777 4.83652 2.4084 4.22426C2.59023 3.78007 2.86872 3.37668 3.22596 3.04003C3.5832 2.70338 4.01127 2.44094 4.48263 2.26959C5.13233 2.04283 5.81855 1.92296 6.51133 1.91521C7.66317 1.86544 8.00918 1.85514 10.9266 1.85514ZM10.9266 0C7.9591 0 7.58669 0.012013 6.42119 0.0617808C5.51498 0.0790246 4.61844 0.240919 3.76967 0.540582C3.04371 0.805122 2.38441 1.20968 1.83404 1.72833C1.28367 2.24698 0.854365 2.86828 0.573645 3.5524C0.255553 4.35252 0.0837553 5.19769 0.0655595 6.05195C0.0127477 7.15027 0 7.49951 0 10.2968C0 13.0941 0.0127477 13.4442 0.0655595 14.5425C0.0838579 15.3965 0.255654 16.2414 0.573645 17.0412C0.854365 17.7253 1.28367 18.3466 1.83404 18.8653C2.38441 19.3839 3.04371 19.7885 3.76967 20.053C4.61873 20.3528 5.51559 20.5147 6.4221 20.5318C7.5876 20.5816 7.9591 20.5936 10.9266 20.5936C13.8941 20.5936 14.2665 20.5816 15.432 20.5318C16.3385 20.5147 17.2353 20.3528 18.0844 20.053C18.8104 19.7885 19.4697 19.3839 20.02 18.8653C20.5704 18.3466 20.9997 17.7253 21.2804 17.0412C21.5982 16.241 21.7697 15.3959 21.7876 14.5417C21.8404 13.4433 21.8532 13.0941 21.8532 10.2968C21.8532 7.49951 21.8404 7.14941 21.7876 6.05109C21.7693 5.19712 21.5975 4.35225 21.2795 3.5524C20.9988 2.86828 20.5695 2.24698 20.0191 1.72833C19.4687 1.20968 18.8094 0.805122 18.0835 0.540582C17.2344 0.241117 16.3375 0.0795112 15.4311 0.0626388C14.2656 0.0111548 13.895 0 10.9266 0Z" fill="white"/>
</svg>
