<svg width="21" height="20" viewBox="0 0 21 20" fill="none" xmlns="http://www.w3.org/2000/svg">
<path d="M7.392 19.54C8.4 19.83 9.4185 20 10.5 20C13.2848 20 15.9555 18.9464 17.9246 17.0711C19.8938 15.1957 21 12.6522 21 10C21 8.68678 20.7284 7.38642 20.2007 6.17317C19.6731 4.95991 18.8996 3.85752 17.9246 2.92893C16.9496 2.00035 15.7921 1.26375 14.5182 0.761205C13.2443 0.258658 11.8789 0 10.5 0C9.12112 0 7.75574 0.258658 6.48182 0.761205C5.2079 1.26375 4.05039 2.00035 3.07538 2.92893C1.10625 4.8043 0 7.34784 0 10C0 14.25 2.8035 17.9 6.762 19.34C6.6675 18.56 6.573 17.27 6.762 16.38L7.9695 11.44C7.9695 11.44 7.665 10.86 7.665 9.94C7.665 8.56 8.568 7.53 9.597 7.53C10.5 7.53 10.92 8.16 10.92 8.97C10.92 9.83 10.3215 11.06 10.017 12.24C9.8385 13.22 10.563 14.08 11.613 14.08C13.482 14.08 14.931 12.18 14.931 9.5C14.931 7.1 13.125 5.46 10.5315 5.46C7.5705 5.46 5.8275 7.56 5.8275 9.77C5.8275 10.63 6.1215 11.5 6.6045 12.07C6.699 12.13 6.699 12.21 6.6675 12.36L6.363 13.45C6.363 13.62 6.2475 13.68 6.069 13.56C4.725 13 3.948 11.18 3.948 9.71C3.948 6.55 6.3 3.68 10.836 3.68C14.448 3.68 17.262 6.15 17.262 9.43C17.262 12.87 15.0255 15.63 11.823 15.63C10.8045 15.63 9.807 15.11 9.45 14.5L8.7465 16.87C8.505 17.73 7.8435 18.88 7.392 19.57V19.54Z" fill="white"/>
</svg>
