<svg xmlns="http://www.w3.org/2000/svg" viewBox="0 0 230.9 219.03"><defs><style>.cls-1{fill:#e84238;}.cls-2{fill:#e8edf1;}.cls-3{fill:#d9dbdd;}.cls-4{fill:#f5b2ae;}.cls-5{fill:#f3a09a;}.cls-6{fill:#f18c87;}.cls-7{fill:#ee7a73;}.cls-8{fill:#f5ae00;}.cls-9{fill:#ce3328;}.cls-10{fill:#d95e59;}.cls-11{fill:#e2675e;}.cls-12{fill:#e9a500;}.cls-13{fill:#de9d00;}.cls-14{fill:#a72a21;}.cls-15{fill:#f4bf3c;}.cls-16{fill:#f3b622;}</style></defs><g id="Layer_2" data-name="Layer 2"><g id="Layer_1-2" data-name="Layer 1"><g id="bg7bMT.tif"><path class="cls-1" d="M0,218.52v-5c.67-.62.45-1.45.5-2.21v-3.53c0-.76.16-1.58-.5-2.2v-6c1.13-4.53.77-9.2.85-13.75.26-17.27.78-34.54,1.24-51.8.63-23.28,1.58-46.54,3.53-69.75.49-5.88,1.5-6.8,7.34-7s11.59-.18,17.38,0a11.79,11.79,0,0,1,6.16,1.62c2.3,2.66,1.52,5.92,1.69,9s0,6.24.29,9.36c-1.14,5.12.41,10.45-1.14,15.54a5.08,5.08,0,0,1-2.66,4.91c-3.39,2.2-4.52,5.41-4.43,9.33.11,5.11-.08,10.22.06,15.32.14,4.94,1.36,6.1,6.18,6.36,12.39.65,12.82.24,12.83-12.12,0-3-.12-5.94,0-8.89.2-4.25-.86-7.83-4.67-10.2a4.75,4.75,0,0,1-2.41-4.56c-1.52-5.12-.06-10.43-1.13-15.57.36-4.26.09-8.53.33-12.78.12-1.93-.05-4,1.5-5.55,5.23-2.94,10.86-1.55,16.36-1.55a84.87,84.87,0,0,1,8.59,0c10.32-.09,20.67-1.26,30.94.68,3.34,1.15,2.66,4.11,3,6.63.44,3.1-1,6.52,1.61,9.73,2.39-2.89,1.22-6,1.59-8.74s-.64-5.78,2.56-7.48c5.1-1.76,10.3-1,15.48-.71,1.56.09,3.19-.22,4.55.87,1.43,2,2.85,4,2.84,6.55,0,3.51-.15,7,.17,10.54-.15,3.57,1,7,.93,10.59a83.11,83.11,0,0,0,.08,9.47c-.14,3.72,1.09,7.31.92,11,0,3.4-.39,6.68-2.66,9.45-4.27,2.58-9,1.4-13.53,1.5-9.69.22-10.92,1.56-11.56,11.12-1.34,20.06-3,40.1-4.57,60.14-.52,6.56-1.19,13.13-1.44,19.72-.15,3.74-.15,7.67-3.57,10.35-31,.24-61.91,0-92.87.1A3.94,3.94,0,0,1,0,218.52Z"/><path class="cls-2" d="M35.77,59.69c0-6.76,0-13.52,0-20.28C35.82,19,44.4,7.26,63.89.87h0A14.2,14.2,0,0,1,68.42,0h9.17c2.34.84,4.83.69,7.23,1.12,4.44,1,8.63,2.48,11.79,6,2.53,4,6.83,6.44,8.84,11,2.61,6,4.54,11.93,4.41,18.51-.12,5.59,0,11.18-.07,16.77,0,2.37-.35,4.61-2.31,6.25,0,4.93-.06,9.86,0,14.79,0,2.9-1.12,5-4.23,4.82-2.82-.12-3.76-2.17-3.74-4.82,0-4.93,0-9.86,0-14.79-2-1.62-2.29-3.86-2.32-6.23-.07-5.43,0-10.86-.06-16.28-.17-11-4.63-19.35-14.73-24.3-3-2.75-6.8-1.77-10.28-2.3-5.13-1.52-9.33,1.29-13.31,3.51-8.28,4.64-12.08,12.3-12.49,21.62-.25,5.75,0,11.51-.1,17.26,0,2.51-.14,5-2.33,6.72L43.6,77.47c-2.89,4.92-4.74,4.92-7.62,0Z"/><path class="cls-3" d="M94.61,8l-10-6c.56-2.19,2.85-.94,4-2h12.94c7,2.51,13.93,4.93,19.32,10.62a36.37,36.37,0,0,1,10.5,25.48c.09,7.78,0,15.56.05,23.33-1.22,1.49-2.57,1.33-4,.34l-4-.34c-2.23-1.51-2.28-3.84-2.33-6.17-.1-5.6.06-11.2-.08-16.79-.3-12.49-6.78-21.17-18.64-25A70.86,70.86,0,0,1,94.61,8Z"/><path class="cls-4" d="M0,205.61c1,.33.93,1.14.83,1.95s-.52.72-.83,0Z"/><path class="cls-5" d="M0,207.59a5.76,5.76,0,0,1,.83,0c0,.66,0,1.32,0,2-.25.71-.53.73-.84,0Z"/><path class="cls-6" d="M0,209.58a7.87,7.87,0,0,1,.84,0v2c-.23.72-.51.74-.84.05Z"/><path class="cls-7" d="M0,211.56c.28,0,.56,0,.84-.05l-.84,2Z"/><path class="cls-8" d="M199,218.34H95.51c2.57-32.75,5.2-65.5,7.62-98.26.29-3.88,1.62-5.06,5.39-5,6.94.22,13.89,0,20.84-.08a11.41,11.41,0,0,1,1.43-1.08c3.72-1.78,7.64-.94,11.49-.86a62,62,0,0,1,8.18,0c3.94.11,8.16-1.47,11.54,2l29,.34c.95.77,2.15,1.32,2.57,2.62.71,2.32.36,4.76.71,7.12a38.36,38.36,0,0,0,.76,5.75c.12,2.37,0,4.74.25,7.1a37.58,37.58,0,0,0,.74,5.79c.12,2.37,0,4.75.25,7.12a37.58,37.58,0,0,0,.74,5.79c.13,2.37,0,4.75.26,7.12a36.25,36.25,0,0,0,.74,5.79c.12,2.37,0,4.75.25,7.12a37.43,37.43,0,0,0,.74,5.79c.13,2.38,0,4.76.26,7.13a37.84,37.84,0,0,0,.74,5.81c.12,2.39,0,4.78.24,7.17,0,2.43-.39,4.91.65,7.25a4.23,4.23,0,0,1,.34,1.4c-.3,2-.05,4.23-1.34,6.07C199.59,217.68,199.28,218,199,218.34Z"/><path class="cls-8" d="M43.63,93.66c7.21,3.29,9.08,9,8.22,16.5-.63,5.56-.23,11.25-.09,16.87.07,2.93-.92,4.21-4,4.12-5.3-.17-10.61-.16-15.91,0-3,.09-4.08-1.11-4-4.07q.18-12.16,0-24.34a5.52,5.52,0,0,1,2.87-5.31C32.53,96.32,34.21,95,36,93.7,39.17,89,40.37,89,43.63,93.66Z"/><path class="cls-9" d="M142.3,115.05h-12a17.55,17.55,0,0,1,0-8.64q-.51-5.61-1-11.22a18.59,18.59,0,0,1,0-8.65l-1-11.2a23.13,23.13,0,0,1,0-9.66q-.45-3-.91-5.91l4-.34,7.94.33c3.52,3.16,3,7.63,3.18,11.55.65,11.35,1.24,22.71,2,34.05C144.74,108.68,145.54,112.4,142.3,115.05Z"/><path class="cls-3" d="M59.66,59.43c0-5.58.36-11.2,0-16.75C58.63,29.06,62.55,17.41,72.57,8c3.54.32,7.11.57,10,3-10.51,6.24-15.37,15.48-15,27.67.22,6.93,0,13.88.06,20.82Z"/><path class="cls-3" d="M43.63,93.66c-2.57-2-5.13-2-7.67,0q0-8.11,0-16.24,3.81,3.5,7.62,0Z"/><path class="cls-10" d="M128.25,65.68q0,4.83,0,9.66A11.71,11.71,0,0,1,128.25,65.68Z"/><path class="cls-11" d="M130.24,106.41q0,4.32,0,8.64l-.47,0-.46,0C129.58,112.17,128.58,109.15,130.24,106.41Z"/><path class="cls-11" d="M129.24,86.54v8.65A9.55,9.55,0,0,1,129.24,86.54Z"/><path class="cls-12" d="M193.92,144.18a16.14,16.14,0,0,1-1-6.27,10.69,10.69,0,0,1,0-6.64,16,16,0,0,1-1-6.27,10.62,10.62,0,0,1,0-6.64l-.93-3,11.93,0c2.57,1.87,2.94,4.76,3.2,7.53,2.1,22.55,4.53,45.07,6.71,67.62a9.56,9.56,0,0,1-1.11,5.74,100.6,100.6,0,0,1-8.17,12.44c-1.15,1.5-2.43,2.81-4.59,1.87-.36-2.7-.71-5.41-1.06-8.11a10.62,10.62,0,0,1,0-6.64,16.14,16.14,0,0,1-1-6.27,10.69,10.69,0,0,1,0-6.64,16,16,0,0,1-1-6.27,10.62,10.62,0,0,1,0-6.64,16.14,16.14,0,0,1-1-6.27,10.72,10.72,0,0,1,0-6.65,16,16,0,0,1-1-6.27A10.62,10.62,0,0,1,193.92,144.18Z"/><path class="cls-13" d="M199,210.58c4.32-4.6,7.55-10,10.57-15.43,2.31-4.16.38-8.76,0-13.07-1.67-19.15-3.73-38.26-5.65-57.38-.32-3.11-.65-6.21-1-9.32h8c2.34,1.69,3.11,4.06,3.36,6.85,1.86,21.23,4.3,42.4,6.21,63.62.39,4.31,1.45,8.51,4.21,12s3.6,7.73,5.14,11.71c.89,1.27.66,2.77.92,4.18.75,4.16-.92,5.61-4.94,4.59s-5.88-4.44-8.06-7.52c-2.4-3.42-3.33-3.41-5.73,0-2.18,3.08-4,6.48-8.06,7.51h-5l0-.89a8.14,8.14,0,0,1,0-5.83Z"/><path class="cls-12" d="M229.81,209.58c-8.68-9.4-12.12-20.61-13-33.26-1.45-20.35-3.88-40.63-5.9-60.94,12.21-.64,12-.63,12.9,11.23,1.79,24.7,3.79,49.38,5.67,74.07C229.69,203.64,229.7,206.61,229.81,209.58Z"/><path class="cls-9" d="M162,115.06H150.22c-1.67-1.13-2.11-2.83-2.28-4.71-1-10.5-1.26-21-2.08-31.56-.3-3.93-.12-7.9-.67-11.84-.35-2.61-.55-5.34,2-7.2,11.64-.61,11.79-.62,12.49,10.76C160.61,85.36,161.25,100.21,162,115.06Z"/><path class="cls-14" d="M147.22,59.76l3,55.31-7.92,0q-1.52-27.64-3-55.29Z"/><path class="cls-12" d="M203.94,218.35c2.87-4.25,5.8-8.46,8.58-12.76,1.67-2.58,3-2.6,4.69,0,2.78,4.31,5.71,8.52,8.58,12.77Z"/><path class="cls-2" d="M171.07,156.21c0,5.12.14,10.26,0,15.38-.35,10.49-8.64,18.36-19.12,19.16-20.49,1.55-30.18-7.22-28.67-27.64.56-7.56.12-15.21.08-22.82,0-2.83.74-5.08,4-5.09s4,2.25,4,5.08q-.06,13.65,0,27.3c0,10.94,4.32,15.16,15.43,15.18.83,0,1.66,0,2.49,0,9.13-.13,13.81-4.69,13.89-13.73.08-9.26,0-18.53,0-27.79,0-3,0-6.05,4-6s4,3.15,4,6.1c0,5,0,9.92,0,14.89Z"/><path class="cls-15" d="M192.93,131.27v6.64A6,6,0,0,1,192.93,131.27Z"/><path class="cls-15" d="M191.93,118.36c0,2.21,0,4.43,0,6.64A6,6,0,0,1,191.93,118.36Z"/><path class="cls-15" d="M193.92,144.18c0,2.22,0,4.43,0,6.64A6,6,0,0,1,193.92,144.18Z"/><path class="cls-15" d="M194.92,157.09v6.65A6,6,0,0,1,194.92,157.09Z"/><path class="cls-15" d="M195.91,170c0,2.21,0,4.43,0,6.64A6,6,0,0,1,195.91,170Z"/><path class="cls-15" d="M196.91,182.92v6.64A6,6,0,0,1,196.91,182.92Z"/><path class="cls-15" d="M197.9,195.83c0,2.22,0,4.43,0,6.64A6,6,0,0,1,197.9,195.83Z"/><path class="cls-16" d="M198.91,211.62c0,1.94,0,3.89,0,5.83A5,5,0,0,1,198.91,211.62Z"/></g></g></g></svg>