<svg width="22" height="17" viewBox="0 0 22 17" fill="none" xmlns="http://www.w3.org/2000/svg">
<path d="M21.4973 2.65413C22 4.5475 22 8.5 22 8.5C22 8.5 22 12.4525 21.4973 14.3459C21.2179 15.3924 20.4006 16.2159 19.3655 16.4942C17.4856 17 11 17 11 17C11 17 4.5177 17 2.6345 16.4942C1.595 16.2116 0.7788 15.3893 0.5027 14.3459C3.27826e-08 12.4525 0 8.5 0 8.5C0 8.5 3.27826e-08 4.5475 0.5027 2.65413C0.7821 1.60756 1.5994 0.784125 2.6345 0.50575C4.5177 -1.8999e-07 11 0 11 0C11 0 17.4856 -1.8999e-07 19.3655 0.50575C20.405 0.788375 21.2212 1.61075 21.4973 2.65413ZM8.8 12.2188L15.4 8.5L8.8 4.78125V12.2188Z" fill="white"/>
</svg>
