<svg width="17" height="17" viewBox="0 0 17 17" fill="none" xmlns="http://www.w3.org/2000/svg">
<path d="M12.2495 8.4992C14.3204 8.4992 15.9991 6.82045 15.9991 4.7496C15.9991 2.67875 14.3204 1 12.2495 1C10.1787 1 8.49994 2.67875 8.49994 4.7496C8.49994 5.34942 8.64079 5.91634 8.8912 6.4191C8.95775 6.55271 8.9799 6.70542 8.94132 6.84961L8.71799 7.68428C8.62104 8.04662 8.95253 8.37811 9.31486 8.28116L10.1495 8.05783C10.2937 8.01925 10.4464 8.0414 10.58 8.10795C11.0828 8.35836 11.6497 8.4992 12.2495 8.4992Z" stroke="#2D393C" stroke-width="0.9"/>
<path d="M10.0742 11.5207L10.4005 11.8306L10.0742 11.5207ZM10.4158 11.161L10.7421 11.4709L10.4158 11.161ZM12.2285 10.9094L12.004 11.2994L12.2285 10.9094ZM13.6615 11.7343L13.437 12.1243H13.437L13.6615 11.7343ZM14.0653 14.3193L14.3915 14.6292L14.0653 14.3193ZM12.9997 15.4411L12.6735 15.1312V15.1312L12.9997 15.4411ZM12.006 15.973L12.0502 16.4208L12.006 15.973ZM4.60968 12.6067L4.93595 12.2968L4.60968 12.6067ZM5.64128 6.85365L5.315 6.54374V6.54374L5.64128 6.85365ZM5.85641 6.62715L6.18268 6.93706L6.18268 6.93706L5.85641 6.62715ZM5.97396 4.51946L6.34139 4.25967L5.97396 4.51946ZM5.02813 3.18173L4.6607 3.44152L4.6607 3.44152L5.02813 3.18173ZM7.04571 10.042L7.37199 9.73214L7.04571 10.042ZM6.80628 15.0145C7.01671 15.1468 7.29449 15.0834 7.42673 14.8729C7.55896 14.6625 7.49558 14.3847 7.28515 14.2525L6.80628 15.0145ZM10.0603 15.4046C9.81702 15.3536 9.57854 15.5096 9.5276 15.7528C9.47667 15.9961 9.63257 16.2345 9.87583 16.2855L10.0603 15.4046ZM10.4005 11.8306L10.7421 11.4709L10.0895 10.8511L9.7479 11.2107L10.4005 11.8306ZM12.004 11.2994L13.437 12.1243L13.8859 11.3443L12.4529 10.5194L12.004 11.2994ZM13.739 14.0094L12.6735 15.1312L13.326 15.751L14.3915 14.6292L13.739 14.0094ZM4.93595 12.2968C2.61292 9.85112 1.82177 7.70559 1.56216 6.34945L0.678208 6.51868C0.970435 8.04515 1.84244 10.3468 4.2834 12.9166L4.93595 12.2968ZM5.96755 7.16356L6.18268 6.93706L5.53013 6.31725L5.315 6.54374L5.96755 7.16356ZM6.34139 4.25967L5.39557 2.92194L4.6607 3.44152L5.60652 4.77925L6.34139 4.25967ZM5.64128 6.85365C5.315 6.54374 5.31458 6.54418 5.31416 6.54462C5.31402 6.54477 5.3136 6.54522 5.31331 6.54552C5.31274 6.54614 5.31215 6.54677 5.31155 6.54741C5.31035 6.5487 5.3091 6.55006 5.3078 6.55149C5.30521 6.55434 5.30242 6.55746 5.29947 6.56086C5.29356 6.56765 5.28697 6.57554 5.27983 6.58456C5.26556 6.60259 5.24911 6.62514 5.23167 6.65239C5.19671 6.70704 5.15805 6.78014 5.12507 6.87282C5.05815 7.06089 5.01975 7.31502 5.06708 7.63802C5.16032 8.27441 5.5813 9.15372 6.71944 10.352L7.37199 9.73214C6.29367 8.59688 6.01243 7.88199 5.95757 7.50755C5.93084 7.32513 5.95692 7.21969 5.97299 7.17455C5.9815 7.15062 5.98897 7.13871 5.98975 7.13748C5.99019 7.1368 5.98902 7.13871 5.98556 7.14308C5.98383 7.14526 5.98153 7.14807 5.97856 7.15148C5.97707 7.15319 5.97542 7.15505 5.97359 7.15706C5.97268 7.15807 5.97172 7.15911 5.97071 7.1602C5.97021 7.16074 5.96969 7.16129 5.96917 7.16185C5.9689 7.16213 5.9685 7.16256 5.96837 7.16269C5.96796 7.16312 5.96755 7.16356 5.64128 6.85365ZM6.71944 10.352C7.85488 11.5474 8.69643 11.9995 9.31898 12.1006C9.63717 12.1523 9.89002 12.1104 10.0778 12.0364C10.1698 12.0001 10.2419 11.9577 10.2953 11.9199C10.3219 11.901 10.3438 11.8833 10.3613 11.868C10.37 11.8603 10.3776 11.8533 10.3841 11.847C10.3874 11.8439 10.3903 11.8409 10.3931 11.8382C10.3944 11.8368 10.3957 11.8355 10.397 11.8342C10.3976 11.8336 10.3982 11.833 10.3988 11.8323C10.399 11.832 10.3995 11.8316 10.3996 11.8314C10.4 11.831 10.4005 11.8306 10.0742 11.5207C9.7479 11.2107 9.74831 11.2103 9.74872 11.2099C9.74885 11.2097 9.74926 11.2093 9.74953 11.209C9.75006 11.2085 9.75058 11.2079 9.7511 11.2074C9.75213 11.2064 9.75313 11.2053 9.75409 11.2044C9.75602 11.2024 9.75781 11.2007 9.75947 11.1991C9.76277 11.1959 9.76554 11.1934 9.76777 11.1914C9.77221 11.1875 9.77452 11.1859 9.77462 11.1858C9.77493 11.1856 9.76628 11.1918 9.74756 11.1992C9.7138 11.2125 9.62512 11.2385 9.46325 11.2122C9.12568 11.1574 8.453 10.8702 7.37199 9.73214L6.71944 10.352ZM5.39557 2.92194C5.12869 2.54447 4.69509 2.53501 4.38511 2.59737C4.06554 2.66166 3.71553 2.82587 3.38228 3.0181C2.70655 3.40788 1.96246 3.99457 1.41205 4.47319L2.00261 5.15233C2.53563 4.68884 3.22941 4.14528 3.83197 3.7977C4.13786 3.62126 4.38709 3.51501 4.56261 3.4797C4.74772 3.44246 4.70505 3.50425 4.6607 3.44152L5.39557 2.92194ZM12.6735 15.1312C12.4518 15.3645 12.2094 15.5007 11.9618 15.5251L12.0502 16.4208C12.5758 16.3689 13.0058 16.0881 13.326 15.751L12.6735 15.1312ZM6.18268 6.93706C6.86926 6.21423 6.92034 5.07851 6.34139 4.25967L5.60652 4.77925C5.95232 5.26833 5.90348 5.92418 5.53013 6.31725L6.18268 6.93706ZM13.437 12.1243C14.1136 12.5137 14.2505 13.4708 13.739 14.0094L14.3915 14.6292C15.3184 13.6534 15.0498 12.0142 13.8859 11.3443L13.437 12.1243ZM10.7421 11.4709C11.0678 11.128 11.5755 11.0528 12.004 11.2994L12.4529 10.5194C11.673 10.0705 10.7083 10.1997 10.0895 10.8511L10.7421 11.4709ZM7.28515 14.2525C6.53891 13.7835 5.74638 13.1501 4.93595 12.2968L4.2834 12.9166C5.14286 13.8215 5.99321 14.5036 6.80628 15.0145L7.28515 14.2525ZM11.9618 15.5251C11.5422 15.5666 10.8818 15.5766 10.0603 15.4046L9.87583 16.2855C10.7995 16.4789 11.553 16.4699 12.0502 16.4208L11.9618 15.5251ZM1.56216 6.34945C1.47868 5.91338 1.64559 5.46278 2.00261 5.15233L1.41205 4.47319C0.835503 4.97453 0.529074 5.73966 0.678208 6.51868L1.56216 6.34945Z" fill="#2D393C"/>
</svg>
