<svg width="16" height="16" viewBox="0 0 16 16" fill="none" xmlns="http://www.w3.org/2000/svg">
<path d="M8 11.375C10.5502 11.375 12.625 13.4498 12.625 16H11.375C11.375 15.2949 11.1575 14.6397 10.7863 14.0977L9.33266 15.5513C9.38016 15.6922 9.40625 15.843 9.40625 16H6.59375C6.59375 15.843 6.61984 15.6922 6.66731 15.5512L5.21372 14.0976C4.8425 14.6397 4.625 15.2949 4.625 16H3.375C3.375 13.4498 5.44978 11.375 8 11.375ZM8.44878 14.6673L9.90238 13.2137C9.36034 12.8425 8.70512 12.625 8 12.625C7.29488 12.625 6.63966 12.8425 6.09766 13.2137L7.55125 14.6673C7.69222 14.6199 7.84303 14.5938 8 14.5938C8.15697 14.5938 8.30778 14.6199 8.44878 14.6673ZM2.34313 10.3431C3.21447 9.47181 4.25159 8.82678 5.38316 8.43631C4.17122 7.60159 3.375 6.20463 3.375 4.625C3.375 2.07478 5.44978 0 8 0C10.5502 0 12.625 2.07478 12.625 4.625C12.625 6.20463 11.8288 7.60159 10.6168 8.43634C11.7484 8.82678 12.7855 9.47181 13.6568 10.3432C15.1678 11.8542 16 13.8631 16 16H14.75C14.75 12.278 11.722 9.25 8 9.25C4.27803 9.25 1.25 12.278 1.25 16H0C0 13.8631 0.832156 11.8542 2.34313 10.3431ZM11.375 4.625C11.375 2.76403 9.861 1.25 8 1.25C6.139 1.25 4.625 2.76403 4.625 4.625C4.625 6.48597 6.139 8 8 8C9.861 8 11.375 6.48597 11.375 4.625Z" fill="#2D393C"/>
</svg>
