<svg width="15" height="16" viewBox="0 0 15 16" fill="none" xmlns="http://www.w3.org/2000/svg">
<path d="M2.13953 5.2093C2.30325 5.2093 2.46325 5.13488 2.56744 5.00837C2.94697 4.55442 4.18604 2.99535 4.18604 2.04651C4.18604 0.91907 3.26697 0 2.13953 0C1.01209 0 0.0930176 0.91907 0.0930176 2.04651C0.0930176 2.99535 1.33209 4.55442 1.71162 5.00837C1.81581 5.13488 1.97581 5.2093 2.13953 5.2093ZM2.13953 1.11628C2.65302 1.11628 3.06976 1.53302 3.06976 2.04651C3.06976 2.33674 2.64185 3.06605 2.13953 3.74698C1.6372 3.06605 1.2093 2.33674 1.2093 2.04651C1.2093 1.53302 1.62604 1.11628 2.13953 1.11628Z" fill="#2D393C"/>
<path d="M12.5581 10.79C11.4307 10.79 10.5116 11.7091 10.5116 12.8366C10.5116 13.7854 11.7507 15.3445 12.1302 15.7984C12.2381 15.9249 12.3944 15.9993 12.5581 15.9993C12.7218 15.9993 12.8818 15.9249 12.986 15.7984C13.3656 15.3445 14.6046 13.7854 14.6046 12.8366C14.6046 11.7091 13.6856 10.79 12.5581 10.79ZM12.5581 14.537C12.0558 13.8561 11.6279 13.1268 11.6279 12.8366C11.6279 12.3231 12.0446 11.9063 12.5581 11.9063C13.0716 11.9063 13.4883 12.3231 13.4883 12.8366C13.4883 13.1268 13.0604 13.8561 12.5581 14.537Z" fill="#2D393C"/>
<path d="M10.3256 14.8834H2.88371C1.96092 14.8834 1.2093 14.1317 1.2093 13.2089C1.2093 12.2861 1.96092 11.5345 2.88371 11.5345H7.34883C8.8893 11.5345 10.1395 10.2843 10.1395 8.74382C10.1395 7.20336 8.8893 5.95312 7.34883 5.95312H3.25581C2.94697 5.95312 2.69767 6.20243 2.69767 6.51126C2.69767 6.8201 2.94697 7.0694 3.25581 7.0694H7.34883C8.27162 7.0694 9.02325 7.82103 9.02325 8.74382C9.02325 9.66661 8.27162 10.4182 7.34883 10.4182H2.88371C1.34325 10.4182 0.0930176 11.6685 0.0930176 13.2089C0.0930176 14.7494 1.34325 15.9996 2.88371 15.9996H10.3256C10.6344 15.9996 10.8837 15.7503 10.8837 15.4415C10.8837 15.1327 10.6344 14.8834 10.3256 14.8834Z" fill="#2D393C"/>
</svg>
