<svg width="42" height="42" viewBox="0 0 42 42" fill="none" xmlns="http://www.w3.org/2000/svg">
<path d="M16.25 24.325C16.25 26.168 17.675 27.65 19.423 27.65H22.995C24.515 27.65 25.75 26.358 25.75 24.743C25.75 23.014 24.99 22.3871 23.869 21.9881L18.15 19.993C17.029 19.594 16.269 18.9861 16.269 17.2381C16.269 15.6421 17.504 14.3311 19.024 14.3311H22.596C24.344 14.3311 25.769 15.8131 25.769 17.6561" stroke="white" stroke-width="2.85" stroke-linecap="round" stroke-linejoin="round"/>
<path d="M21 12.4502V29.5502" stroke="white" stroke-width="2.85" stroke-linecap="round" stroke-linejoin="round"/>
<path d="M40 21C40 31.488 31.488 40 21 40C10.512 40 2 31.488 2 21C2 10.512 10.512 2 21 2" stroke="white" stroke-width="2.85" stroke-linecap="round" stroke-linejoin="round"/>
<path d="M30.5 3.90039V11.5004H38.1" stroke="white" stroke-width="2.85" stroke-linecap="round" stroke-linejoin="round"/>
<path d="M40 2L30.5 11.5" stroke="white" stroke-width="2.85" stroke-linecap="round" stroke-linejoin="round"/>
</svg>
