<svg width="40" height="40" viewBox="0 0 40 40" fill="none" xmlns="http://www.w3.org/2000/svg">
<path d="M20.1871 0.374023C9.26149 0.374023 0.374161 9.26255 0.374161 20.1876C0.374161 31.1126 9.26149 39.9999 20.1871 39.9999C31.1121 39.9999 40 31.1126 40 20.1876C40 9.26255 31.1122 0.374023 20.1871 0.374023ZM20.1871 36.8746C10.9852 36.8746 3.4993 29.3888 3.4993 20.1875C3.4993 10.9851 10.9852 3.49916 20.1871 3.49916C29.389 3.49916 36.8749 10.9851 36.8749 20.1875C36.8749 29.3888 29.389 36.8746 20.1871 36.8746Z" fill="white"/>
<path d="M17.054 16.306C17.054 15.0525 18.8873 14.8385 20.4776 14.8385C21.9764 14.8385 24.0244 15.5409 25.7368 16.4287L26.0724 12.9739C25.216 12.4843 23.2293 11.9032 21.2113 11.7818L21.7004 8.26562H18.429L18.9187 11.7818C14.7 12.1787 13.3239 14.6243 13.3239 16.6729C13.3239 21.8394 22.9533 20.74 22.9533 23.9182C22.9533 25.1115 21.8231 25.5385 19.8354 25.5385C17.1456 25.5385 15.127 24.5918 14.0883 23.6127L13.5681 27.4958C14.5473 28.0768 16.5333 28.5964 18.9187 28.7191L18.429 32.1127H21.7004L21.2113 28.688C26.1639 28.2597 27.0504 25.6301 27.0504 23.8882C27.0505 17.7435 17.054 19.2713 17.054 16.306Z" fill="white"/>
</svg>
