<svg width="38" height="38" viewBox="0 0 38 38" fill="none" xmlns="http://www.w3.org/2000/svg">
<path d="M19 27.0156C25.0568 27.0156 29.9844 31.9432 29.9844 38H27.0156C27.0156 36.3253 26.4991 34.7692 25.6173 33.4819L22.1651 36.9342C22.2779 37.269 22.3398 37.6271 22.3398 38H15.6602C15.6602 37.6271 15.7221 37.269 15.8349 36.9341L12.3826 33.4819C11.5009 34.7692 10.9844 36.3253 10.9844 38H8.01562C8.01562 31.9432 12.9432 27.0156 19 27.0156ZM20.0659 34.8349L23.5181 31.3826C22.2308 30.5009 20.6747 29.9844 19 29.9844C17.3253 29.9844 15.7692 30.5009 14.4819 31.3827L17.9342 34.8349C18.269 34.7222 18.6272 34.6602 19 34.6602C19.3728 34.6602 19.731 34.7222 20.0659 34.8349ZM5.56492 24.5649C7.63436 22.4956 10.0975 20.9636 12.785 20.0362C9.90664 18.0538 8.01562 14.736 8.01562 10.9844C8.01562 4.92761 12.9432 0 19 0C25.0568 0 29.9844 4.92761 29.9844 10.9844C29.9844 14.736 28.0934 18.0538 25.2149 20.0363C27.9024 20.9636 30.3656 22.4956 32.435 24.565C36.0236 28.1536 38 32.9249 38 38H35.0312C35.0312 29.1603 27.8397 21.9688 19 21.9688C10.1603 21.9688 2.96875 29.1603 2.96875 38H0C0 32.9249 1.97637 28.1536 5.56492 24.5649ZM27.0156 10.9844C27.0156 6.56457 23.4199 2.96875 19 2.96875C14.5801 2.96875 10.9844 6.56457 10.9844 10.9844C10.9844 15.4042 14.5801 19 19 19C23.4199 19 27.0156 15.4042 27.0156 10.9844Z" fill="white"/>
</svg>
