<svg width="38" height="42" viewBox="0 0 38 42" fill="none" xmlns="http://www.w3.org/2000/svg">
<path d="M5.28682 13.4574C5.70977 13.4574 6.1231 13.2651 6.39225 12.9383C7.37271 11.7656 10.5736 7.73799 10.5736 5.28682C10.5736 2.37426 8.19938 0 5.28682 0C2.37426 0 0 2.37426 0 5.28682C0 7.73799 3.20093 11.7656 4.1814 12.9383C4.45054 13.2651 4.86388 13.4574 5.28682 13.4574ZM5.28682 2.88372C6.61334 2.88372 7.68992 3.96031 7.68992 5.28682C7.68992 6.03659 6.5845 7.92062 5.28682 9.67969C3.98915 7.92062 2.88372 6.03659 2.88372 5.28682C2.88372 3.96031 3.96031 2.88372 5.28682 2.88372Z" fill="white"/>
<path d="M32.2015 27.874C29.2889 27.874 26.9147 30.2483 26.9147 33.1608C26.9147 35.612 30.1156 39.6396 31.0961 40.8123C31.3748 41.1391 31.7786 41.3314 32.2015 41.3314C32.6244 41.3314 33.0378 41.1391 33.3069 40.8123C34.2874 39.6396 37.4883 35.612 37.4883 33.1608C37.4883 30.2483 35.1141 27.874 32.2015 27.874ZM32.2015 37.5537C30.9038 35.7946 29.7984 33.9106 29.7984 33.1608C29.7984 31.8343 30.875 30.7577 32.2015 30.7577C33.528 30.7577 34.6046 31.8343 34.6046 33.1608C34.6046 33.9106 33.4992 35.7946 32.2015 37.5537Z" fill="white"/>
<path d="M26.4341 38.4487H7.2093C4.82543 38.4487 2.88372 36.507 2.88372 34.1231C2.88372 31.7392 4.82543 29.7975 7.2093 29.7975H18.7442C22.7237 29.7975 25.9535 26.5677 25.9535 22.5882C25.9535 18.6087 22.7237 15.3789 18.7442 15.3789H8.17054C7.37271 15.3789 6.72868 16.0229 6.72868 16.8208C6.72868 17.6186 7.37271 18.2626 8.17054 18.2626H18.7442C21.1281 18.2626 23.0698 20.2043 23.0698 22.5882C23.0698 24.9721 21.1281 26.9138 18.7442 26.9138H7.2093C3.22977 26.9138 0 30.1436 0 34.1231C0 38.1026 3.22977 41.3324 7.2093 41.3324H26.4341C27.2319 41.3324 27.876 40.6884 27.876 39.8905C27.876 39.0927 27.2319 38.4487 26.4341 38.4487Z" fill="white"/>
</svg>
