<svg width="18" height="18" viewBox="0 0 18 18" fill="none" xmlns="http://www.w3.org/2000/svg">
<path d="M9 13V8.2" stroke="white" stroke-width="1.2" stroke-linecap="round"/>
<circle cx="0.8" cy="0.8" r="0.8" transform="matrix(1 0 0 -1 8.19995 6.59961)" fill="white"/>
<path d="M17 9C17 12.7712 17 14.6569 15.8284 15.8284C14.6569 17 12.7712 17 9 17C5.22876 17 3.34315 17 2.17157 15.8284C1 14.6569 1 12.7712 1 9C1 5.22876 1 3.34315 2.17157 2.17157C3.34315 1 5.22876 1 9 1C12.7712 1 14.6569 1 15.8284 2.17157C16.6074 2.95056 16.8685 4.04524 16.9559 5.8" stroke="white" stroke-width="1.2" stroke-linecap="round"/>
</svg>
