<svg width="16" height="17" viewBox="0 0 16 17" fill="none" xmlns="http://www.w3.org/2000/svg">
<path d="M14.9791 4.25C13.5457 2.83333 11.2523 2.83333 9.81895 4.25L3.58379 10.3417C2.72377 11.1917 2.72377 12.5375 3.58379 13.3875C4.44382 14.2375 5.80552 14.2375 6.66554 13.3875L11.8257 8.2875C12.1123 8.00417 12.1123 7.57917 11.8257 7.29583C11.539 7.0125 11.109 7.0125 10.8223 7.29583L5.66218 12.3958C5.37551 12.6792 4.9455 12.6792 4.65882 12.3958C4.37215 12.1125 4.37215 11.6875 4.65882 11.4042L10.894 5.24167C11.754 4.39167 13.1157 4.39167 13.9757 5.24167C14.8358 6.09167 14.8358 7.4375 13.9757 8.2875L7.74057 14.3792C6.3072 15.7958 4.0138 15.7958 2.58043 14.3792C1.14706 12.9625 1.14706 10.6958 2.58043 9.27917L10.8223 1.20417C11.109 0.920833 11.109 0.495833 10.8223 0.2125C10.5356 -0.0708333 10.1056 -0.0708333 9.81895 0.2125L1.50541 8.35833C-0.501314 10.3417 -0.501314 13.5292 1.50541 15.5125C3.51212 17.4958 6.73721 17.4958 8.74393 15.5125L14.9791 9.42083C16.3408 8.00417 16.3408 5.66667 14.9791 4.25Z" fill="#2D393C"/>
</svg>
