<svg width="41" height="41" viewBox="0 0 41 41" fill="none" xmlns="http://www.w3.org/2000/svg">
<path d="M17.5379 3.37495C19.0741 1.19762 22.303 1.19762 23.8392 3.37495L24.9546 2.58803L23.8392 3.37495L23.9729 3.56438C25.4386 5.64184 27.9693 6.69007 30.4747 6.25752L30.7031 6.21808C33.329 5.76473 35.6122 8.04795 35.1589 10.6738L35.1194 10.9023C34.6869 13.4077 35.7351 15.9383 37.8126 17.4041L38.002 17.5377C40.1793 19.0739 40.1793 22.3029 38.002 23.8391L38.7889 24.9544L38.002 23.8391L37.8126 23.9727C35.7351 25.4385 34.6869 27.9691 35.1194 30.4745L35.1589 30.703C35.6122 33.3288 33.329 35.6121 30.7031 35.1587L30.4747 35.1193C27.9693 34.6867 25.4386 35.735 23.9729 37.8124L23.8392 38.0018L24.9546 38.7888L23.8392 38.0018C22.303 40.1792 19.0741 40.1792 17.5379 38.0018L17.4042 37.8124C15.9385 35.735 13.4078 34.6867 10.9024 35.1193L10.674 35.1587C8.0481 35.6121 5.76488 33.3288 6.21823 30.703L6.25767 30.4745C6.69023 27.9691 5.642 25.4385 3.56452 23.9727L3.37511 23.8391L2.58818 24.9544L3.3751 23.8391C1.19777 22.3029 1.19777 19.0739 3.3751 17.5377L3.56452 17.4041L2.77761 16.2887L3.56452 17.4041C5.642 15.9383 6.69023 13.4077 6.25767 10.9023L6.21823 10.6738C5.76488 8.04795 8.0481 5.76473 10.674 6.21808L10.9024 6.25752C13.4078 6.69007 15.9385 5.64184 17.4042 3.56437L17.5379 3.37495Z" stroke="white" stroke-width="2.73"/>
<path d="M28.2347 14.9688L17.2907 25.5865L12.3161 20.7602" stroke="white" stroke-width="2.7264" stroke-linecap="round" stroke-linejoin="round"/>
</svg>
