<svg width="40" height="40" viewBox="0 0 40 40" fill="none" xmlns="http://www.w3.org/2000/svg">
<path d="M4.10883 35.8914C6.21766 38.0002 9.61177 38.0002 16.4 38.0002H23.6C30.3882 38.0002 33.7823 38.0002 35.8912 35.8914C38 33.7825 38 30.3884 38 23.6002C38 21.4946 38 19.7156 37.9371 18.2002M35.8912 11.309C33.7823 9.2002 30.3882 9.2002 23.6 9.2002H16.4C9.61177 9.2002 6.21766 9.2002 4.10883 11.309C2 13.4179 2 16.812 2 23.6002C2 25.7058 2 27.4848 2.06293 29.0002" stroke="white" stroke-width="2.7" stroke-linecap="round"/>
<path d="M20 2C23.3941 2 25.0912 2 26.1456 3.05442C27.2 4.10883 27.2 5.80589 27.2 9.2M13.8544 3.05442C12.8 4.10883 12.8 5.80589 12.8 9.2" stroke="white" stroke-width="2.7" stroke-linecap="round"/>
<path d="M20 29.6004C21.9882 29.6004 23.6 28.2572 23.6 26.6004C23.6 24.9435 21.9882 23.6004 20 23.6004C18.0118 23.6004 16.4 22.2572 16.4 20.6004C16.4 18.9435 18.0118 17.6004 20 17.6004M20 29.6004C18.0118 29.6004 16.4 28.2572 16.4 26.6004M20 29.6004V30.8004M20 16.4004V17.6004M20 17.6004C21.9882 17.6004 23.6 18.9435 23.6 20.6004" stroke="white" stroke-width="2.7" stroke-linecap="round"/>
</svg>
