<svg width="40" height="40" viewBox="0 0 40 40" fill="none" xmlns="http://www.w3.org/2000/svg">
<path d="M31.3166 37.4081C29.73 37.8768 27.855 38.0932 25.6554 38.0932H14.8379C12.6383 38.0932 10.7632 37.8768 9.17667 37.4081C9.57331 32.7205 14.3871 29.0244 20.2466 29.0244C26.1061 29.0244 30.92 32.7205 31.3166 37.4081Z" stroke="white" stroke-width="2.70439" stroke-linecap="round" stroke-linejoin="round"/>
<path d="M25.4117 2H14.5883C5.56889 2 1.96111 5.60778 1.96111 14.6272V25.4506C1.96111 32.2693 4.01754 36.0033 8.92412 37.3923C9.32098 32.7022 14.1374 29.0042 20 29.0042C25.8627 29.0042 30.679 32.7022 31.0759 37.3923C35.9825 36.0033 38.0389 32.2693 38.0389 25.4506V14.6272C38.0389 5.60778 34.4311 2 25.4117 2ZM20 23.9533C16.4283 23.9533 13.5421 21.0491 13.5421 17.4774C13.5421 13.9057 16.4283 11.0195 20 11.0195C23.5717 11.0195 26.4579 13.9057 26.4579 17.4774C26.4579 21.0491 23.5717 23.9533 20 23.9533Z" stroke="white" stroke-width="2.70584" stroke-linecap="round" stroke-linejoin="round"/>
<path d="M25.812 17.6988C25.812 20.9133 23.2144 23.5271 19.9999 23.5271C16.7854 23.5271 14.1878 20.9133 14.1878 17.6988C14.1878 14.4843 16.7854 11.8867 19.9999 11.8867C23.2144 11.8867 25.812 14.4843 25.812 17.6988Z" stroke="white" stroke-width="2.43523" stroke-linecap="round" stroke-linejoin="round"/>
</svg>
