<svg width="36" height="22" viewBox="0 0 36 22" fill="none" xmlns="http://www.w3.org/2000/svg">
<path d="M18.0023 2C11.7858 2 6.94322 5.70407 1 11.7156C6.11587 16.8542 10.412 21.4312 18.0023 21.4312C25.585 21.4312 31.1639 15.6322 35.0046 11.8219C31.0728 7.35876 25.5015 2 18.0023 2ZM18.0023 18.6456C14.2527 18.6456 11.2014 15.5335 11.2014 11.7156C11.2014 7.89008 14.2527 4.78565 18.0023 4.78565C21.7519 4.78565 24.8032 7.89768 24.8032 11.7156C24.8032 15.5411 21.7519 18.6456 18.0023 18.6456Z" fill="#2D393C"/>
<path d="M18.0022 9.28764C18.0022 8.688 18.2223 8.1415 18.5791 7.71644C18.3893 7.68608 18.1996 7.6709 18.0022 7.6709C15.8162 7.6709 14.0325 9.48498 14.0325 11.7165C14.0325 13.9481 15.8162 15.7622 18.0022 15.7622C20.1882 15.7622 21.9719 13.9481 21.9719 11.7165C21.9719 11.542 21.9568 11.3674 21.9416 11.1928C21.5241 11.5192 21.008 11.7165 20.4387 11.7165C19.0876 11.7165 18.0022 10.6311 18.0022 9.28764Z" fill="#2D393C"/>
<path d="M33.7364 2L1.96265 20.294" stroke="#2D393C" stroke-width="2.88852" stroke-linecap="round"/>
</svg>
