<svg width="46" height="46" viewBox="0 0 46 46" fill="none" xmlns="http://www.w3.org/2000/svg">
<circle cx="23" cy="23" r="23" fill="#E02E24"/>
<path d="M8.57596 24.2182C8.60325 24.2182 8.63054 24.224 8.65783 24.2355C8.68512 24.2448 8.71127 24.2621 8.73629 24.2875L9.19341 24.7758C8.99328 25.0413 8.74198 25.2422 8.4395 25.3784C8.13931 25.5124 7.78339 25.5793 7.37176 25.5793C6.99423 25.5793 6.65538 25.5147 6.35518 25.3854C6.05725 25.2538 5.80368 25.0737 5.59445 24.8451C5.3875 24.6142 5.2283 24.3417 5.11686 24.0277C5.00543 23.7114 4.94971 23.3685 4.94971 22.9991C4.94971 22.6228 5.00997 22.2776 5.13051 21.9636C5.25104 21.6472 5.42047 21.3748 5.6388 21.1462C5.85712 20.9176 6.11866 20.7398 6.4234 20.6128C6.72815 20.4859 7.0636 20.4224 7.42975 20.4224C7.61623 20.4224 7.79135 20.4397 7.95509 20.4743C8.12111 20.5066 8.27576 20.5528 8.41904 20.6128C8.56231 20.6706 8.69422 20.741 8.81475 20.8241C8.93529 20.9072 9.04217 20.9973 9.13542 21.0943L8.74653 21.6242C8.72151 21.6565 8.69194 21.6865 8.65783 21.7142C8.62372 21.7396 8.57596 21.7523 8.51455 21.7523C8.47362 21.7523 8.43496 21.7431 8.39857 21.7246C8.36218 21.7061 8.32352 21.6842 8.28258 21.6588C8.24165 21.6311 8.19616 21.6022 8.14613 21.5722C8.09837 21.5399 8.04038 21.511 7.97215 21.4856C7.9062 21.4579 7.82774 21.4348 7.73677 21.4163C7.64807 21.3979 7.54346 21.3886 7.42293 21.3886C7.23189 21.3886 7.05678 21.4244 6.89758 21.496C6.74066 21.5676 6.60421 21.6726 6.48822 21.8112C6.37451 21.9474 6.28581 22.1159 6.22214 22.3168C6.16073 22.5154 6.13003 22.7428 6.13003 22.9991C6.13003 23.2577 6.16414 23.4874 6.23237 23.6883C6.30287 23.8892 6.39725 24.0589 6.51551 24.1974C6.63604 24.3337 6.77591 24.4376 6.9351 24.5091C7.0943 24.5807 7.26487 24.6165 7.44681 24.6165C7.55142 24.6165 7.64694 24.6119 7.73336 24.6026C7.81978 24.5911 7.90051 24.5738 7.97556 24.5507C8.05061 24.5253 8.12111 24.493 8.18707 24.4537C8.25302 24.4122 8.32011 24.3602 8.38833 24.2979C8.41563 24.2748 8.44519 24.2563 8.47703 24.2425C8.50887 24.2263 8.54184 24.2182 8.57596 24.2182Z" fill="white"/>
<path d="M12.6919 24.5888V25.5239H9.69674V20.4778H10.8498V24.5888H12.6919Z" fill="white"/>
<path d="M15.2555 24.5992C15.4101 24.5992 15.5477 24.5738 15.6682 24.523C15.791 24.4699 15.8945 24.3948 15.9787 24.2979C16.0628 24.2009 16.1265 24.0831 16.1697 23.9446C16.2152 23.8038 16.2379 23.6444 16.2379 23.4667V20.4778H17.391V23.4667C17.391 23.7761 17.3409 24.0601 17.2409 24.3186C17.1431 24.5772 17.0021 24.8001 16.8179 24.9871C16.6336 25.1741 16.4096 25.3196 16.1458 25.4235C15.882 25.5274 15.5852 25.5793 15.2555 25.5793C14.9234 25.5793 14.6255 25.5274 14.3617 25.4235C14.0979 25.3196 13.8739 25.1741 13.6897 24.9871C13.5054 24.8001 13.3644 24.5772 13.2667 24.3186C13.1689 24.0601 13.12 23.7761 13.12 23.4667V20.4778H14.273V23.4632C14.273 23.641 14.2946 23.8003 14.3378 23.9411C14.3833 24.0797 14.4481 24.1986 14.5323 24.2979C14.6164 24.3948 14.7187 24.4699 14.8393 24.523C14.9621 24.5738 15.1008 24.5992 15.2555 24.5992Z" fill="white"/>
<path d="M20.2566 24.6407C20.409 24.6407 20.533 24.6211 20.6285 24.5819C20.7263 24.5426 20.8025 24.4918 20.857 24.4295C20.9116 24.3671 20.9491 24.2967 20.9696 24.2182C20.9901 24.1397 21.0003 24.0601 21.0003 23.9792C21.0003 23.8869 20.9878 23.8038 20.9628 23.7299C20.94 23.656 20.8991 23.5937 20.84 23.5429C20.7831 23.4921 20.7069 23.4528 20.6114 23.4251C20.5159 23.3974 20.3954 23.3835 20.2498 23.3835H19.4447V24.6407H20.2566ZM19.4447 21.354V22.6008H20.0451C20.1725 22.6008 20.2873 22.5916 20.3897 22.5731C20.492 22.5546 20.5784 22.5223 20.6489 22.4761C20.7217 22.43 20.7763 22.3665 20.8127 22.2857C20.8513 22.2048 20.8707 22.1033 20.8707 21.9809C20.8707 21.8608 20.8559 21.7615 20.8263 21.683C20.7968 21.6022 20.7513 21.5376 20.6899 21.4891C20.6285 21.4406 20.55 21.406 20.4545 21.3852C20.3613 21.3644 20.2498 21.354 20.1202 21.354H19.4447ZM20.1202 20.4778C20.4636 20.4778 20.7558 20.5101 20.9969 20.5748C21.238 20.6394 21.4347 20.7306 21.5871 20.8484C21.7394 20.9661 21.8497 21.1093 21.918 21.2778C21.9885 21.4464 22.0237 21.6345 22.0237 21.8423C22.0237 21.9555 22.0078 22.0652 21.976 22.1714C21.9441 22.2753 21.8941 22.3734 21.8259 22.4657C21.7576 22.5558 21.6701 22.6389 21.5632 22.7151C21.4563 22.7913 21.3278 22.8571 21.1777 22.9125C21.5052 22.9933 21.7474 23.1238 21.9043 23.3039C22.0612 23.484 22.1397 23.7172 22.1397 24.0035C22.1397 24.2182 22.0988 24.4179 22.0169 24.6026C21.935 24.7874 21.8145 24.949 21.6553 25.0875C21.4984 25.2237 21.3039 25.3311 21.0719 25.4096C20.84 25.4858 20.575 25.5239 20.2771 25.5239H18.2917V20.4778H20.1202Z" fill="white"/>
<path d="M28.4501 20.4778V25.5239H27.4336V22.6216C27.4336 22.5546 27.4347 22.4819 27.437 22.4034C27.4415 22.3249 27.4483 22.2452 27.4574 22.1644L26.1373 24.7585C26.0963 24.8393 26.0406 24.9005 25.9701 24.9421C25.9019 24.9836 25.8234 25.0044 25.7347 25.0044H25.5778C25.4891 25.0044 25.4095 24.9836 25.339 24.9421C25.2708 24.9005 25.2162 24.8393 25.1753 24.7585L23.8551 22.1575C23.8619 22.2406 23.8676 22.3226 23.8721 22.4034C23.8767 22.4819 23.8789 22.5546 23.8789 22.6216V25.5239H22.8624V20.4778H23.7425C23.7925 20.4778 23.8357 20.4789 23.8721 20.4812C23.9108 20.4835 23.9449 20.4905 23.9745 20.502C24.004 20.5136 24.0302 20.532 24.0529 20.5574C24.0779 20.5805 24.1018 20.614 24.1246 20.6579L25.4038 23.2173C25.4493 23.305 25.4925 23.3962 25.5334 23.4909C25.5767 23.5856 25.6176 23.6825 25.6563 23.7818C25.6949 23.6802 25.7347 23.581 25.7757 23.484C25.8189 23.387 25.8643 23.2946 25.9121 23.2069L27.1879 20.6579C27.2107 20.614 27.2334 20.5805 27.2562 20.5574C27.2812 20.532 27.3085 20.5136 27.338 20.502C27.3676 20.4905 27.4006 20.4835 27.437 20.4812C27.4756 20.4789 27.52 20.4778 27.57 20.4778H28.4501Z" fill="white"/>
<path d="M32.0386 23.5948L31.5781 22.2129C31.544 22.1252 31.5076 22.0224 31.4689 21.9047C31.4302 21.7846 31.3916 21.6553 31.3529 21.5168C31.3188 21.6576 31.2824 21.7881 31.2438 21.9081C31.2051 22.0282 31.1687 22.1321 31.1346 22.2198L30.6775 23.5948H32.0386ZM33.8705 25.5239H32.9767C32.8766 25.5239 32.7959 25.5008 32.7345 25.4546C32.6731 25.4061 32.6265 25.345 32.5946 25.2711L32.3013 24.3914H30.4114L30.118 25.2711C30.093 25.3357 30.0475 25.3946 29.9816 25.4477C29.9179 25.4985 29.8383 25.5239 29.7428 25.5239H28.8422L30.7662 20.4778H31.9465L33.8705 25.5239Z" fill="white"/>
<path d="M37.2575 24.5888V25.5239H34.2624V20.4778H35.4154V24.5888H37.2575Z" fill="white"/>
<path d="M40.8421 24.5888V25.5239H37.8469V20.4778H39V24.5888H40.8421Z" fill="white"/>
</svg>
