<svg width="35" height="20" viewBox="0 0 35 20" fill="none" xmlns="http://www.w3.org/2000/svg">
<path d="M17.0023 0C10.7858 0 5.94322 3.70407 0 9.7156C5.11587 14.8542 9.41199 19.4312 17.0023 19.4312C24.585 19.4312 30.1639 13.6322 34.0046 9.82187C30.0728 5.35876 24.5015 0 17.0023 0ZM17.0023 16.6456C13.2527 16.6456 10.2014 13.5335 10.2014 9.7156C10.2014 5.89008 13.2527 2.78565 17.0023 2.78565C20.7519 2.78565 23.8032 5.89768 23.8032 9.7156C23.8032 13.5411 20.7519 16.6456 17.0023 16.6456Z" fill="#2D393C"/>
<path d="M17.0022 7.28764C17.0022 6.688 17.2223 6.1415 17.5791 5.71644C17.3893 5.68608 17.1996 5.6709 17.0022 5.6709C14.8162 5.6709 13.0325 7.48498 13.0325 9.71654C13.0325 11.9481 14.8162 13.7622 17.0022 13.7622C19.1882 13.7622 20.9719 11.9481 20.9719 9.71654C20.9719 9.54196 20.9568 9.36738 20.9416 9.19281C20.5241 9.51919 20.008 9.71654 19.4387 9.71654C18.0876 9.71654 17.0022 8.63112 17.0022 7.28764Z" fill="#2D393C"/>
</svg>
