<svg width="15" height="15" viewBox="0 0 15 15" fill="none" xmlns="http://www.w3.org/2000/svg">
<path d="M9.11337 14.25H5.13663C1.53767 14.25 0 12.7123 0 9.11337V5.13663C0 1.53767 1.53767 0 5.13663 0H9.11337C12.7123 0 14.25 1.53767 14.25 5.13663V9.11337C14.25 12.7123 12.7123 14.25 9.11337 14.25ZM5.13663 0.994186C2.08116 0.994186 0.994186 2.08116 0.994186 5.13663V9.11337C0.994186 12.1688 2.08116 13.2558 5.13663 13.2558H9.11337C12.1688 13.2558 13.2558 12.1688 13.2558 9.11337V5.13663C13.2558 2.08116 12.1688 0.994186 9.11337 0.994186H5.13663Z" fill="#2D393C"/>
<path d="M4.85145 9.78985C4.72552 9.78985 4.59959 9.74346 4.50018 9.64404C4.30797 9.45183 4.30797 9.13369 4.50018 8.94148L8.84145 4.60021C9.03366 4.408 9.35179 4.408 9.544 4.60021C9.73621 4.79242 9.73621 5.11056 9.544 5.30277L5.20273 9.64404C5.10331 9.74346 4.97738 9.78985 4.85145 9.78985Z" fill="#2D393C"/>
<path d="M5.12337 6.53578C4.40093 6.53578 3.81104 5.94591 3.81104 5.22347C3.81104 4.50102 4.40093 3.91113 5.12337 3.91113C5.84581 3.91113 6.43568 4.50102 6.43568 5.22347C6.43568 5.94591 5.84581 6.53578 5.12337 6.53578ZM5.12337 4.91195C4.95104 4.91195 4.80522 5.05115 4.80522 5.2301C4.80522 5.40905 4.94441 5.54823 5.12337 5.54823C5.30232 5.54823 5.44149 5.40905 5.44149 5.2301C5.44149 5.05115 5.29569 4.91195 5.12337 4.91195Z" fill="#2D393C"/>
<path d="M9.45806 10.3327C8.73562 10.3327 8.14575 9.74276 8.14575 9.02032C8.14575 8.29788 8.73562 7.70801 9.45806 7.70801C10.1805 7.70801 10.7704 8.29788 10.7704 9.02032C10.7704 9.74276 10.1805 10.3327 9.45806 10.3327ZM9.45806 8.70883C9.28574 8.70883 9.13994 8.848 9.13994 9.02695C9.13994 9.20591 9.27911 9.3451 9.45806 9.3451C9.63702 9.3451 9.77621 9.20591 9.77621 9.02695C9.77621 8.848 9.63702 8.70883 9.45806 8.70883Z" fill="#2D393C"/>
</svg>
