<svg width="16" height="16" viewBox="0 0 16 16" fill="none" xmlns="http://www.w3.org/2000/svg">
<path d="M5.67035 9.6303C5.67035 10.5333 6.36335 11.2613 7.22435 11.2613H8.98135C9.73035 11.2613 10.3393 10.6243 10.3393 9.8403C10.3393 8.9863 9.96835 8.6853 9.41535 8.4893L6.59435 7.5093C6.04135 7.3133 5.67035 7.0123 5.67035 6.1583C5.67035 5.3743 6.27935 4.7373 7.02835 4.7373H8.78535C9.64635 4.7373 10.3393 5.4653 10.3393 6.3683" stroke="#2D393C" stroke-width="1.05" stroke-linecap="round" stroke-linejoin="round"/>
<path d="M8 3.7998V12.1998" stroke="#2D393C" stroke-width="1.05" stroke-linecap="round" stroke-linejoin="round"/>
<path d="M10.1 15H5.9C2.4 15 1 13.6 1 10.1V5.9C1 2.4 2.4 1 5.9 1H10.1C13.6 1 15 2.4 15 5.9V10.1C15 13.6 13.6 15 10.1 15Z" stroke="#2D393C" stroke-width="1.05" stroke-linecap="round" stroke-linejoin="round"/>
</svg>
