<svg width="15" height="16" viewBox="0 0 15 16" fill="none" xmlns="http://www.w3.org/2000/svg">
<path d="M7.24805 4.11816V6.4566" stroke="#292D32" stroke-width="1.05335" stroke-miterlimit="10" stroke-linecap="round"/>
<path d="M7.26207 1C4.67785 1 2.58519 3.09266 2.58519 5.67687V7.15156C2.58519 7.62908 2.38857 8.34536 2.14279 8.75266L1.25095 10.2414C0.703207 11.1613 1.08241 12.1866 2.09363 12.5236C5.4503 13.6402 9.08085 13.6402 12.4375 12.5236C13.3855 12.2076 13.7928 11.0981 13.2802 10.2414L12.3884 8.75266C12.1426 8.34536 11.946 7.62206 11.946 7.15156V5.67687C11.9389 3.1067 9.83224 1 7.26207 1Z" stroke="#292D32" stroke-width="1.05335" stroke-miterlimit="10" stroke-linecap="round"/>
<path d="M9.58648 12.8115C9.58648 14.0966 8.53313 15.15 7.24804 15.15C6.60901 15.15 6.01914 14.8831 5.5978 14.4618C5.17646 14.0404 4.90961 13.4506 4.90961 12.8115" stroke="#292D32" stroke-width="1.05335" stroke-miterlimit="10"/>
</svg>
