<svg width="19" height="15" viewBox="0 0 19 15" fill="none" xmlns="http://www.w3.org/2000/svg">
<path d="M3.97722 11.7766C3.62501 11.7766 3.33704 12.0645 3.33704 12.4167C3.33704 12.769 3.62501 13.0569 3.97722 13.0569C4.32944 13.0569 4.61741 12.769 4.61741 12.4167C4.61741 12.0645 4.3294 11.7766 3.97722 11.7766Z" fill="#2D393C" stroke="#2D393C" stroke-width="0.0894737"/>
<path d="M14.3976 11.7766C14.0454 11.7766 13.7574 12.0645 13.7574 12.4167C13.7574 12.769 14.0454 13.0569 14.3976 13.0569C14.7498 13.0569 15.0378 12.769 15.0378 12.4167C15.0378 12.0645 14.7498 11.7766 14.3976 11.7766Z" fill="#2D393C" stroke="#2D393C" stroke-width="0.0894737"/>
<path d="M2.53338 1.94755V3.19126C3.04767 3.34063 3.42654 3.81714 3.42654 4.3783C3.42654 5.05802 2.87062 5.61393 2.1909 5.61393C1.51118 5.61393 0.955263 5.05798 0.955263 4.3783C0.955263 4.27882 0.98861 4.19245 1.05022 4.13083C1.11184 4.06921 1.19822 4.03585 1.29771 4.03585C1.39718 4.03585 1.48356 4.06921 1.54518 4.13083C1.6068 4.19245 1.64015 4.27882 1.64015 4.3783C1.64015 4.6811 1.88807 4.92901 2.19087 4.92901C2.49366 4.92901 2.74158 4.6811 2.74158 4.3783C2.74158 4.0755 2.49366 3.82758 2.19087 3.82758C2.09139 3.82758 2.00502 3.79423 1.9434 3.73261C1.88178 3.67099 1.84842 3.58462 1.84842 3.48514V1.13418C1.84668 1.11339 1.84705 1.09214 1.84983 1.07063C1.84989 1.07018 1.84995 1.06973 1.85001 1.06928L1.89435 1.07523C1.90628 0.912424 2.02186 0.805664 2.1909 0.805664H4.27496C4.36428 0.805664 4.42381 0.835428 4.48337 0.89499L2.53338 1.94755ZM2.53338 1.94755L9.42769 9.09723H1H0.955263V9.14196V12.0001C0.955263 12.4119 1.3028 12.7594 1.71454 12.7594H1.87564C2.03698 13.7793 2.9083 14.5457 3.97725 14.5457C5.0462 14.5457 5.91752 13.7794 6.07886 12.7594H12.296C12.4573 13.7793 13.3286 14.5457 14.3976 14.5457C15.4665 14.5457 16.3378 13.7794 16.4992 12.7594H17.2557C17.6671 12.7594 18.013 12.413 18.0446 12.0336L18.0448 12.0336V12.0299V7.95106V7.65335C18.0447 7.37545 17.952 7.12568 17.7645 6.9377L15.175 4.08034L15.1751 4.08031L15.1735 4.07875C14.9578 3.86302 14.6788 3.73814 14.3976 3.73814H12.8196H11.6585C11.1564 3.73814 10.7801 4.14625 10.7801 4.61651V6.85606L4.51501 0.863356C4.51489 0.863237 4.51477 0.863118 4.51465 0.862999L2.53338 1.94755ZM1.64012 9.78212H10.2294H11.1225H11.4202H11.465V9.73738V9.43967V7.65332V4.61654C11.465 4.49598 11.5603 4.4231 11.6584 4.4231H12.2686V7.44491C12.2686 7.73756 12.5269 7.99577 12.8195 7.99577H17.33V8.79945H15.8861C15.7866 8.79945 15.7002 8.83281 15.6386 8.89443C15.577 8.95605 15.5436 9.04242 15.5436 9.1419C15.5436 9.24137 15.577 9.32775 15.6386 9.38937C15.7002 9.45098 15.7866 9.48434 15.8861 9.48434H17.33V12V12.0001C17.33 12.0153 17.3219 12.0343 17.3059 12.0503C17.2899 12.0664 17.2709 12.0744 17.2557 12.0744H16.4991C16.3378 11.0545 15.4665 10.2881 14.3975 10.2881L14.3887 10.2883L14.3831 10.2885L14.377 10.2883L14.3677 10.2881C13.3161 10.2881 12.443 11.0596 12.2752 12.0744H6.07886C5.9277 11.1189 5.15326 10.3862 4.17683 10.2975M1.64012 9.78212L4.17691 10.2975C4.17688 10.2975 4.17685 10.2975 4.17683 10.2975M1.64012 9.78212V12.0001C1.64012 12.0153 1.64818 12.0343 1.66423 12.0503C1.68027 12.0664 1.69924 12.0744 1.71447 12.0744H1.87557C2.02673 11.1189 2.80114 10.3862 3.77755 10.2975L1.64012 9.78212ZM4.17683 10.2975C4.17316 10.2972 4.16676 10.2967 4.16173 10.2963C4.15884 10.2961 4.1564 10.296 4.15521 10.2959L4.15509 10.2959L4.15475 10.2958C4.13056 10.2939 4.1055 10.2918 4.08004 10.2906C4.04604 10.289 4.01178 10.2881 3.97722 10.2881C3.94265 10.2881 3.90839 10.289 3.87439 10.2906C3.84979 10.2918 3.82553 10.2937 3.80219 10.2956L3.79934 10.2959L3.7992 10.2959C3.79811 10.296 3.79569 10.2961 3.79277 10.2963L4.17683 10.2975ZM14.3976 4.4231C14.4534 4.4231 14.4997 4.43008 14.5415 4.44617C14.5829 4.46207 14.6221 4.48776 14.6628 4.52824L17.1556 7.31088H12.9537V4.4231H14.3976ZM3.01052 1.44588H4.13793L10.7801 7.79158V9.09723H10.3676L3.01052 1.44588ZM3.97725 13.8608C3.16833 13.8608 2.53338 13.2258 2.53338 12.4169C2.53338 11.608 3.16833 10.973 3.97725 10.973C4.78617 10.973 5.42112 11.608 5.42112 12.4169C5.42112 13.2258 4.78614 13.8608 3.97725 13.8608ZM14.3976 13.8608C13.5887 13.8608 12.9537 13.2258 12.9537 12.4169C12.9537 11.608 13.5887 10.973 14.3976 10.973C15.2065 10.973 15.8414 11.608 15.8414 12.4169C15.8414 13.2258 15.2065 13.8608 14.3976 13.8608Z" fill="#2D393C" stroke="#2D393C" stroke-width="0.0894737"/>
</svg>
