<svg width="18" height="18" viewBox="0 0 18 18" fill="none" xmlns="http://www.w3.org/2000/svg">
<path d="M11.4 1H6.6C2.6 1 1 2.6 1 6.6V11.4C1 14.424 1.912 16.08 4.088 16.696C4.264 14.616 6.4 12.976 9 12.976C11.6 12.976 13.736 14.616 13.912 16.696C16.088 16.08 17 14.424 17 11.4V6.6C17 2.6 15.4 1 11.4 1ZM9 10.736C7.416 10.736 6.136 9.44801 6.136 7.86401C6.136 6.28001 7.416 5 9 5C10.584 5 11.864 6.28001 11.864 7.86401C11.864 9.44801 10.584 10.736 9 10.736Z" stroke="#2D393C" stroke-width="1.2" stroke-linecap="round" stroke-linejoin="round"/>
</svg>
