<svg width="24" height="24" viewBox="0 0 24 24" fill="none" xmlns="http://www.w3.org/2000/svg">
<path d="M11.6027 0.236328C5.19159 0.236328 0 5.43953 0 11.8506C0 18.2617 5.19159 23.4649 11.6027 23.4649C18.0254 23.4649 23.2286 18.2617 23.2286 11.8506C23.2286 5.43953 18.0254 0.236328 11.6027 0.236328ZM11.6143 21.142C6.48077 21.142 2.32286 16.9841 2.32286 11.8506C2.32286 6.7171 6.48077 2.55919 11.6143 2.55919C16.7478 2.55919 20.9057 6.7171 20.9057 11.8506C20.9057 16.9841 16.7478 21.142 11.6143 21.142ZM15.6793 10.6892C16.6433 10.6892 17.4214 9.91103 17.4214 8.94704C17.4214 7.98306 16.6433 7.2049 15.6793 7.2049C14.7153 7.2049 13.9371 7.98306 13.9371 8.94704C13.9371 9.91103 14.7153 10.6892 15.6793 10.6892ZM7.54929 10.6892C8.51327 10.6892 9.29143 9.91103 9.29143 8.94704C9.29143 7.98306 8.51327 7.2049 7.54929 7.2049C6.5853 7.2049 5.80714 7.98306 5.80714 8.94704C5.80714 9.91103 6.5853 10.6892 7.54929 10.6892ZM11.6143 18.2385C14.3204 18.2385 16.62 16.5428 17.5492 14.1735H5.67939C6.60853 16.5428 8.90816 18.2385 11.6143 18.2385Z" fill="#9DA3A7"/>
</svg>
