<svg width="102" height="48" viewBox="0 0 102 48" fill="none" xmlns="http://www.w3.org/2000/svg">
<rect width="102" height="48" rx="6.62557" fill="#EBFBF4"/>
<path d="M50.9983 37.6389C72.2854 37.6389 89.542 37.4924 89.542 37.3116C89.542 37.1309 72.2854 36.9844 50.9983 36.9844C29.7112 36.9844 12.4547 37.1309 12.4547 37.3116C12.4547 37.4924 29.7112 37.6389 50.9983 37.6389Z" fill="#58595B"/>
<path d="M40.3442 20.3762H29.5261V14.8921C29.5261 13.8931 30.8704 13.0801 31.8402 13.0801H38.5852C39.555 13.0801 40.3442 13.8931 40.3442 14.8921V20.3762ZM30.4357 20.0111H39.3476V14.8921C39.3476 14.0929 39.361 13.4452 38.5852 13.4452H31.8402C31.0644 13.4452 30.4357 14.0929 30.4357 14.8921V20.0111Z" fill="#414042"/>
<path d="M39.6586 20.3762H29.3957V14.8921C29.3957 13.8931 30.1849 13.0801 31.1547 13.0801H37.8996C38.8694 13.0801 39.6586 13.8931 39.6586 14.8921V20.3762ZM29.7502 20.0111H39.3041V14.8921C39.3041 14.0929 38.6755 13.4452 37.8996 13.4452H31.1547C30.3788 13.4452 29.7502 14.0929 29.7502 14.8921V20.0111Z" fill="#58595B"/>
<path d="M38.5484 12.4838H36.6523V11.3436C36.6523 10.8027 37.077 10.3652 37.602 10.3652C38.127 10.3652 38.5517 10.8027 38.5517 11.3436V12.4838H38.5484Z" fill="#F7941D"/>
<path d="M38.3334 11.6839C38.4289 11.2674 38.1784 10.8499 37.774 10.7515C37.3696 10.6531 36.9644 10.9111 36.8689 11.3277C36.7734 11.7443 37.0238 12.1618 37.4282 12.2601C37.8326 12.3585 38.2379 12.1005 38.3334 11.6839Z" fill="#D1D3D4"/>
<path d="M38.2568 11.7329C38.2967 11.4794 38.1296 11.2405 37.8835 11.1994C37.6374 11.1582 37.4055 11.3304 37.3655 11.5839C37.3256 11.8374 37.4927 12.0763 37.7388 12.1175C37.9849 12.1586 38.2168 11.9864 38.2568 11.7329Z" fill="#D1D3D4"/>
<path d="M37.5929 11.2685C37.6311 11.1019 37.5309 10.9349 37.3692 10.8955C37.2074 10.8562 37.0453 10.9594 37.0071 11.126C36.9689 11.2926 37.0691 11.4596 37.2308 11.499C37.3926 11.5383 37.5547 11.4351 37.5929 11.2685Z" fill="white"/>
<path d="M38.6855 12.4844H36.5152V13.07H38.6855V12.4844Z" fill="#414042"/>
<path d="M38.6821 12.4844H36.9967V13.07H38.6821V12.4844Z" fill="#231F20"/>
<path d="M38.6855 12.4844H37.8093V13.07H38.6855V12.4844Z" fill="black"/>
<path d="M33.2548 12.4838H31.3587V11.3436C31.3587 10.8027 31.7834 10.3652 32.3084 10.3652C32.8334 10.3652 33.2581 10.8027 33.2581 11.3436V12.4838H33.2548Z" fill="#F7941D"/>
<path d="M32.8374 12.052C33.1313 11.7493 33.1313 11.2585 32.8374 10.9558C32.5436 10.6532 32.0672 10.6532 31.7734 10.9558C31.4795 11.2585 31.4795 11.7493 31.7734 12.052C32.0672 12.3547 32.5436 12.3547 32.8374 12.052Z" fill="#D1D3D4"/>
<path d="M32.9632 11.7301C33.0005 11.4762 32.8309 11.2392 32.5844 11.2008C32.3379 11.1623 32.1078 11.337 32.0705 11.591C32.0332 11.8449 32.2028 12.0819 32.4493 12.1204C32.6958 12.1588 32.9259 11.9841 32.9632 11.7301Z" fill="#D1D3D4"/>
<path d="M32.3015 11.2448C32.3282 11.0757 32.2168 10.9165 32.0528 10.889C31.8887 10.8615 31.7341 10.9762 31.7074 11.1452C31.6807 11.3142 31.792 11.4735 31.9561 11.501C32.1201 11.5285 32.2748 11.4138 32.3015 11.2448Z" fill="white"/>
<path d="M33.3919 12.4844H31.2216V13.07H33.3919V12.4844Z" fill="#414042"/>
<path d="M33.3885 12.4844H31.7031V13.07H33.3885V12.4844Z" fill="#231F20"/>
<path d="M33.3918 12.4844H32.5157V13.07H33.3918V12.4844Z" fill="black"/>
<path d="M41.8122 17.7285H33.5457V27.7978H41.8122V17.7285Z" fill="black"/>
<mask id="mask0_1668_161" style="mask-type:luminance" maskUnits="userSpaceOnUse" x="53" y="29" width="6" height="9">
<path d="M58.8168 37.312H56.9441C55.155 37.312 53.707 35.5862 53.707 33.4607C53.707 31.3352 55.155 29.6094 56.9441 29.6094H58.8168C57.0277 29.6094 55.5797 31.3352 55.5797 33.4607C55.5764 35.5862 57.0277 37.312 58.8168 37.312Z" fill="white"/>
</mask>
<g mask="url(#mask0_1668_161)">
<path d="M55.5764 33.4574C55.5764 33.2507 55.5897 33.0475 55.6165 32.8477H53.7438C53.7171 33.0475 53.7037 33.2507 53.7037 33.4574C53.7037 35.5863 55.1517 37.3087 56.9407 37.3087H58.8134C57.0277 37.3122 55.5764 35.5863 55.5764 33.4574Z" fill="#231F20"/>
<path d="M54.4795 30.959C54.2387 31.2931 54.0481 31.679 53.9144 32.0958C53.8375 32.3369 53.7839 32.5884 53.7472 32.8468H55.6198C55.6533 32.5849 55.7101 32.3335 55.787 32.0958C55.9208 31.6755 56.1114 31.2931 56.3522 30.959H54.4795Z" fill="black"/>
<path d="M55.1049 30.2871C54.8741 30.4766 54.6634 30.7039 54.4795 30.9589H56.3522C56.5361 30.7039 56.7468 30.4766 56.9775 30.2871H55.1049Z" fill="black"/>
<path d="M58.8168 29.6055H56.9441C56.2619 29.6055 55.6265 29.8569 55.1049 30.2875H56.9775C57.4992 29.8569 58.1312 29.6055 58.8168 29.6055Z" fill="black"/>
</g>
<path d="M58.7432 29.6074C60.5724 29.6074 62.0538 31.3333 62.0538 33.4587C62.0538 35.5877 60.5724 37.3101 58.7432 37.3101C56.914 37.3101 55.4326 35.5842 55.4326 33.4587C55.4326 31.3333 56.914 29.6074 58.7432 29.6074Z" fill="#939598"/>
<path d="M58.8168 29.6074C60.6058 29.6074 62.0538 31.3333 62.0538 33.4587C62.0538 35.5877 60.6058 37.3101 58.8168 37.3101C57.0277 37.3101 55.5797 35.5842 55.5797 33.4587C55.5764 31.3333 57.0277 29.6074 58.8168 29.6074Z" fill="#414042"/>
<mask id="mask1_1668_161" style="mask-type:luminance" maskUnits="userSpaceOnUse" x="55" y="29" width="6" height="9">
<path d="M60.8098 37.312H58.9371C57.148 37.312 55.7001 35.5862 55.7001 33.4607C55.7001 31.3352 57.148 29.6094 58.9371 29.6094H60.8098C59.0207 29.6094 57.5727 31.3352 57.5727 33.4607C57.5727 35.5862 59.0207 37.312 60.8098 37.312Z" fill="white"/>
</mask>
<g mask="url(#mask1_1668_161)">
<path d="M57.5727 33.4574C57.5727 33.2507 57.5861 33.0475 57.6129 32.8477H55.7402C55.7134 33.0475 55.7001 33.2507 55.7001 33.4574C55.7001 35.5863 57.148 37.3087 58.9371 37.3087H60.8098C59.0207 37.3122 57.5727 35.5863 57.5727 33.4574Z" fill="#231F20"/>
<path d="M56.4725 30.959C56.2318 31.2931 56.0412 31.679 55.9074 32.0958C55.8305 32.3369 55.777 32.5884 55.7402 32.8468H57.6129C57.6463 32.5849 57.7032 32.3335 57.7801 32.0958C57.9138 31.6755 58.1044 31.2931 58.3452 30.959H56.4725Z" fill="black"/>
<path d="M57.0979 30.2871C56.8671 30.4766 56.6565 30.7039 56.4725 30.9589H58.3452C58.5291 30.7039 58.7398 30.4766 58.9705 30.2871H57.0979Z" fill="black"/>
<path d="M60.8098 29.6055H58.9371C58.2549 29.6055 57.6195 29.8569 57.0979 30.2875H58.9705C59.4922 29.8569 60.1242 29.6055 60.8098 29.6055Z" fill="black"/>
</g>
<path d="M60.7362 29.6074C62.5654 29.6074 64.0469 31.3333 64.0469 33.4587C64.0469 35.5877 62.5654 37.3101 60.7362 37.3101C58.907 37.3101 57.4256 35.5842 57.4256 33.4587C57.4256 31.3333 58.907 29.6074 60.7362 29.6074Z" fill="#939598"/>
<path d="M60.8098 29.6074C62.5989 29.6074 64.0469 31.3333 64.0469 33.4587C64.0469 35.5877 62.5989 37.3101 60.8098 37.3101C59.0207 37.3101 57.5728 35.5842 57.5728 33.4587C57.5728 31.3333 59.0207 29.6074 60.8098 29.6074Z" fill="black"/>
<path d="M71.0226 26.0977H14.0498V34.007H71.0226V26.0977Z" fill="black"/>
<mask id="mask2_1668_161" style="mask-type:luminance" maskUnits="userSpaceOnUse" x="18" y="29" width="6" height="9">
<path d="M23.7609 37.312H21.8882C20.0991 37.312 18.6512 35.5862 18.6512 33.4607C18.6512 31.3352 20.0991 29.6094 21.8882 29.6094H23.7609C21.9718 29.6094 20.5238 31.3352 20.5238 33.4607C20.5238 35.5862 21.9752 37.312 23.7609 37.312Z" fill="white"/>
</mask>
<g mask="url(#mask2_1668_161)">
<path d="M20.5238 33.4574C20.5238 33.2507 20.5372 33.0475 20.564 32.8477H18.6913C18.6645 33.0475 18.6512 33.2507 18.6512 33.4574C18.6512 35.5863 20.0991 37.3087 21.8882 37.3087H23.7609C21.9752 37.3122 20.5238 35.5863 20.5238 33.4574Z" fill="#231F20"/>
<path d="M19.4236 30.959C19.1828 31.2931 18.9922 31.679 18.8585 32.0958C18.7815 32.3369 18.728 32.5884 18.6913 32.8468H20.5639C20.5974 32.5849 20.6542 32.3335 20.7311 32.0958C20.8649 31.6755 21.0555 31.2931 21.2963 30.959H19.4236Z" fill="#231F20"/>
<path d="M20.049 30.2871C19.8182 30.4766 19.6075 30.7039 19.4236 30.9589H21.2963C21.4802 30.7039 21.6909 30.4766 21.9216 30.2871H20.049Z" fill="#231F20"/>
<path d="M23.7609 29.6055H21.8882C21.206 29.6055 20.5706 29.8569 20.049 30.2875H21.9216C22.4466 29.8569 23.0787 29.6055 23.7609 29.6055Z" fill="#231F20"/>
</g>
<path d="M23.6907 29.6074C25.5199 29.6074 27.0013 31.3333 27.0013 33.4587C27.0013 35.5877 25.5199 37.3101 23.6907 37.3101C21.8615 37.3101 20.3801 35.5842 20.3801 33.4587C20.3801 31.3333 21.8615 29.6074 23.6907 29.6074Z" fill="#414042"/>
<path d="M23.7609 29.6074C25.55 29.6074 26.998 31.3333 26.998 33.4587C26.998 35.5877 25.55 37.3101 23.7609 37.3101C21.9718 37.3101 20.5239 35.5842 20.5239 33.4587C20.5239 31.3333 21.9752 29.6074 23.7609 29.6074Z" fill="black"/>
<mask id="mask3_1668_161" style="mask-type:luminance" maskUnits="userSpaceOnUse" x="29" y="29" width="7" height="9">
<path d="M35.0873 37.312H33.2146C31.4255 37.312 29.9776 35.5862 29.9776 33.4607C29.9776 31.3352 31.4255 29.6094 33.2146 29.6094H35.0873C33.2982 29.6094 31.8502 31.3352 31.8502 33.4607C31.8502 35.5862 33.3016 37.312 35.0873 37.312Z" fill="white"/>
</mask>
<g mask="url(#mask3_1668_161)">
<path d="M31.8502 33.4574C31.8502 33.2507 31.8636 33.0475 31.8904 32.8477H30.0177C29.9909 33.0475 29.9776 33.2507 29.9776 33.4574C29.9776 35.5863 31.4255 37.3087 33.2146 37.3087H35.0873C33.3016 37.3122 31.8502 35.5863 31.8502 33.4574Z" fill="black"/>
<path d="M30.75 30.959C30.5093 31.2931 30.3187 31.679 30.1849 32.0958C30.108 32.3369 30.0545 32.5884 30.0177 32.8468H31.8904C31.9238 32.5849 31.9807 32.3335 32.0576 32.0958C32.1913 31.6755 32.382 31.2931 32.6227 30.959H30.75Z" fill="black"/>
<path d="M31.3754 30.2871C31.1447 30.4766 30.934 30.7039 30.7501 30.9589H32.6227C32.8067 30.7039 33.0173 30.4766 33.2481 30.2871H31.3754Z" fill="black"/>
<path d="M35.0873 29.6055H33.2146C32.5324 29.6055 31.8971 29.8569 31.3754 30.2875H33.2481C33.7731 29.8569 34.4051 29.6055 35.0873 29.6055Z" fill="black"/>
</g>
<path d="M35.017 29.6074C36.8462 29.6074 38.3277 31.3333 38.3277 33.4587C38.3277 35.5877 36.8462 37.3101 35.017 37.3101C33.1878 37.3101 31.7064 35.5842 31.7064 33.4587C31.7064 31.3333 33.1878 29.6074 35.017 29.6074Z" fill="#939598"/>
<path d="M35.0873 29.6074C36.8763 29.6074 38.3243 31.3333 38.3243 33.4587C38.3243 35.5877 36.8763 37.3101 35.0873 37.3101C33.2982 37.3101 31.8502 35.5842 31.8502 33.4587C31.8502 31.3333 33.3015 29.6074 35.0873 29.6074Z" fill="#414042"/>
<path d="M35.0873 30.8633C36.2945 30.8633 37.271 32.0242 37.271 33.4607C37.271 34.8937 36.2945 36.0581 35.0873 36.0581C33.8801 36.0581 32.9036 34.8972 32.9036 33.4607C32.907 32.0242 33.8834 30.8633 35.0873 30.8633Z" fill="#231F20"/>
<path d="M35.0873 31.0898C36.1875 31.0898 37.0803 32.1509 37.0803 33.4633C37.0803 34.7724 36.1875 35.8368 35.0873 35.8368C33.9871 35.8368 33.0942 34.7758 33.0942 33.4633C33.0942 32.1509 33.9871 31.0898 35.0873 31.0898Z" fill="#D1D3D4"/>
<path d="M35.0873 31.3711C36.057 31.3711 36.8429 32.3046 36.8429 33.4587C36.8429 34.6127 36.057 35.5462 35.0873 35.5462C34.1175 35.5462 33.3316 34.6127 33.3316 33.4587C33.335 32.3081 34.1208 31.3711 35.0873 31.3711Z" fill="#939598"/>
<path d="M35.0873 35.5462C36.055 35.5462 36.8396 34.6116 36.8396 33.4587C36.8396 32.3057 36.055 31.3711 35.0873 31.3711C34.1195 31.3711 33.335 32.3057 33.335 33.4587C33.335 34.6116 34.1195 35.5462 35.0873 35.5462Z" fill="#E6E7E8"/>
<path d="M35.0873 33.6555C35.7327 33.6555 36.3346 33.528 36.8362 33.3145C36.8396 33.3627 36.8429 33.4144 36.8429 33.4626C36.8429 34.6166 36.057 35.5501 35.0873 35.5501C34.1175 35.5501 33.3316 34.6166 33.3316 33.4626C33.3316 33.4109 33.335 33.3627 33.3383 33.3145C33.8433 33.528 34.4419 33.6555 35.0873 33.6555Z" fill="#BCBEC0"/>
<path d="M33.7028 33.8676C33.6025 33.94 33.6192 34.2121 33.7396 34.4739C33.86 34.7357 34.0439 34.8873 34.1442 34.815C34.2446 34.7426 34.2278 34.4705 34.1075 34.2087C33.9871 33.9469 33.8065 33.7953 33.7028 33.8676Z" fill="black"/>
<path d="M36.6857 33.0253C36.7493 32.9427 36.6958 32.6774 36.5687 32.4328C36.4416 32.1882 36.2878 32.0573 36.2242 32.14C36.1607 32.2227 36.2142 32.4879 36.3413 32.7325C36.4684 32.9771 36.6222 33.108 36.6857 33.0253Z" fill="black"/>
<path d="M33.7396 32.4509C33.6192 32.7127 33.6025 32.9848 33.7028 33.0572C33.8031 33.1295 33.9837 32.9779 34.1075 32.7161C34.2278 32.4543 34.2446 32.1822 34.1442 32.1098C34.0439 32.0375 33.8633 32.1891 33.7396 32.4509Z" fill="black"/>
<path d="M35.1508 34.9551C34.9067 34.9551 34.7094 35.0722 34.7094 35.2169C34.7094 35.3616 34.9067 35.4787 35.1508 35.4787C35.3949 35.4787 35.5922 35.3616 35.5922 35.2169C35.5922 35.0722 35.3949 34.9551 35.1508 34.9551Z" fill="black"/>
<path d="M36.3012 34.1911C36.1808 34.4391 36.1373 34.7078 36.2042 34.7871C36.2711 34.8697 36.4182 34.7319 36.5386 34.4839C36.659 34.2359 36.7024 33.9672 36.6356 33.888C36.5687 33.8087 36.4182 33.9431 36.3012 34.1911Z" fill="black"/>
<path d="M35.1508 31.4414C34.9067 31.4414 34.7094 31.5585 34.7094 31.7032C34.7094 31.8479 34.9067 31.965 35.1508 31.965C35.3949 31.965 35.5922 31.8479 35.5922 31.7032C35.5922 31.562 35.3949 31.4414 35.1508 31.4414Z" fill="black"/>
<path d="M35.1943 32.5645C35.609 32.5645 35.9467 32.9641 35.9467 33.4601C35.9467 33.9527 35.609 34.9827 35.1943 34.9827C34.7796 34.9827 34.4419 33.9527 34.4419 33.4601C34.4419 32.9641 34.7796 32.5645 35.1943 32.5645Z" fill="#939598"/>
<mask id="mask4_1668_161" style="mask-type:luminance" maskUnits="userSpaceOnUse" x="34" y="32" width="2" height="3">
<path d="M35.4184 34.3519H35.1943C34.7796 34.3519 34.4419 33.9523 34.4419 33.4562C34.4419 32.9636 34.7796 32.5605 35.1943 32.5605H35.4184C35.0037 32.5605 34.6659 32.9601 34.6659 33.4562C34.6659 33.9523 35.0037 34.3519 35.4184 34.3519Z" fill="white"/>
</mask>
<g mask="url(#mask4_1668_161)">
<path d="M35.4184 34.3532H35.1943C34.7796 34.3532 34.4419 33.9536 34.4419 33.4575C34.4419 33.3473 34.4586 33.2405 34.4887 33.1406H34.7128C34.6827 33.2405 34.6659 33.3439 34.6659 33.4575C34.6659 33.9536 35.0037 34.3532 35.4184 34.3532Z" fill="#231F20"/>
<path d="M34.7161 33.1442H34.4921C34.5221 33.0477 34.569 32.9581 34.6225 32.8789H34.8465C34.7897 32.9581 34.7462 33.0443 34.7161 33.1442Z" fill="#BCBEC0"/>
<path d="M34.8465 32.8779H34.6225C34.7596 32.685 34.9669 32.5645 35.1943 32.5645H35.4184C35.1876 32.5645 34.9836 32.685 34.8465 32.8779Z" fill="#F1F2F2"/>
</g>
<path d="M35.4184 32.5645C35.833 32.5645 36.1708 32.9641 36.1708 33.4601C36.1708 33.9527 35.833 34.3558 35.4184 34.3558C35.0037 34.3558 34.6659 33.9562 34.6659 33.4601C34.6659 32.9641 35.0037 32.5645 35.4184 32.5645Z" fill="white"/>
<path d="M69.9525 27.5742H65.9663C63.4315 27.5742 61.3449 29.8444 61.0539 32.7656H65.6219C65.8159 31.0466 66.7121 29.5929 67.9594 28.8316C69.2067 29.5929 70.1063 31.0466 70.2969 32.7656H74.8649C74.5773 29.8444 72.4873 27.5742 69.9525 27.5742Z" fill="#58595B"/>
<mask id="mask5_1668_161" style="mask-type:luminance" maskUnits="userSpaceOnUse" x="63" y="29" width="6" height="9">
<path d="M68.15 37.312H66.2773C64.4883 37.312 63.0403 35.5862 63.0403 33.4607C63.0403 31.3352 64.4883 29.6094 66.2773 29.6094H68.15C66.3609 29.6094 64.913 31.3352 64.913 33.4607C64.9096 35.5862 66.3609 37.312 68.15 37.312Z" fill="white"/>
</mask>
<g mask="url(#mask5_1668_161)">
<path d="M64.9096 33.4574C64.9096 33.2507 64.923 33.0475 64.9497 32.8477H63.0771C63.0503 33.0475 63.0369 33.2507 63.0369 33.4574C63.0369 35.5863 64.4849 37.3087 66.274 37.3087H68.1467C66.3609 37.3122 64.9096 35.5863 64.9096 33.4574Z" fill="black"/>
<path d="M63.8128 30.959C63.572 31.2931 63.3814 31.679 63.2476 32.0958C63.1707 32.3369 63.1172 32.5884 63.0804 32.8468H64.9531C64.9865 32.5849 65.0434 32.3335 65.1203 32.0958C65.2541 31.6755 65.4447 31.2931 65.6854 30.959H63.8128Z" fill="black"/>
<path d="M64.4381 30.2871C64.2074 30.4766 63.9967 30.7039 63.8128 30.9589H65.6854C65.8694 30.7039 66.08 30.4766 66.3108 30.2871H64.4381Z" fill="black"/>
<path d="M68.15 29.6055H66.2773C65.5951 29.6055 64.9598 29.8569 64.4381 30.2875H66.3108C66.8324 29.8569 67.4645 29.6055 68.15 29.6055Z" fill="black"/>
</g>
<path d="M68.0764 29.6074C69.9056 29.6074 71.3871 31.3333 71.3871 33.4587C71.3871 35.5877 69.9056 37.3101 68.0764 37.3101C66.2472 37.3101 64.7658 35.5842 64.7658 33.4587C64.7658 31.3333 66.2472 29.6074 68.0764 29.6074Z" fill="#939598"/>
<path d="M68.15 29.6074C69.9391 29.6074 71.3871 31.3333 71.3871 33.4587C71.3871 35.5877 69.9391 37.3101 68.15 37.3101C66.361 37.3101 64.913 35.5842 64.913 33.4587C64.9096 31.3333 66.361 29.6074 68.15 29.6074Z" fill="#414042"/>
<mask id="mask6_1668_161" style="mask-type:luminance" maskUnits="userSpaceOnUse" x="65" y="29" width="6" height="9">
<path d="M70.1431 37.312H68.2704C66.4813 37.312 65.0334 35.5862 65.0334 33.4607C65.0334 31.3352 66.4813 29.6094 68.2704 29.6094H70.1431C68.354 29.6094 66.906 31.3352 66.906 33.4607C66.9027 35.5862 68.354 37.312 70.1431 37.312Z" fill="white"/>
</mask>
<g mask="url(#mask6_1668_161)">
<path d="M66.9027 33.4574C66.9027 33.2507 66.9161 33.0475 66.9428 32.8477H65.0701C65.0434 33.0475 65.03 33.2507 65.03 33.4574C65.03 35.5863 66.478 37.3087 68.2671 37.3087H70.1397C68.354 37.3122 66.9027 35.5863 66.9027 33.4574Z" fill="black"/>
<path d="M65.8058 30.959C65.5651 31.2931 65.3745 31.679 65.2407 32.0958C65.1638 32.3369 65.1103 32.5884 65.0735 32.8468H66.9462C66.9796 32.5849 67.0365 32.3335 67.1134 32.0958C67.2471 31.6755 67.4377 31.2931 67.6785 30.959H65.8058Z" fill="black"/>
<path d="M66.4312 30.2871C66.2004 30.4766 65.9898 30.7039 65.8058 30.9589H67.6785C67.8624 30.7039 68.0731 30.4766 68.3038 30.2871H66.4312Z" fill="black"/>
<path d="M70.1431 29.6055H68.2704C67.5882 29.6055 66.9528 29.8569 66.4312 30.2875H68.3038C68.8255 29.8569 69.4575 29.6055 70.1431 29.6055Z" fill="black"/>
</g>
<path d="M70.0695 29.6074C71.8987 29.6074 73.3801 31.3333 73.3801 33.4587C73.3801 35.5877 71.8987 37.3101 70.0695 37.3101C68.2403 37.3101 66.7589 35.5842 66.7589 33.4587C66.7589 31.3333 68.2403 29.6074 70.0695 29.6074Z" fill="#939598"/>
<path d="M70.1431 29.6074C71.9322 29.6074 73.3801 31.3333 73.3801 33.4587C73.3801 35.5877 71.9322 37.3101 70.1431 37.3101C68.354 37.3101 66.906 35.5842 66.906 33.4587C66.9027 31.3333 68.354 29.6074 70.1431 29.6074Z" fill="#414042"/>
<path d="M70.1431 30.8633C71.3503 30.8633 72.3268 32.0242 72.3268 33.4607C72.3268 34.8937 71.3503 36.0581 70.1431 36.0581C68.9359 36.0581 67.9594 34.8972 67.9594 33.4607C67.9594 32.0242 68.9359 30.8633 70.1431 30.8633Z" fill="#231F20"/>
<path d="M70.1431 31.0898C71.2433 31.0898 72.1361 32.1509 72.1361 33.4633C72.1361 34.7724 71.2433 35.8368 70.1431 35.8368C69.0429 35.8368 68.15 34.7758 68.15 33.4633C68.1467 32.1509 69.0395 31.0898 70.1431 31.0898Z" fill="#D1D3D4"/>
<path d="M70.1431 31.3711C71.1128 31.3711 71.8987 32.3046 71.8987 33.4587C71.8987 34.6127 71.1128 35.5462 70.1431 35.5462C69.1733 35.5462 68.3874 34.6127 68.3874 33.4587C68.3874 32.3081 69.1733 31.3711 70.1431 31.3711Z" fill="#939598"/>
<path d="M69.7652 31.4238C68.976 31.6271 68.3874 32.4642 68.3874 33.4632C68.3874 34.4622 68.9793 35.2958 69.7652 35.5025C70.5544 35.2993 71.1429 34.4622 71.1429 33.4632C71.1463 32.4607 70.5544 31.6271 69.7652 31.4238Z" fill="#6D6E71"/>
<path d="M69.7318 35.2537C69.7919 35.3812 70.0193 35.3605 70.24 35.209C70.4608 35.0574 70.5878 34.8335 70.5276 34.706C70.4674 34.5785 70.24 34.5992 70.0193 34.7508C69.7986 34.9058 69.6716 35.1297 69.7318 35.2537ZM70.6447 33.459C70.6447 33.7621 70.745 34.0067 70.8654 34.0067C70.9858 34.0067 71.0861 33.7621 71.0861 33.459C71.0861 33.1558 70.9858 32.9112 70.8654 32.9112C70.745 32.9147 70.6447 33.1593 70.6447 33.459ZM69.7318 31.6677C69.6716 31.7951 69.7986 32.019 70.0193 32.1706C70.24 32.3222 70.4674 32.3429 70.5276 32.2154C70.5878 32.0879 70.4608 31.864 70.24 31.7124C70.0193 31.5609 69.7919 31.5402 69.7318 31.6677Z" fill="black"/>
<path d="M70.1431 33.2658C70.7885 33.2658 71.3904 33.3932 71.892 33.6068C71.8954 33.5586 71.8987 33.5069 71.8987 33.4587C71.8987 32.3046 71.1128 31.3711 70.1431 31.3711C69.1733 31.3711 68.3874 32.3046 68.3874 33.4587C68.3874 33.5103 68.3908 33.5586 68.3941 33.6068C68.8957 33.3932 69.4977 33.2658 70.1431 33.2658Z" fill="#939598"/>
<path d="M69.3906 32.5645C69.8053 32.5645 70.1431 32.9641 70.1431 33.4601C70.1431 33.9527 69.8053 34.9827 69.3906 34.9827C68.976 34.9827 68.6382 33.9527 68.6382 33.4601C68.6382 32.9641 68.976 32.5645 69.3906 32.5645Z" fill="#939598"/>
<mask id="mask7_1668_161" style="mask-type:luminance" maskUnits="userSpaceOnUse" x="68" y="32" width="3" height="3">
<path d="M70.1431 34.3519H69.3906C68.976 34.3519 68.6382 33.9523 68.6382 33.4562C68.6382 32.9636 68.976 32.5605 69.3906 32.5605H70.1431C69.7284 32.5605 69.3906 32.9601 69.3906 33.4562C69.3906 33.9523 69.7284 34.3519 70.1431 34.3519Z" fill="white"/>
</mask>
<g mask="url(#mask7_1668_161)">
<path d="M70.1431 34.3532H69.3906C68.976 34.3532 68.6382 33.9536 68.6382 33.4575C68.6382 33.3473 68.655 33.2405 68.685 33.1406H69.4375C69.4074 33.2405 69.3906 33.3439 69.3906 33.4575C69.3906 33.9536 69.7284 34.3532 70.1431 34.3532Z" fill="#231F20"/>
<path d="M69.4375 33.1442H68.685C68.7151 33.0477 68.762 32.9581 68.8155 32.8789H69.5679C69.5144 32.9581 69.4709 33.0443 69.4375 33.1442Z" fill="#939598"/>
<path d="M69.5712 32.8779H68.8188C68.9559 32.685 69.1633 32.5645 69.3907 32.5645H70.1431C69.9123 32.5645 69.7083 32.685 69.5712 32.8779Z" fill="#939598"/>
</g>
<path d="M70.1431 32.5645C70.5577 32.5645 70.8955 32.9641 70.8955 33.4601C70.8955 33.9527 70.5577 34.3558 70.1431 34.3558C69.7284 34.3558 69.3906 33.9562 69.3906 33.4601C69.3906 32.9641 69.7284 32.5645 70.1431 32.5645Z" fill="white"/>
<path d="M12.0199 22.0669C11.4581 22.0669 11 21.595 11 21.0163V19.6073C11 19.0286 11.4581 18.5566 12.0199 18.5566C12.5817 18.5566 13.0399 19.0286 13.0399 19.6073V21.0163C13.0399 21.595 12.5817 22.0669 12.0199 22.0669Z" fill="black"/>
<path d="M11.9698 22.0669C11.4347 22.0669 11 21.6191 11 21.0679V19.5556C11 19.0045 11.4347 18.5566 11.9698 18.5566C12.5048 18.5566 12.9396 19.0045 12.9396 19.5556V21.0679C12.9396 21.6191 12.5048 22.0669 11.9698 22.0669Z" fill="#D1D3D4"/>
<path d="M14.8223 24.9456C14.7989 24.9456 14.7788 24.9387 14.7587 24.925L12.5316 23.3576C12.1102 23.0613 11.8594 22.5687 11.8594 22.0451V18.521C11.8594 17.8872 12.2975 17.3429 12.9028 17.2223L17.9289 16.2302C17.9891 16.2199 18.0493 16.2578 18.0593 16.3232C18.0694 16.3887 18.0326 16.4472 17.969 16.4576L12.9429 17.4497C12.4446 17.5496 12.0835 17.9974 12.0835 18.521V22.0451C12.0835 22.4929 12.2975 22.9132 12.6587 23.1681L14.8858 24.7355C14.936 24.7699 14.9493 24.8423 14.9159 24.8974C14.8925 24.9284 14.8591 24.9456 14.8223 24.9456Z" fill="black"/>
<path d="M14.8223 24.8318L12.5951 23.2644C12.2039 22.9889 11.9698 22.5341 11.9698 22.0484V18.5209C11.9698 17.9422 12.3677 17.4461 12.9195 17.3359L17.9456 16.3438H18.056C18.056 16.3369 18.056 16.33 18.056 16.3231C18.0459 16.2611 17.9857 16.2198 17.9256 16.2301L12.8994 17.2222C12.2942 17.3428 11.8561 17.8871 11.8561 18.5209V22.045C11.8561 22.572 12.1069 23.0612 12.5282 23.3575L14.7554 24.9249C14.7754 24.9386 14.7955 24.9455 14.8189 24.9455C14.859 24.9455 14.8223 24.8318 14.8223 24.8318Z" fill="#414042"/>
<path d="M29.272 32.2186C29.272 29.9519 31.0577 28.1123 33.2581 28.1123H38.7591V22.6075L37.9799 16.1932C37.9164 15.6696 37.485 15.2734 36.97 15.2734H20.5406C14.8624 15.2734 13.4646 24.5331 13.4646 24.5331V32.7663H29.272V32.2186Z" fill="#D1D3D4"/>
<path d="M30.0578 31.1683C30.0578 29.4804 31.3887 28.1093 33.0273 28.1093H39.5449V22.9076L38.5116 15.8078C38.4681 15.5013 38.2106 15.2773 37.913 15.2773H30.6196C25.3594 15.2773 24.7876 24.537 24.7876 24.537V32.7702H30.0545V31.1683H30.0578Z" fill="#A7A9AC"/>
<path d="M39.5315 22.8284L38.5116 15.8078C38.4681 15.5013 38.214 15.2773 37.913 15.2773H30.6196C26.8007 15.2773 25.453 20.1552 25.0016 22.8319H39.5315V22.8284Z" fill="#E6E7E8"/>
<path d="M29.2552 30.3926H26.3727V32.1667H29.2552V30.3926Z" fill="#BCBEC0"/>
<path d="M28.3557 30.3926H26.3727V32.1667H28.3557V30.3926Z" fill="#BCBEC0"/>
<path d="M28.3557 31.0953H26.3727V30.3926H29.2552L28.3557 31.0953Z" fill="#939598"/>
<path d="M35.2244 28.1113V22.9062L34.3951 16.6159C34.3583 16.3541 34.1376 16.1543 33.8801 16.1543H30.6664C28.155 16.1543 26.8408 18.8482 26.1787 21.1114C26.0382 21.5868 25.968 22.076 25.968 22.5651V32.7687H26.0249V29.4479H31.275V29.3893H26.0249V22.5617C26.0249 22.0794 26.0951 21.5971 26.2322 21.1252C26.8876 18.8826 28.1885 16.2094 30.6664 16.2094H33.8801C34.1108 16.2094 34.3081 16.3851 34.3382 16.6193L35.1675 22.9062V28.1079H35.2244V28.1113Z" fill="black"/>
<path d="M34.1209 27.5742C31.6262 27.5742 29.603 29.6583 29.603 32.2282V32.7656H30.5494V32.2179C30.5494 29.9512 32.3351 28.1116 34.5355 28.1116H40.4278V27.5742H34.1209Z" fill="#D1D3D4"/>
<path d="M34.8365 27.5742C32.3418 27.5742 30.3187 29.6583 30.3187 32.2282V32.7656H30.9407V32.2179C30.9407 29.9512 32.7264 28.1116 34.9268 28.1116H40.4278V27.5742H34.8365Z" fill="#939598"/>
<path d="M24.1054 29.0078H14.1434V31.0954H24.1054V29.0078Z" fill="black"/>
<path d="M24.9414 15.2786H23.4232V13.8594H24.7675C24.8611 13.8594 24.9414 13.9386 24.9414 14.0385V15.2786Z" fill="black"/>
<path d="M24.6806 13.8594H23.4232V15.2786H24.6806V13.8594Z" fill="#231F20"/>
<path d="M24.5334 15.1522H23.4232C23.3496 15.1522 23.2861 15.0902 23.2861 15.0109V14.1256C23.2861 14.0498 23.3463 13.9844 23.4232 13.9844H24.5334V15.1522Z" fill="#009444"/>
<path d="M24.5334 15.1522H24.4766C24.403 15.1522 24.3394 15.0902 24.3394 15.0109V14.1256C24.3394 14.0498 24.3996 13.9844 24.4766 13.9844H24.5334V15.1522Z" fill="#006838"/>
<path d="M27.9778 15.2786H26.4596V13.8594H27.8039C27.8976 13.8594 27.9778 13.9386 27.9778 14.0385V15.2786Z" fill="black"/>
<path d="M27.717 13.8594H26.4596V15.2786H27.717V13.8594Z" fill="#231F20"/>
<path d="M27.5698 15.1522H26.4596C26.386 15.1522 26.3225 15.0902 26.3225 15.0109V14.1256C26.3225 14.0498 26.3827 13.9844 26.4596 13.9844H27.5698V15.1522Z" fill="#009444"/>
<path d="M27.5698 15.1522H27.513C27.4394 15.1522 27.3759 15.0902 27.3759 15.0109V14.1256C27.3759 14.0498 27.4361 13.9844 27.513 13.9844H27.5698V15.1522Z" fill="#006838"/>
<path d="M31.0108 15.2786H29.4926V13.8594H30.8369C30.9306 13.8594 31.0108 13.9386 31.0108 14.0385V15.2786Z" fill="black"/>
<path d="M30.7533 13.8594H29.496V15.2786H30.7533V13.8594Z" fill="#231F20"/>
<path d="M30.6062 15.1522H29.496C29.4224 15.1522 29.3589 15.0902 29.3589 15.0109V14.1256C29.3589 14.0498 29.419 13.9844 29.496 13.9844H30.6062V15.1522Z" fill="#009444"/>
<path d="M30.6062 15.1522H30.5493C30.4758 15.1522 30.4122 15.0902 30.4122 15.0109V14.1256C30.4122 14.0498 30.4724 13.9844 30.5493 13.9844H30.6062V15.1522Z" fill="#006838"/>
<path d="M34.0473 15.2786H32.5291V13.8594H33.8734C33.967 13.8594 34.0473 13.9386 34.0473 14.0385V15.2786Z" fill="black"/>
<path d="M33.7898 13.8594H32.5324V15.2786H33.7898V13.8594Z" fill="#231F20"/>
<path d="M33.6426 15.1522H32.5324C32.4588 15.1522 32.3953 15.0902 32.3953 15.0109V14.1256C32.3953 14.0498 32.4555 13.9844 32.5324 13.9844H33.6426V15.1522Z" fill="#009444"/>
<path d="M33.6426 15.1522H33.5858C33.5122 15.1522 33.4487 15.0902 33.4487 15.0109V14.1256C33.4487 14.0498 33.5089 13.9844 33.5858 13.9844H33.6426V15.1522Z" fill="#006838"/>
<path d="M25.1889 24.5324C25.1889 24.5324 25.5333 18.9414 28.1551 16.4508C28.2554 16.3578 28.1851 16.1855 28.0514 16.1855H17.7015C14.3708 18.5143 13.4612 24.5324 13.4612 24.5324V24.6667H24.8578C24.9815 24.6667 25.1019 24.6185 25.1889 24.5324Z" fill="black"/>
<path d="M24.9916 30.1682H13.4612V27.5742H24.9916C25.1554 27.5742 25.2858 27.712 25.2858 27.8774V29.865C25.2892 30.0338 25.1554 30.1682 24.9916 30.1682Z" fill="#231F20"/>
<path d="M24.9916 30.1682H24.7876V27.5742H24.9916C25.1554 27.5742 25.2858 27.712 25.2858 27.8774V29.865C25.2892 30.0338 25.1554 30.1682 24.9916 30.1682Z" fill="black"/>
<path d="M25.2892 33.4845H13.3442C12.8526 33.4845 12.4547 33.0746 12.4547 32.5682V30.3945H25.2892V33.4845Z" fill="#D1D3D4"/>
<path d="M12.4915 32.8242C12.5985 33.2066 12.9396 33.4822 13.3442 33.4822H25.2858V32.8242H12.4915Z" fill="#808285"/>
<path d="M25.2892 33.4845H24.6505C24.1589 33.4845 23.761 33.0746 23.761 32.5682V30.3945H25.2925V33.4845H25.2892Z" fill="#939598"/>
<path d="M17.0093 17.0881C15.3038 18.9311 14.431 21.7317 14.0464 23.3198H24.5434C24.7775 21.7111 25.3794 18.8587 26.8542 17.0158C26.9779 16.8607 26.8709 16.623 26.6769 16.623H18.076C17.6747 16.6265 17.2868 16.7884 17.0093 17.0881Z" fill="#6D6E71"/>
<path d="M33.7062 17.0748C33.6694 16.8164 33.452 16.627 33.2012 16.627H31.0376C28.563 16.627 27.2522 19.2485 26.5767 21.5634C26.4395 22.0319 26.3693 22.5176 26.3693 23.0068V23.8163C26.3693 24.2883 26.7405 24.6672 27.1953 24.6672H28.3223C28.7302 24.6672 29.1081 24.4433 29.3121 24.0781L29.4358 23.8542C29.8639 23.0826 30.6598 22.6072 31.5225 22.6072H33.9336C34.2479 22.6072 34.4854 22.3213 34.4385 22.0009L33.7062 17.0748Z" fill="#3C2415"/>
<path d="M26.6769 16.627H18.076C17.6747 16.627 17.2868 16.7889 17.0093 17.0886C15.3038 18.9315 14.431 21.7322 14.0464 23.3203H14.839V23.0791C14.839 22.6106 14.9092 22.1456 15.0463 21.6977C15.7218 19.4827 17.0327 16.9749 19.5073 16.9749H21.4435C21.8013 16.9749 22.0822 17.278 22.0488 17.6294L21.6308 22.149C21.6007 22.4591 21.3398 22.6933 21.0255 22.6933H19.9955C19.3835 22.6933 18.805 22.9241 18.3669 23.3203H24.5434C24.5702 23.1342 24.6036 22.931 24.6404 22.714H23.4466C23.0419 22.714 22.7276 22.3729 22.761 21.9768L23.1623 17.5915C23.1958 17.2436 23.49 16.9749 23.8479 16.9749H25.2323C25.6369 16.9749 25.9513 17.3159 25.9178 17.7121L25.8242 18.7249C26.1084 18.1117 26.4495 17.5261 26.8542 17.0197C26.9779 16.8612 26.8709 16.627 26.6769 16.627Z" fill="#3C2415"/>
<path d="M15.2603 29.7715H13.4612V28.0215H14.7353C15.0196 28.0215 15.2771 28.1903 15.3975 28.4521L15.685 29.0756C15.8355 29.3994 15.6081 29.7715 15.2603 29.7715Z" fill="#BCBEC0"/>
<path d="M13.5917 29.5196H13.4612V28.3242H13.5917C13.7421 28.3242 13.8625 28.4482 13.8625 28.6033V29.2405C13.8625 29.3956 13.7421 29.5196 13.5917 29.5196Z" fill="#FBB040"/>
<path d="M14.7353 28.2617C15.0396 28.2617 15.2871 28.5545 15.2871 28.9197C15.2871 29.2814 15.0396 29.5776 14.7353 29.5776C14.431 29.5776 14.1836 29.2848 14.1836 28.9197C14.1836 28.5545 14.431 28.2617 14.7353 28.2617Z" fill="#E6E7E8"/>
<path d="M14.7353 28.2617C14.7855 28.2617 14.829 28.2721 14.8758 28.2858C14.6384 28.3582 14.4645 28.6131 14.4645 28.9197C14.4645 29.2263 14.6384 29.4777 14.8758 29.5535C14.8323 29.5673 14.7855 29.5776 14.7353 29.5776C14.431 29.5776 14.1836 29.2848 14.1836 28.9197C14.1836 28.5545 14.431 28.2617 14.7353 28.2617Z" fill="white"/>
<path d="M24.9347 29.7715H24.3963V28.0215H24.9347C25.0518 28.0215 25.1487 28.1214 25.1487 28.242V29.5544C25.1487 29.675 25.0518 29.7715 24.9347 29.7715Z" fill="#939598"/>
<path d="M25.1487 28.3242H24.7207V29.5196H25.1487V28.3242Z" fill="#F7941D"/>
<path d="M22.9918 29.7715H24.7876V28.0215H23.5135C23.2293 28.0215 22.9718 28.1903 22.8514 28.4521L22.5638 29.0756C22.4166 29.3994 22.644 29.7715 22.9918 29.7715Z" fill="#BCBEC0"/>
<path d="M24.6605 29.5196H24.7909V28.3242H24.6605C24.51 28.3242 24.3896 28.4482 24.3896 28.6033V29.2405C24.3896 29.3956 24.51 29.5196 24.6605 29.5196Z" fill="#FBB040"/>
<path d="M23.5168 28.2617C23.8211 28.2617 24.0686 28.5545 24.0686 28.9197C24.0686 29.2814 23.8211 29.5776 23.5168 29.5776C23.2125 29.5776 22.9651 29.2848 22.9651 28.9197C22.9651 28.5545 23.2125 28.2617 23.5168 28.2617Z" fill="#E6E7E8"/>
<path d="M23.5168 28.2617C23.567 28.2617 23.6105 28.2721 23.6573 28.2858C23.4199 28.3582 23.246 28.6131 23.246 28.9197C23.246 29.2263 23.4199 29.4777 23.6573 29.5535C23.6138 29.5673 23.567 29.5776 23.5168 29.5776C23.2125 29.5776 22.9651 29.2848 22.9651 28.9197C22.9651 28.5545 23.2125 28.2617 23.5168 28.2617Z" fill="white"/>
<path d="M23.0955 26.1103H15.1567C14.9259 26.1103 14.7353 25.9174 14.7353 25.6762C14.7353 25.4385 14.9226 25.2422 15.1567 25.2422H23.0988C23.3296 25.2422 23.5202 25.4351 23.5202 25.6762C23.5168 25.9139 23.3296 26.1103 23.0955 26.1103Z" fill="black"/>
<path d="M21.9752 27.9297H16.2736V28.4464H21.9752V27.9297Z" fill="#414042"/>
<path d="M21.9752 28.6152H16.2736V29.132H21.9752V28.6152Z" fill="#414042"/>
<path d="M21.9752 29.2969H16.2736V29.8136H21.9752V29.2969Z" fill="#414042"/>
<path d="M21.9785 27.9297H16.4608V28.4464H21.9785V27.9297Z" fill="black"/>
<path d="M21.9785 28.6152H16.4608V29.132H21.9785V28.6152Z" fill="black"/>
<path d="M21.9785 29.2969H16.4608V29.8136H21.9785V29.2969Z" fill="black"/>
<path d="M26.58 21.5643C26.4429 22.0328 26.3726 22.5185 26.3726 23.0077V23.8172C26.3726 24.1652 26.5733 24.4614 26.8642 24.5958L27.1919 20.7376C27.2087 20.5274 27.1585 20.3345 27.0615 20.1761C26.8742 20.6342 26.7137 21.1027 26.58 21.5643ZM32.3418 19.773C32.4722 19.6283 32.5591 19.4423 32.5759 19.2391L32.6361 18.5363C32.6762 18.0747 32.3451 17.7027 31.897 17.7027H29.8404C29.3923 17.7027 28.9977 18.0747 28.9609 18.5363L28.9007 19.2391C28.884 19.4423 28.9375 19.6283 29.0445 19.773C28.553 19.8075 28.135 20.2243 28.0915 20.7341L27.7571 24.6681H28.3256C28.7335 24.6681 29.1114 24.4442 29.3154 24.079L29.4391 23.8551C29.8672 23.0835 30.6631 22.6081 31.5258 22.6081H32.9738L33.1343 20.7376C33.1778 20.2243 32.8267 19.8075 32.3418 19.773ZM23.898 17.7027C23.4499 17.7027 23.0553 18.0747 23.0185 18.5363L22.9583 19.2391C22.9416 19.4423 22.9951 19.6283 23.1021 19.773C22.6106 19.8075 22.1926 20.2243 22.1491 20.7341L21.9284 23.3212H24.5434C24.7474 21.9226 25.229 19.587 26.3158 17.7922C26.2088 17.7337 26.0884 17.6992 25.9546 17.6992H23.898V17.7027Z" fill="#754C29"/>
<path d="M16.4107 22.0664C15.6048 22.0664 14.9192 22.59 14.6517 23.3238H24.5434C24.5969 22.9586 24.6672 22.5315 24.7641 22.0664H16.4107Z" fill="#A97C50"/>
<g opacity="0.5">
<path d="M26.677 16.625H18.076C17.6748 16.625 17.2868 16.7869 17.0093 17.0866C15.3038 18.9296 14.431 21.7302 14.0464 23.3183H16.822C17.8687 19.6909 22.1591 19.4222 25.4664 19.5634C25.8109 18.6471 26.259 17.7515 26.8475 17.0143C26.9779 16.8592 26.8709 16.625 26.677 16.625Z" fill="white"/>
<path d="M33.2012 16.625H31.0376C28.563 16.625 27.2521 19.2465 26.5766 21.5614C26.4395 22.0299 26.3693 22.5157 26.3693 23.0048V23.8144C26.3693 24.2863 26.7405 24.6652 27.1953 24.6652H27.6133C28.3289 22.712 29.0479 20.59 30.9038 19.7391C31.9271 19.3189 32.9905 19.3223 34.0473 19.3671L33.7062 17.0728C33.6694 16.8145 33.4554 16.625 33.2012 16.625Z" fill="white"/>
</g>
<path d="M34.1476 24.833H32.8334C32.6662 24.833 32.5324 24.6952 32.5324 24.5229C32.5324 24.3507 32.6662 24.2129 32.8334 24.2129H34.1476C34.3148 24.2129 34.4486 24.3507 34.4486 24.5229C34.4452 24.6952 34.3115 24.833 34.1476 24.833Z" fill="#939598"/>
<path d="M34.482 24.833H33.1678C33.0006 24.833 32.8668 24.6952 32.8668 24.5229C32.8668 24.3507 33.0006 24.2129 33.1678 24.2129H34.482C34.6492 24.2129 34.783 24.3507 34.783 24.5229C34.783 24.6952 34.6459 24.833 34.482 24.833Z" fill="white"/>
<path d="M37.3679 16.627H35.7427C35.3983 16.627 35.1341 16.9439 35.1876 17.2918L35.9099 22.1352C35.9534 22.4177 36.1875 22.6278 36.465 22.6278H38.0902C38.4347 22.6278 38.6989 22.3109 38.6454 21.963L37.923 17.1196C37.8829 16.8371 37.6455 16.627 37.3679 16.627Z" fill="black"/>
<path d="M28.3256 24.7257H27.1986C26.7104 24.7257 26.3158 24.3192 26.3158 23.8163V23.0067C26.3158 22.5141 26.386 22.025 26.5265 21.5461C27.1886 19.276 28.5095 16.5684 31.041 16.5684H33.2046C33.4855 16.5684 33.7229 16.775 33.763 17.0644L34.4954 21.9905C34.5221 22.1593 34.472 22.3316 34.365 22.459C34.2579 22.5899 34.1008 22.6623 33.9336 22.6623H31.5225C30.6831 22.6623 29.9006 23.1273 29.4826 23.8783L29.3589 24.1022C29.1482 24.488 28.7503 24.7257 28.3256 24.7257ZM31.0376 16.6855C28.5764 16.6855 27.2822 19.3483 26.6301 21.5806C26.493 22.0491 26.4228 22.5279 26.4228 23.0102V23.8197C26.4228 24.2572 26.7672 24.612 27.1919 24.612H28.3189C28.7068 24.612 29.0646 24.3985 29.2586 24.0505L29.3823 23.8266C29.8204 23.0412 30.6397 22.552 31.5192 22.552H33.9302C34.064 22.552 34.1877 22.4935 34.2747 22.3901C34.3616 22.2868 34.3984 22.149 34.3783 22.0146L33.646 17.0885C33.6125 16.8577 33.4219 16.6924 33.1979 16.6924H31.0376V16.6855Z" fill="black"/>
<path d="M28.7503 16.5376C28.6867 16.5376 28.6366 16.4859 28.6366 16.4204V16.2206C28.6366 16.1552 28.6867 16.1035 28.7503 16.1035C28.8138 16.1035 28.864 16.1552 28.864 16.2206V16.4239C28.864 16.4859 28.8138 16.5376 28.7503 16.5376Z" fill="black"/>
<path d="M25.6168 25.0742C25.5533 25.0742 25.5031 25.0225 25.5031 24.9571V24.7538C25.5031 24.6884 25.5533 24.6367 25.6168 24.6367C25.6804 24.6367 25.7305 24.6884 25.7305 24.7538V24.9571C25.7272 25.0225 25.677 25.0742 25.6168 25.0742Z" fill="black"/>
<path d="M22.7777 22.0689C22.2159 22.0689 21.7578 21.5969 21.7578 21.0182V19.6093C21.7578 19.0305 22.2159 18.5586 22.7777 18.5586C23.3395 18.5586 23.7977 19.0305 23.7977 19.6093V21.0182C23.7977 21.5969 23.3429 22.0689 22.7777 22.0689Z" fill="black"/>
<path d="M22.7276 22.0689C22.1925 22.0689 21.7578 21.621 21.7578 21.0699V19.5576C21.7578 19.0064 22.1925 18.5586 22.7276 18.5586C23.2626 18.5586 23.6973 19.0064 23.6973 19.5576V21.0699C23.6973 21.621 23.2626 22.0689 22.7276 22.0689Z" fill="#D1D3D4"/>
<path d="M25.5801 24.9476C25.5567 24.9476 25.5366 24.9407 25.5166 24.9269L23.2894 23.3595C22.8681 23.0633 22.6172 22.5706 22.6172 22.047V18.523C22.6172 17.8891 23.0553 17.3448 23.6606 17.2243L28.6867 16.2322C28.7469 16.2218 28.8071 16.2597 28.8171 16.3252C28.8272 16.3872 28.7904 16.4492 28.7268 16.4595L23.7007 17.4516C23.2025 17.5515 22.8413 17.9994 22.8413 18.523V22.047C22.8413 22.4949 23.0553 22.9151 23.4165 23.17L25.6436 24.7374C25.6938 24.7719 25.7072 24.8442 25.6737 24.8994C25.6537 24.9304 25.6169 24.9476 25.5801 24.9476Z" fill="black"/>
<path d="M25.5801 24.8338L23.3529 23.2664C22.9617 22.9908 22.7276 22.5361 22.7276 22.0504V18.5229C22.7276 17.9441 23.1255 17.4481 23.6773 17.3378L28.7034 16.3457H28.8138C28.8138 16.3388 28.8138 16.332 28.8138 16.3251C28.8038 16.2631 28.7436 16.2217 28.6834 16.2321L23.6572 17.2242C23.052 17.3447 22.6139 17.889 22.6139 18.5229V22.0469C22.6139 22.574 22.8647 23.0632 23.286 23.3594L25.5132 24.9268C25.5333 24.9406 25.5533 24.9475 25.5767 24.9475C25.6169 24.9475 25.5801 24.8338 25.5801 24.8338Z" fill="#414042"/>
<path d="M41.1166 27.5742V32.7656H65.4748C65.7523 30.0028 67.6651 27.8636 69.9859 27.8636C72.3067 27.8636 74.2195 30.0028 74.4971 32.7656H78.1053C80.8876 32.7656 83.1448 30.4403 83.1448 27.5742H41.1166Z" fill="#A7A9AC"/>
<path d="M65.6219 32.7656C65.9062 30.2233 67.7354 28.2597 69.9525 28.2597C72.1696 28.2597 73.9988 30.2233 74.283 32.7656H74.8616C74.574 29.8444 72.4839 27.5742 69.9491 27.5742C67.4143 27.5742 65.3276 29.8444 65.0367 32.7656H65.6219Z" fill="#F1F2F2"/>
<path d="M65.6219 32.7656C65.9062 30.2233 67.7354 28.2597 69.9525 28.2597C72.1696 28.2597 73.9988 30.2233 74.283 32.7656H74.8616C74.574 29.8444 72.4839 27.5742 69.9491 27.5742C67.4143 27.5742 65.3276 29.8444 65.0367 32.7656H65.6219Z" fill="#F1F2F2"/>
<path d="M45.2733 27.5738H41.1166L39.7088 17.7285H41.8122L45.2733 27.5738Z" fill="#E6E7E8"/>
<path d="M48.8414 31.3496V31.7699H47.7278V31.3496H47.5673V31.9525H49.0019V31.3496H48.8414Z" fill="#939598"/>
<path d="M47.5671 31.3887H49.6237V30.8995H47.5671V31.3887Z" fill="black"/>
<path d="M48.2037 31.3887H49.6249V30.8995H48.2037V31.3887Z" fill="#231F20"/>
<path d="M48.283 31.3022H48.5906C48.6207 31.3022 48.6441 31.2781 48.6441 31.2471V31.0473C48.6441 31.0163 48.6207 30.9922 48.5906 30.9922H48.283V31.3022Z" fill="#FBB040"/>
<path d="M48.283 31.3022H48.3064C48.3365 31.3022 48.3599 31.2781 48.3599 31.2471V31.0473C48.3599 31.0163 48.3365 30.9922 48.3064 30.9922H48.283V31.3022Z" fill="#F7941D"/>
<path d="M49.2862 31.3022H49.5938C49.6239 31.3022 49.6473 31.2781 49.6473 31.2471V31.0473C49.6473 31.0163 49.6239 30.9922 49.5938 30.9922H49.2862V31.3022Z" fill="#FBB040"/>
<path d="M49.2862 31.3022H49.3096C49.3397 31.3022 49.3631 31.2781 49.3631 31.2471V31.0473C49.3631 31.0163 49.3397 30.9922 49.3096 30.9922H49.2862V31.3022Z" fill="#F7941D"/>
<path d="M50.5636 32.2353H45.6445V28.5527H50.5636V32.2353ZM45.7013 32.1733H50.5034V28.6113H45.7013V32.1733Z" fill="black"/>
<path d="M54.3725 31.3496V31.7699H53.2589V31.3496H53.0984V31.9525H54.533V31.3496H54.3725Z" fill="#939598"/>
<path d="M53.0982 31.3887H55.1548V30.8995H53.0982V31.3887Z" fill="black"/>
<path d="M53.7348 31.3887H55.156V30.8995H53.7348V31.3887Z" fill="#231F20"/>
<path d="M53.814 31.3022H54.1217C54.1518 31.3022 54.1752 31.2781 54.1752 31.2471V31.0473C54.1752 31.0163 54.1518 30.9922 54.1217 30.9922H53.814V31.3022Z" fill="#FBB040"/>
<path d="M53.814 31.3022H53.8374C53.8675 31.3022 53.8909 31.2781 53.8909 31.2471V31.0473C53.8909 31.0163 53.8675 30.9922 53.8374 30.9922H53.814V31.3022Z" fill="#F7941D"/>
<path d="M54.8172 31.3022H55.1249C55.155 31.3022 55.1784 31.2781 55.1784 31.2471V31.0473C55.1784 31.0163 55.155 30.9922 55.1249 30.9922H54.8172V31.3022Z" fill="#FBB040"/>
<path d="M54.8172 31.3022H54.8407C54.8707 31.3022 54.8942 31.2781 54.8942 31.2471V31.0473C54.8942 31.0163 54.8707 30.9922 54.8407 30.9922H54.8172V31.3022Z" fill="#F7941D"/>
<path d="M56.0947 32.2353H51.1756V28.5527H56.0947V32.2353ZM51.2324 32.1733H56.0345V28.6113H51.2324V32.1733Z" fill="black"/>
<path d="M59.9036 31.3496V31.7699H58.79V31.3496H58.6295V31.9525H60.0641V31.3496H59.9036Z" fill="#939598"/>
<path d="M58.6293 31.3887H60.6859V30.8995H58.6293V31.3887Z" fill="black"/>
<path d="M59.2659 31.3887H60.6871V30.8995H59.2659V31.3887Z" fill="#231F20"/>
<path d="M59.3451 31.3022H59.6528C59.6829 31.3022 59.7063 31.2781 59.7063 31.2471V31.0473C59.7063 31.0163 59.6829 30.9922 59.6528 30.9922H59.3451V31.3022Z" fill="#FBB040"/>
<path d="M59.3451 31.3022H59.3685C59.3986 31.3022 59.422 31.2781 59.422 31.2471V31.0473C59.422 31.0163 59.3986 30.9922 59.3685 30.9922H59.3451V31.3022Z" fill="#F7941D"/>
<path d="M60.3483 31.3022H60.656C60.6861 31.3022 60.7095 31.2781 60.7095 31.2471V31.0473C60.7095 31.0163 60.6861 30.9922 60.656 30.9922H60.3483V31.3022Z" fill="#FBB040"/>
<path d="M60.3483 31.3022H60.3717C60.4018 31.3022 60.4252 31.2781 60.4252 31.2471V31.0473C60.4252 31.0163 60.4018 30.9922 60.3717 30.9922H60.3483V31.3022Z" fill="#F7941D"/>
<path d="M61.6258 32.2353H56.7066V28.5527H61.6258V32.2353ZM56.7635 32.1733H61.5656V28.6113H56.7635V32.1733Z" fill="black"/>
<path d="M90.9967 26.0977H46.4404V27.0209H90.9967V26.0977Z" fill="#E6E7E8"/>
<path d="M90.1974 27.5766H45.6411L46.4404 27.0254H91L90.1974 27.5766Z" fill="#939598"/>
<path d="M83.1414 27.5742H45.2733V28.0737H83.1414V27.5742Z" fill="#808285"/>
<path d="M48.0823 26.3223H46.8717V26.8011H48.0823V26.3223Z" fill="black"/>
<path d="M49.2929 26.3223H48.0823V26.8011H49.2929V26.3223Z" fill="#FFDE17"/>
<path d="M50.5067 26.3223H49.2962V26.8011H50.5067V26.3223Z" fill="black"/>
<path d="M51.7173 26.3223H50.5067V26.8011H51.7173V26.3223Z" fill="#FFDE17"/>
<path d="M52.9279 26.3223H51.7173V26.8011H52.9279V26.3223Z" fill="black"/>
<path d="M54.1384 26.3223H52.9279V26.8011H54.1384V26.3223Z" fill="#FFDE17"/>
<path d="M55.3523 26.3223H54.1418V26.8011H55.3523V26.3223Z" fill="black"/>
<path d="M56.5629 26.3223H55.3523V26.8011H56.5629V26.3223Z" fill="#FFDE17"/>
<path d="M57.7734 26.3223H56.5629V26.8011H57.7734V26.3223Z" fill="black"/>
<path d="M58.984 26.3223H57.7734V26.8011H58.984V26.3223Z" fill="#FFDE17"/>
<path d="M60.1945 26.3223H58.9839V26.8011H60.1945V26.3223Z" fill="black"/>
<path d="M61.4084 26.3223H60.1978V26.8011H61.4084V26.3223Z" fill="#FFDE17"/>
<path d="M62.6189 26.3223H61.4084V26.8011H62.6189V26.3223Z" fill="black"/>
<path d="M63.8295 26.3223H62.6189V26.8011H63.8295V26.3223Z" fill="#FFDE17"/>
<path d="M65.04 26.3223H63.8295V26.8011H65.04V26.3223Z" fill="black"/>
<path d="M66.2539 26.3223H65.0434V26.8011H66.2539V26.3223Z" fill="#FFDE17"/>
<path d="M67.4645 26.3223H66.2539V26.8011H67.4645V26.3223Z" fill="black"/>
<path d="M68.675 26.3223H67.4645V26.8011H68.675V26.3223Z" fill="#FFDE17"/>
<path d="M69.8856 26.3223H68.675V26.8011H69.8856V26.3223Z" fill="black"/>
<path d="M71.0961 26.3223H69.8856V26.8011H71.0961V26.3223Z" fill="#FFDE17"/>
<path d="M72.31 26.3223H71.0995V26.8011H72.31V26.3223Z" fill="black"/>
<path d="M73.5206 26.3223H72.31V26.8011H73.5206V26.3223Z" fill="#FFDE17"/>
<path d="M74.7311 26.3223H73.5206V26.8011H74.7311V26.3223Z" fill="black"/>
<path d="M75.9417 26.3223H74.7311V26.8011H75.9417V26.3223Z" fill="#FFDE17"/>
<path d="M77.1556 26.3223H75.945V26.8011H77.1556V26.3223Z" fill="black"/>
<path d="M78.3661 26.3223H77.1556V26.8011H78.3661V26.3223Z" fill="#FFDE17"/>
<path d="M79.5767 26.3223H78.3661V26.8011H79.5767V26.3223Z" fill="black"/>
<path d="M80.7872 26.3223H79.5767V26.8011H80.7872V26.3223Z" fill="#FFDE17"/>
<path d="M81.9978 26.3223H80.7872V26.8011H81.9978V26.3223Z" fill="black"/>
<path d="M83.2117 26.3223H82.0011V26.8011H83.2117V26.3223Z" fill="#FFDE17"/>
<path d="M84.4222 26.3223H83.2117V26.8011H84.4222V26.3223Z" fill="black"/>
<path d="M85.6328 26.3223H84.4222V26.8011H85.6328V26.3223Z" fill="#FFDE17"/>
<path d="M86.8433 26.3223H85.6328V26.8011H86.8433V26.3223Z" fill="black"/>
<path d="M88.0572 26.3223H86.8467V26.8011H88.0572V26.3223Z" fill="#FFDE17"/>
<path d="M89.2678 26.3223H88.0572V26.8011H89.2678V26.3223Z" fill="black"/>
<path d="M90.4783 26.3223H89.2678V26.8011H90.4783V26.3223Z" fill="#FFDE17"/>
</svg>
